<svg xmlns="http://www.w3.org/2000/svg" xmlns:xlink="http://www.w3.org/1999/xlink" version="1.1"><metadata>Created by FontForge 20170731 at Wed May 31 05:49:28 2017 By Aleksey,,, (c) 2015-2017 Apple Inc. All rights reserved.</metadata><defs><font id="SFProDisplay-HeavyItalic" horiz-adv-x="0"><font-face x-height="1089" ascent="1638" bbox="-613 -535 2873 2206" cap-height="1443" descent="-410" font-family="SF Pro Display" font-stretch="normal" font-style="italic" font-weight="800" panose-1="0 0 9 0 0 0 0 0 0 0" slope="-12" underline-position="-829" underline-thickness="227" unicode-range="U+0020-FB02" units-per-em="2048"/><glyph d="M-88 -494l35 165h1847l-35 -165h-1847zM9 -38l35 165h1847l-35 -165h-1847zM106 417l35 166h1847l-35 -166h-1847zM202 874l36 165h1847l-35 -165h-1848zM300 1330l35 164h1847l-35 -164h-1847zM396 1785l35 165h1848l-36 -165h-1847z" glyph-name=".notdef" horiz-adv-x="2048"/><glyph glyph-name=".null"/><glyph glyph-name="nonmarkingreturn"/><glyph glyph-name="space" horiz-adv-x="431"/><glyph d="M399 1443h368l-238 -970h-305zM301 -33q-79 0 -134 52t-55 128q0 75 55 127t134 52q78 0 133.5 -52t55.5 -127t-55.5 -127.5t-133.5 -52.5z" glyph-name="exclam" horiz-adv-x="707" unicode="!"/><glyph d="M496 851h-298l126 592h297zM973 851h-297l125 592h298z" glyph-name="quotedbl" horiz-adv-x="975" unicode="&quot;"/><glyph d="M614 0l120 368h-223l-120 -368h-262l119 368h-221l80 253h222l71 221h-222l80 251h223l115 351h262l-114 -351h223l114 351h264l-114 -351h229l-78 -251h-233l-71 -221h231l-79 -253h-233l-119 -368h-264zM562 594h264l91 274h-266z" glyph-name="numbersign" horiz-adv-x="1343" unicode="#"/><glyph d="M790 549l-62 -288q90 5 143 47t53 108q0 45 -29.5 75t-104.5 58zM720 900l61 283q-82 -4 -131.5 -45t-49.5 -103q0 -85 120 -135zM855 856l65 -19q182 -54 268.5 -148t86.5 -232q0 -213 -159.5 -336.5t-427.5 -123.5h-16l-28 -133h-144l31 146q-192 33 -303 143t-115 274 h338q4 -53 40 -92t97 -58l67 315l-66 20q-164 50 -253.5 153t-89.5 237q0 199 154 321.5t404 122.5q22 0 33 -1l29 139h144l-33 -157q171 -39 272.5 -149t104.5 -262h-328q-8 97 -106 144z" glyph-name="dollar" horiz-adv-x="1372" unicode="$"/><glyph d="M183 1020q0 198 109.5 324t280.5 126q154 0 239 -81t85 -228q0 -197 -112 -325t-282 -128q-152 0 -236 82t-84 230zM504 908q43 0 80.5 87.5t37.5 188.5q0 86 -50 86q-43 0 -78.5 -86t-35.5 -189q0 -87 46 -87zM436 0h-282l725 770l634 673h282l-706 -749zM1053 288 q0 198 110 324.5t280 126.5q154 0 239 -81.5t85 -227.5q0 -197 -112 -325.5t-282 -128.5q-151 0 -235.5 82.5t-84.5 229.5zM1374 177q43 0 80.5 87t37.5 188q0 86 -50 86q-43 0 -78.5 -85.5t-35.5 -188.5q0 -87 46 -87z" glyph-name="percent" horiz-adv-x="1808" unicode="%"/><glyph d="M658 1078q0 -69 84 -176q202 76 202 215q0 54 -36 86.5t-94 32.5q-65 0 -110.5 -46t-45.5 -112zM611 215q118 0 218 55l-230 348q-4 -1 -13.5 -5t-17 -6.5l-10.5 -3.5q-88 -34 -134.5 -87.5t-46.5 -121.5q0 -79 65 -129t169 -50zM1006 0l-45 68q-181 -96 -383 -96 q-227 0 -375.5 111t-148.5 281q0 138 88 243.5t261 173.5l77 31q-116 166 -116 297q0 150 127 251t317 101q183 0 305 -89.5t122 -223.5q0 -269 -371 -418l180 -266q91 131 101 274l2 24h285l-3 -29q-27 -276 -234 -491l162 -242h-351z" glyph-name="ampersand" horiz-adv-x="1489" unicode="&amp;"/><glyph d="M496 851h-298l126 592h297z" glyph-name="quotesingle" horiz-adv-x="497" unicode="'"/><glyph d="M592 -312h-320q-57 115 -91 298.5t-34 364.5q0 313 118.5 599t331.5 493h368q-211 -208 -336.5 -503.5t-122.5 -648.5q3 -378 86 -603z" glyph-name="parenleft" horiz-adv-x="775" unicode="("/><glyph d="M257 1443h320q58 -113 91.5 -295.5t33.5 -367.5q0 -313 -118.5 -599t-331.5 -493h-368q211 208 336.5 503.5t122.5 648.5q-3 378 -86 603z" glyph-name="parenright" horiz-adv-x="775" unicode=")"/><glyph d="M889 788l-200 194l-17 -286l-212 23l81 270l-250 -139l-74 192l277 84l-234 136l129 169l195 -188l17 281l215 -22l-79 -268l249 138l74 -195l-281 -86l238 -136z" glyph-name="asterisk" horiz-adv-x="972" unicode="*"/><glyph d="M847 431l-88 -416h-319l88 416h-390l65 305h390l89 421h319l-89 -421h403l-64 -305h-404z" glyph-name="plus" horiz-adv-x="1372" unicode="+"/><glyph d="M200 -331h-258l189 592h327z" glyph-name="comma" horiz-adv-x="593" unicode=","/><glyph d="M100 437l64 302h650l-64 -302h-650z" glyph-name="hyphen" horiz-adv-x="830" unicode="-"/><glyph d="M100 437l64 302h650l-64 -302h-650z" glyph-name="hyphen" horiz-adv-x="830" unicode="‑"/><glyph d="M252 -13q-77 0 -131.5 54.5t-54.5 131.5t54.5 131.5t131.5 54.5t131.5 -54.5t54.5 -131.5t-54.5 -131.5t-131.5 -54.5z" glyph-name="period" horiz-adv-x="595" unicode="."/><glyph d="M192 -312h-341l807 1755h341z" glyph-name="slash" horiz-adv-x="775" unicode="/"/><glyph d="M685 -25q-244 0 -393 156t-149 412q0 199 54 371.5t149 294t229.5 190.5t290.5 69q247 0 396.5 -155.5t149.5 -410.5q0 -267 -93 -478.5t-259 -330t-375 -118.5zM514 552q0 -141 48.5 -217t137.5 -76q90 0 169 86.5t125.5 233.5t46.5 314q0 140 -49 215t-140 75 q-89 0 -167.5 -86t-124.5 -232t-46 -313z" glyph-name="zero" horiz-adv-x="1413" unicode="0"/><glyph d="M376 0l236 1109h-7l-411 -244l69 328l421 250h366l-307 -1443h-367z" glyph-name="one" horiz-adv-x="1030" unicode="1"/><glyph d="M207 991q16 208 182.5 342.5t408.5 134.5q223 0 367 -113t144 -288q0 -94 -38.5 -169.5t-132.5 -165t-285 -231.5l-273 -211l-1 -7h599l-60 -283h-1090l56 256l527 403q209 158 274 230t65 145q0 68 -49.5 110.5t-127.5 42.5q-91 0 -152.5 -51.5t-79.5 -144.5h-334z" glyph-name="two" horiz-adv-x="1284" unicode="2"/><glyph d="M519 608l54 261h171q114 0 179.5 44.5t65.5 122.5q0 68 -54 109.5t-144 41.5q-83 0 -141.5 -38t-75.5 -102h-332q37 194 193.5 307.5t386.5 113.5q226 0 370.5 -108t144.5 -278q0 -136 -95 -235t-244 -119l-1 -7q116 -29 181.5 -108t65.5 -192q0 -193 -166.5 -319.5 t-421.5 -126.5q-260 0 -414.5 118.5t-152.5 314.5q0 34 6 63h337q-11 -90 55 -151.5t176 -61.5q100 0 163 52t63 135q0 76 -55 119.5t-153 43.5h-162z" glyph-name="three" horiz-adv-x="1332" unicode="3"/><glyph d="M707 0l49 234h-715l61 321q230 314 730 888h529l-197 -923h180l-61 -286h-180l-49 -234h-347zM417 514l-1 -7h408l144 677h-7q-312 -352 -544 -670z" glyph-name="four" horiz-adv-x="1378" unicode="4"/><glyph d="M1323 1160h-664l-100 -307h8q116 116 307 116q178 0 295 -120.5t117 -304.5q0 -122 -45.5 -228t-125.5 -180.5t-193.5 -117.5t-245.5 -43q-240 0 -396 126t-157 320v7q0 2 2 28h332q7 -89 73 -143.5t166 -54.5q106 0 177.5 72.5t71.5 179.5q0 99 -60 158t-158 59 q-57 0 -115 -27.5t-92 -71.5h-332l241 815h956z" glyph-name="five" horiz-adv-x="1326" unicode="5"/><glyph d="M1320 513q-1 -113 -47 -213t-124 -171t-187.5 -112.5t-232.5 -41.5q-128 0 -233 38t-182.5 112.5t-119.5 193t-40 272.5q1 185 56.5 347t151 279t231 184t291.5 67q228 0 376.5 -122.5t151.5 -312.5h-351q-14 71 -65.5 111t-129.5 40q-125 0 -220.5 -114.5t-123.5 -297.5 h8q62 84 154 128.5t205 44.5q190 0 311 -121.5t120 -310.5zM754 695q-104 0 -174.5 -66t-71.5 -163q-2 -90 61.5 -150.5t159.5 -60.5q104 0 171.5 65.5t68.5 165.5q1 91 -59.5 150t-155.5 59z" glyph-name="six" horiz-adv-x="1387" unicode="6"/><glyph d="M56 0l841 1153l1 8h-680l60 282h1066l-60 -283l-829 -1160h-399z" glyph-name="seven" horiz-adv-x="1187" unicode="7"/><glyph d="M1304 408q0 -188 -178.5 -310.5t-453.5 -122.5q-260 0 -424.5 113.5t-164.5 292.5q0 154 111.5 264.5t297.5 142.5l2 7q-95 33 -150.5 105.5t-55.5 163.5q0 173 162 288t406 115q150 0 273.5 -49.5t193.5 -136t70 -191.5q0 -136 -93 -233t-246 -120l-1 -8 q118 -36 184.5 -121.5t66.5 -199.5zM712 622q-104 0 -174 -59.5t-70 -148.5q0 -79 61.5 -129t158.5 -50q105 0 174.5 59t69.5 148q0 79 -61.5 129.5t-158.5 50.5zM636 1025q0 -69 52 -114t131 -45q87 0 149.5 55.5t62.5 132.5q0 69 -52.5 114t-132.5 45q-87 0 -148.5 -55 t-61.5 -133z" glyph-name="eight" horiz-adv-x="1386" unicode="8"/><glyph d="M787 742q104 0 172.5 62.5t69.5 159.5q2 93 -59.5 155.5t-156.5 62.5q-103 0 -170.5 -65.5t-68.5 -166.5q-1 -92 59 -150t154 -58zM222 927q2 235 170 388t425 153q124 0 226 -38.5t177.5 -114.5t116.5 -197t40 -277q-2 -248 -90.5 -445t-248.5 -309t-362 -112 q-227 0 -385 119.5t-167 299.5h353q8 -61 63.5 -98t137.5 -37q133 0 231 114.5t118 293.5h-7q-124 -173 -355 -173q-192 0 -318 123t-125 310z" glyph-name="nine" horiz-adv-x="1387" unicode="9"/><glyph d="M252 -13q-77 0 -131.5 54.5t-54.5 131.5t54.5 131.5t131.5 54.5t131.5 -54.5t54.5 -131.5t-54.5 -131.5t-131.5 -54.5zM402 692q-77 0 -131.5 54t-54.5 131t54.5 131.5t131.5 54.5t131 -54.5t54 -131.5t-54 -131t-131 -54z" glyph-name="colon" horiz-adv-x="595" unicode=":"/><glyph d="M402 692q-77 0 -131.5 54t-54.5 131t54.5 131.5t131.5 54.5t131 -54.5t54 -131.5t-54 -131t-131 -54zM200 -331h-258l189 592h327z" glyph-name="semicolon" horiz-adv-x="595" unicode=";"/><glyph d="M1161 294l-69 -333l-890 491l58 271l1097 490l-75 -353l-683 -276l-3 -17z" glyph-name="less" horiz-adv-x="1372" unicode="&lt;"/><glyph d="M1189 176h-1098l64 303h1098zM1298 689h-1098l65 303h1097z" glyph-name="equal" horiz-adv-x="1372" unicode="="/><glyph d="M294 880l70 332l889 -491l-57 -270l-1098 -490l75 353l683 275l4 18z" glyph-name="greater" horiz-adv-x="1372" unicode="&gt;"/><glyph d="M188 1039q21 185 162 301t357 116q225 0 361 -103.5t136 -267.5q0 -128 -72 -232.5t-209 -164.5q-115 -50 -161 -91t-60 -109l-7 -35h-319l9 55q20 135 73.5 207t169.5 123q123 55 171 104.5t48 115.5q0 56 -42 91t-113 35q-64 0 -113.5 -39.5t-65.5 -105.5h-325z M448 -33q-79 0 -134 52t-55 128q0 75 55 127t134 52q78 0 133.5 -52t55.5 -127t-55.5 -127.5t-133.5 -52.5z" glyph-name="question" horiz-adv-x="1118" unicode="?"/><glyph d="M1061 1446q222 0 394.5 -86t267.5 -241.5t95 -356.5q0 -262 -135 -433.5t-341 -171.5q-109 0 -179 41.5t-72 109.5q0 5 0.5 13.5t0.5 11.5l-19 -4q-82 -144 -236 -144q-131 0 -211.5 97t-80.5 256q0 201 114 340t278 139q88 0 151 -43t79 -116l19 -2l26 126h232 l-113 -524q-4 -21 -4 -44q0 -35 19 -55.5t53 -20.5q85 0 148.5 125t63.5 292q0 231 -154.5 372t-407.5 141q-199 0 -363 -95.5t-258 -262t-94 -367.5q0 -275 181.5 -437.5t488.5 -161.5q89 0 125 12l-37 -179q-71 -11 -143 -11q-242 0 -428.5 96t-288.5 271t-102 403 q0 192 71.5 361t194.5 289.5t296 190t369 69.5zM1109 644q0 74 -32.5 116t-90.5 42q-75 0 -128 -75t-53 -181q0 -74 34.5 -117t92.5 -43q75 0 126 74.5t51 183.5z" glyph-name="at" horiz-adv-x="1838" unicode="@"/><glyph d="M890 1121l-276 -540h324l-40 540h-8zM977 0l-24 317h-471l-163 -317h-388l804 1443h449l166 -1443h-373z" glyph-name="A" horiz-adv-x="1446" unicode="A"/><glyph d="M778 0h-745l307 1443h631q200 0 311 -86.5t111 -223.5q0 -141 -93 -242.5t-241 -131.5l-1 -7q118 -25 190.5 -104t72.5 -188q0 -201 -152.5 -330.5t-390.5 -129.5zM648 1205l-71 -334h208q107 0 174 55t67 140q0 65 -47.5 102t-136.5 37h-194zM448 260h246 q118 0 188.5 59.5t70.5 157.5q0 75 -52.5 116t-152.5 41h-221z" glyph-name="B" horiz-adv-x="1366" unicode="B"/><glyph d="M1186 889v37q-4 105 -78.5 173.5t-185.5 68.5q-179 0 -293 -157.5t-114 -403.5q0 -153 73.5 -241t200.5 -88q115 0 201.5 65t122.5 178h357q-43 -245 -236.5 -395.5t-467.5 -150.5q-286 0 -457 166.5t-171 444.5q0 262 101 462.5t287 310t430 109.5q255 0 421 -146.5 t169 -376.5q1 -27 -3 -56h-357z" glyph-name="C" horiz-adv-x="1507" unicode="C"/><glyph d="M340 1443h557q263 0 422.5 -149.5t159.5 -410.5q0 -192 -55.5 -355.5t-154.5 -280t-242 -182t-312 -65.5h-682zM647 1149l-181 -855h199q194 0 315.5 148t121.5 395q0 146 -75.5 229t-213.5 83h-166z" glyph-name="D" horiz-adv-x="1473" unicode="D"/><glyph d="M1084 295l-62 -295h-989l307 1443h988l-63 -295h-621l-61 -288h584l-58 -270h-584l-63 -295h622z" glyph-name="E" horiz-adv-x="1191" unicode="E"/><glyph d="M414 0h-381l307 1443h981l-63 -295h-600l-70 -329h544l-61 -281h-543z" glyph-name="F" horiz-adv-x="1149" unicode="F"/><glyph d="M1525 777l-31 -170q-55 -305 -242.5 -468.5t-480.5 -163.5q-287 0 -460 171t-173 452q0 179 57 338t159 277t253 186.5t330 68.5q176 0 316.5 -67t216.5 -177t77 -240q0 -14 -2 -28h-353q-7 96 -79 156.5t-185 60.5q-96 0 -175.5 -45t-131.5 -122t-81 -178.5t-29 -214.5 q0 -159 77.5 -251t220.5 -92q115 0 200.5 67.5t110.5 174.5l3 13h-273l54 252h621z" glyph-name="G" horiz-adv-x="1519" unicode="G"/><glyph d="M1341 0h-375l125 584h-559l-124 -584h-375l307 1443h375l-122 -568h559l121 568h375z" glyph-name="H" horiz-adv-x="1540" unicode="H"/><glyph d="M400 0h-367l307 1443h367z" glyph-name="I" horiz-adv-x="598" unicode="I"/><glyph d="M44 409q0 34 3 60h351v-16q0 -75 41.5 -119t115.5 -44q145 0 184 186l206 967h368l-216 -1013q-47 -221 -187 -338t-361 -117q-228 0 -366.5 119.5t-138.5 314.5z" glyph-name="J" horiz-adv-x="1205" unicode="J"/><glyph d="M400 0h-367l307 1443h367l-131 -616h7l611 616h423l-660 -669l354 -774h-404l-254 566l-169 -168z" glyph-name="K" horiz-adv-x="1410" unicode="K"/><glyph d="M1077 303l-65 -303h-979l307 1443h367l-242 -1140h612z" glyph-name="L" horiz-adv-x="1136" unicode="L"/><glyph d="M359 0h-326l307 1443h422l148 -978h7l550 978h458l-307 -1443h-327l205 959h-11l-548 -957h-223l-144 957h-7z" glyph-name="M" horiz-adv-x="1816" unicode="M"/><glyph d="M385 0h-352l307 1443h288l426 -882h7l186 882h353l-307 -1443h-288l-426 882h-7z" glyph-name="N" horiz-adv-x="1491" unicode="N"/><glyph d="M918 1170q-112 0 -206 -74.5t-148 -202.5t-54 -279q0 -155 77 -248t205 -93q112 0 206 74.5t148.5 202t54.5 279.5q0 156 -77 248.5t-206 92.5zM782 -25q-147 0 -269 46.5t-203.5 128.5t-126.5 196t-45 247q0 190 61 354t166.5 277.5t251 178.5t309.5 65 q150 0 272.5 -46.5t204.5 -129t126 -196t44 -246.5q0 -190 -62 -354t-168 -278t-251.5 -178.5t-309.5 -64.5z" glyph-name="O" horiz-adv-x="1570" unicode="O"/><glyph d="M340 1443h537q234 0 369 -118.5t135 -316.5q0 -270 -177 -427.5t-474 -157.5h-239l-90 -423h-367zM647 1161l-98 -461h181q127 0 204.5 76.5t77.5 198.5q0 92 -54.5 139t-156.5 47h-154z" glyph-name="P" horiz-adv-x="1326" unicode="P"/><glyph d="M1359 -132h-331l-57 131q-96 -24 -189 -24q-147 0 -269 46.5t-203.5 128.5t-126.5 196t-45 247q0 190 61 354t166.5 277.5t251 178.5t309.5 65q150 0 272.5 -46.5t204.5 -129t126 -196t44 -246.5q0 -225 -86 -410t-243 -310zM792 273q27 0 65 7l-96 224h302l23 -43 q54 69 84.5 165t30.5 203q0 156 -77 248.5t-206 92.5q-112 0 -206 -74.5t-148 -202.5t-54 -279q0 -155 77 -248t205 -93z" glyph-name="Q" horiz-adv-x="1570" unicode="Q"/><glyph d="M562 764h226q118 0 190 64t72 165q0 84 -51 128.5t-145 44.5h-205zM340 1443h615q217 0 340.5 -116t123.5 -303q0 -161 -92.5 -294t-257.5 -189l169 -541h-382l-149 505h-200l-107 -505h-367z" glyph-name="R" horiz-adv-x="1365" unicode="R"/><glyph d="M71 425h349q11 -75 83.5 -123t179.5 -48q103 0 166.5 40.5t63.5 109.5q0 55 -39 89t-146 67l-138 42q-183 56 -274.5 153.5t-91.5 243.5q0 210 162.5 339.5t416.5 129.5q267 0 422.5 -119.5t156.5 -328.5h-338q-3 77 -66 123.5t-167 46.5q-98 0 -156 -42t-58 -104 q0 -54 41.5 -91t137.5 -65l143 -43q194 -57 281.5 -147.5t87.5 -240.5q0 -215 -167.5 -348.5t-444.5 -133.5q-278 0 -440.5 119t-164.5 331z" glyph-name="S" horiz-adv-x="1347" unicode="S"/><glyph d="M743 0h-368l244 1148h-416l63 295h1199l-63 -295h-416z" glyph-name="T" horiz-adv-x="1284" unicode="T"/><glyph d="M732 -25q-272 0 -430 132.5t-158 346.5q-1 56 13 125l183 864h367l-182 -858q-10 -47 -10 -91q1 -96 67 -151.5t172 -55.5q108 0 180.5 64.5t97.5 184.5l192 907h367l-209 -987q-47 -225 -221 -353t-429 -128z" glyph-name="U" horiz-adv-x="1484" unicode="U"/><glyph d="M853 0h-449l-166 1443h402l58 -1061h7l499 1061h415z" glyph-name="V" horiz-adv-x="1409" unicode="V"/><glyph d="M1096 898l-430 -898h-348l-71 1443h373l-4 -962h7l445 962h291l48 -962h7l395 962h378l-681 -1443h-344l-59 898h-7z" glyph-name="W" horiz-adv-x="1986" unicode="W"/><glyph d="M-54 0l620 729l-311 714h395l191 -453h8l354 453h429l-623 -726l312 -717h-395l-194 458h-8l-358 -458h-420z" glyph-name="X" horiz-adv-x="1435" unicode="X"/><glyph d="M796 0h-367l105 498l-296 945h380l164 -602h8l409 602h400l-699 -951z" glyph-name="Y" horiz-adv-x="1389" unicode="Y"/><glyph d="M-5 0l50 233l838 908v7h-634l64 295h1087l-50 -233l-838 -908v-7h666l-62 -295h-1121z" glyph-name="Z" horiz-adv-x="1277" unicode="Z"/><glyph d="M379 1443h607l-55 -257h-267l-265 -1241h267l-54 -257h-607z" glyph-name="bracketleft" horiz-adv-x="775" unicode="["/><glyph d="M286 -312l-51 1755h328l52 -1755h-329z" glyph-name="backslash" horiz-adv-x="775" unicode="\"/><glyph d="M471 -312h-608l55 257h268l264 1242h-268l55 256h608z" glyph-name="bracketright" horiz-adv-x="775" unicode="]"/><glyph d="M542 1141l-237 -333h-308l454 604h296l194 -604h-293l-88 333h-18z" glyph-name="asciicircum" horiz-adv-x="1039" unicode="^"/><glyph d="M-208 -400l64 300h1105l-64 -300h-1105z" glyph-name="underscore" horiz-adv-x="1024" unicode="_"/><glyph d="M980 1259h-273l-193 316h307z" glyph-name="grave" horiz-adv-x="1059" unicode="`"/><glyph d="M510 223q77 0 137 44.5t74 111.5l18 81l-198 -6q-79 -3 -126 -36.5t-47 -88.5q0 -48 39.5 -77t102.5 -29zM358 -16q-137 0 -229.5 84t-92.5 212q0 167 130 264.5t357 104.5l258 8l13 64q4 23 4 36q0 47 -41 75.5t-110 28.5q-67 0 -112 -28t-60 -78h-316 q31 165 169.5 262.5t342.5 97.5q207 0 335 -91t128 -237q0 -43 -8 -89l-149 -698h-333l28 129h-7q-44 -66 -125.5 -105.5t-181.5 -39.5z" glyph-name="a" horiz-adv-x="1143" unicode="a"/><glyph d="M731 -16q-121 0 -212.5 59.5t-121.5 157.5h-7l-43 -201h-334l308 1443h344l-111 -513h9q49 82 136 128.5t193 46.5q172 0 272 -114t100 -313q0 -143 -40 -271t-109.5 -221t-169.5 -147.5t-214 -54.5zM647 258q112 0 187 107t75 261q0 98 -48 156t-130 58 q-110 0 -188 -110.5t-78 -261.5q0 -94 50 -152t132 -58z" glyph-name="b" horiz-adv-x="1280" unicode="b"/><glyph d="M692 1115q209 0 343 -115t134 -285v-43h-329q-1 75 -45 120.5t-119 45.5q-108 0 -176 -105.5t-68 -274.5q0 -94 45 -150.5t120 -56.5q73 0 124.5 43.5t71.5 120.5h329q-28 -196 -177 -318.5t-362 -122.5q-228 0 -361.5 128t-133.5 342q0 305 164 488t440 183z" glyph-name="c" horiz-adv-x="1160" unicode="c"/><glyph d="M454 -16q-172 0 -272 114.5t-100 310.5q0 147 41.5 276.5t113.5 221.5t173.5 145t216.5 53q120 0 204.5 -54.5t111.5 -147.5h8l115 540h344l-307 -1443h-337l34 158h-7q-119 -174 -339 -174zM614 250q110 0 188.5 109.5t78.5 261.5q0 94 -49.5 152t-130.5 58 q-111 0 -188 -106t-77 -262q0 -97 48.5 -155t129.5 -58z" glyph-name="d" horiz-adv-x="1282" unicode="d"/><glyph d="M436 667h417q3 9 3 31q0 74 -49 122.5t-132 48.5q-86 0 -151 -56t-88 -146zM589 -25q-231 0 -365 132.5t-134 361.5q0 183 74.5 330t211.5 231.5t313 84.5q217 0 350 -128t133 -340q0 -103 -17 -178h-751q-3 -17 -3 -33q0 -94 55 -153t149 -59q74 0 127 34.5t73 92.5h321 q-43 -170 -187 -273t-350 -103z" glyph-name="e" horiz-adv-x="1193" unicode="e"/><glyph d="M94 0l175 820h-169l55 255h164l27 130q30 149 130.5 217.5t279.5 68.5q106 0 210 -26l-49 -223q-40 12 -107 12q-114 0 -133 -96l-18 -83h219l-55 -255h-211l-173 -820h-345z" glyph-name="f" horiz-adv-x="778" unicode="f"/><glyph d="M502 -411q-239 0 -378 93t-140 256h335q10 -56 63 -87.5t137 -31.5q193 0 234 180l39 176h-16q-48 -74 -132.5 -115t-187.5 -41q-167 0 -269.5 112.5t-102.5 296.5q0 181 70 336t195 248t276 93q115 0 199 -57t112 -152h15l42 193h336l-235 -1106q-40 -188 -196 -291 t-396 -103zM611 255q112 0 189.5 108.5t77.5 257.5q0 94 -50 152t-131 58q-112 0 -188 -106t-76 -260q0 -95 48 -152.5t130 -57.5z" glyph-name="g" horiz-adv-x="1269" unicode="g"/><glyph d="M13 0l307 1443h343l-112 -520h7q59 88 149.5 137.5t204.5 49.5q150 0 242.5 -86t92.5 -221q0 -61 -15 -132l-142 -671h-342l131 617q9 44 9 76q0 66 -46.5 108t-121.5 42q-83 0 -146 -56t-82 -145l-136 -642h-343z" glyph-name="h" horiz-adv-x="1257" unicode="h"/><glyph d="M8 0l232 1089h345l-232 -1089h-345zM468 1180q-76 0 -128 49.5t-52 122.5q0 74 52 123.5t128 49.5t128 -49.5t52 -123.5q0 -73 -52 -122.5t-128 -49.5z" glyph-name="i" horiz-adv-x="528" unicode="i"/><glyph d="M470 1180q-76 0 -128 49.5t-52 122.5q0 74 52 123.5t128 49.5t128 -49.5t52 -123.5q0 -73 -52 -122.5t-128 -49.5zM584 1089l-247 -1159q-33 -153 -148 -238t-285 -85q-84 0 -151 14l54 247q34 -6 66 -6q107 0 128 103l239 1124h344z" glyph-name="j" horiz-adv-x="526" unicode="j"/><glyph d="M357 0h-344l308 1443h343l-160 -753h7l397 399h398l-497 -473l297 -616h-373l-200 429l-105 -97z" glyph-name="k" horiz-adv-x="1176" unicode="k"/><glyph d="M15 0l307 1443h344l-307 -1443h-344z" glyph-name="l" horiz-adv-x="540" unicode="l"/><glyph d="M6 0l232 1089h332l-38 -173h7q50 91 138.5 145t190.5 54t176 -53t101 -141h7q61 90 154.5 142t209.5 52q132 0 217.5 -86t85.5 -219q0 -60 -15 -131l-143 -679h-342l132 630q9 42 9 75q0 61 -36 99.5t-97 38.5q-68 0 -120 -50.5t-71 -137.5l-137 -655h-329l132 630 q9 42 9 75q0 61 -36 99.5t-97 38.5q-68 0 -120 -51t-71 -137l-139 -655h-342z" glyph-name="m" horiz-adv-x="1827" unicode="m"/><glyph d="M6 0l232 1089h332l-36 -166h7q57 91 151.5 141.5t206.5 50.5q148 0 240 -86t92 -225q0 -61 -15 -133l-141 -671h-342l130 617q9 46 9 78q0 66 -46 107t-119 41q-80 0 -141.5 -55t-80.5 -146l-137 -642h-342z" glyph-name="n" horiz-adv-x="1241" unicode="n"/><glyph d="M613 242q113 0 189 108t76 267q0 104 -48 167t-127 63q-115 0 -190.5 -106.5t-75.5 -268.5q0 -104 48 -167t128 -63zM718 1115q229 0 370 -135.5t141 -355.5q0 -139 -47.5 -260t-130 -206.5t-200 -134.5t-252.5 -49q-229 0 -370 135t-141 356q0 139 47.5 260t130 206.5 t200 134.5t252.5 49z" glyph-name="o" horiz-adv-x="1251" unicode="o"/><glyph d="M639 258q110 0 186.5 106.5t76.5 261.5q0 98 -48 156t-129 58q-111 0 -189 -111t-78 -261q0 -94 49.5 -152t131.5 -58zM274 -352h-343l307 1441h335l-34 -157h7q60 85 148 129t192 44q171 0 270.5 -114.5t99.5 -310.5q0 -198 -70 -357t-194 -249t-277 -90q-118 0 -201 57 t-115 159h-7z" glyph-name="p" horiz-adv-x="1273" unicode="p"/><glyph d="M614 250q110 0 189 109.5t79 261.5q0 94 -49.5 152t-130.5 58q-112 0 -188.5 -106.5t-76.5 -261.5q0 -97 48 -155t129 -58zM1033 -352h-344l111 511h-6q-124 -175 -339 -175q-172 0 -272 114.5t-100 310.5t70.5 355.5t195.5 250t279 90.5q117 0 205.5 -54.5t124.5 -147.5 h7l39 186h335z" glyph-name="q" horiz-adv-x="1280" unicode="q"/><glyph d="M6 0l233 1089h335l-31 -155h7q41 78 112.5 124.5t160.5 46.5q83 0 144 -28l-66 -301q-75 36 -157 36q-219 0 -270 -239l-123 -573h-345z" glyph-name="r" horiz-adv-x="848" unicode="r"/><glyph d="M165 757q0 161 130.5 259t346.5 98q204 0 334.5 -100t135.5 -259h-310q-4 56 -49.5 91.5t-115.5 35.5q-66 0 -105.5 -26t-39.5 -69q0 -36 30.5 -59t113.5 -51l116 -38q154 -52 219.5 -120t65.5 -178q0 -165 -135.5 -266t-358.5 -101q-226 0 -363.5 101t-144.5 270h327 q5 -62 56.5 -99.5t134.5 -37.5q66 0 104.5 26t38.5 70q0 34 -29 55.5t-109 48.5l-98 33q-152 50 -223.5 127t-71.5 189z" glyph-name="s" horiz-adv-x="1108" unicode="s"/><glyph d="M524 -14q-169 0 -262.5 61t-93.5 179q0 58 11 114l99 468h-163l56 256h162l56 262h343l-55 -262h217l-54 -256h-217l-92 -429q-6 -25 -6 -56q0 -46 31 -67t98 -21q51 0 72 6l-53 -242q-50 -13 -149 -13z" glyph-name="t" horiz-adv-x="813" unicode="t"/><glyph d="M1301 1089l-232 -1089h-333l37 172h-7q-48 -90 -141 -144t-207 -54q-155 0 -247.5 87t-92.5 230q0 73 15 141l139 657h344l-129 -601q-7 -42 -7 -73q0 -77 42 -117.5t120 -40.5q83 0 141.5 54.5t78.5 148.5l134 629h345z" glyph-name="u" horiz-adv-x="1241" unicode="u"/><glyph d="M158 1090h346l32 -785h7l360 785h368l-592 -1090h-399z" glyph-name="v" horiz-adv-x="1131" unicode="v"/><glyph d="M1822 1089l-507 -1089h-375l-16 735h-7l-321 -735h-379l-50 1089h341l-21 -769h7l325 769h336l4 -769h7l301 769h355z" glyph-name="w" horiz-adv-x="1691" unicode="w"/><glyph d="M570 341h-7l-239 -341h-381l447 549l-211 540h368l110 -341h7l238 341h381l-446 -549l211 -540h-369z" glyph-name="x" horiz-adv-x="1161" unicode="x"/><glyph d="M81 -399q-132 0 -144 4l55 267q9 -3 104 -3q159 0 180 114q0 3 4 17.5t3 16.5l-125 1072h352l29 -818h7l377 818h367l-587 -1102q-111 -209 -256 -297.5t-366 -88.5z" glyph-name="y" horiz-adv-x="1152" unicode="y"/><glyph d="M-19 0l40 188l631 628l2 7h-485l57 266h920l-47 -216l-593 -600l-1 -7h483l-57 -266h-950z" glyph-name="z" horiz-adv-x="1074" unicode="z"/><glyph d="M178 205q11 50 11 87q0 60 -38.5 89t-133.5 29l65 310q111 0 167.5 45.5t81.5 160.5l29 133q47 212 162.5 298t339.5 86h124l-53 -250h-44q-90 0 -135 -44t-69 -154l-40 -184q-24 -111 -100.5 -168t-213.5 -69l-5 -19q217 -23 217 -190q0 -29 -9 -78l-33 -152 q-12 -60 -12 -91q0 -59 31 -83.5t101 -24.5h44l-53 -248h-124q-96 0 -166.5 22.5t-109.5 63t-57 88.5t-18 106q0 53 15 117z" glyph-name="braceleft" horiz-adv-x="775" unicode="{"/><glyph d="M408 -312h-340l373 1755h340z" glyph-name="bar" horiz-adv-x="775" unicode="|"/><glyph d="M672 926q-12 -55 -12 -87q0 -60 39 -89t134 -29l-66 -310q-111 0 -167.5 -45.5t-81.5 -160.5l-29 -133q-47 -212 -162.5 -298t-339.5 -86h-124l54 250h43q90 0 135 43.5t69 154.5l40 184q25 111 101.5 168t213.5 69l4 19q-217 24 -217 190q0 33 10 78l32 152q12 52 12 91 q0 59 -31 83.5t-101 24.5h-43l52 248h124q96 0 166.5 -22.5t109.5 -63t57 -88.5t18 -106q0 -47 -14 -117z" glyph-name="braceright" horiz-adv-x="775" unicode="}"/><glyph d="M954 464q-59 0 -108.5 20t-83.5 48t-63.5 56t-62 48t-66.5 20q-95 0 -128 -156h-260q38 222 135 336t241 114q58 0 108 -20t83.5 -48t63 -56t60.5 -48t63 -20q45 0 79 40t49 118h260q-76 -452 -370 -452z" glyph-name="asciitilde" horiz-adv-x="1372" unicode="~"/><glyph glyph-name="nonbreakingspace" horiz-adv-x="431"/><glyph d="M376 -340h-368l238 970h305zM474 1136q80 0 135 -52t55 -128q0 -75 -55 -127t-135 -52q-78 0 -133.5 52t-55.5 127t55.5 127.5t133.5 52.5z" glyph-name="exclamdown" horiz-adv-x="707" unicode="¡"/><glyph d="M1258 534q-25 -167 -151 -284.5t-326 -137.5l-38 -184h-280l45 213q-142 48 -223 162.5t-81 274.5q0 183 66.5 333.5t191 246t287.5 115.5l38 178h280l-44 -202q131 -46 206 -144t80 -211q1 -13 1 -42h-329q-2 73 -48.5 113t-120.5 40q-116 0 -187.5 -116t-71.5 -289 q0 -108 51 -163t124 -55t125 39t74 113h331z" glyph-name="cent" horiz-adv-x="1372" unicode="¢"/><glyph d="M1251 305l-64 -297h-1156l63 297q140 5 245 93t117 214q0 1 -0.5 8t-0.5 12h-299l51 240h233q-8 116 -8 149q0 218 156 338t415 120q260 0 439 -82l-56 -278q-137 67 -327 67q-121 0 -198 -55t-77 -160q0 -39 5 -99h365l-50 -240h-305q1 -7 1 -15q-10 -103 -59.5 -186.5 t-125.5 -121.5v-4h636z" glyph-name="sterling" horiz-adv-x="1372" unicode="£"/><glyph d="M522 645q0 -89 65 -154.5t154 -65.5t154 65.5t65 154.5t-65 155t-154 66t-154 -66t-65 -155zM1384 1012l-204 -168q43 -94 43 -199q0 -141 -78 -262l97 -121l-239 -196l-100 125q-79 -28 -162 -28q-153 0 -279 89l-208 -172l-157 198l204 169q-42 95 -42 198 q0 143 78 262l-98 122l239 196l101 -126q78 28 162 28q152 0 278 -88l208 172z" glyph-name="currency" horiz-adv-x="1372" unicode="¤"/><glyph d="M1093 182h-267l-38 -182h-368l39 182h-268l39 182h268l25 120h-268l39 182h180l-245 777h383l164 -603h5l414 603h395l-571 -777h177l-39 -182h-267l-25 -120h267z" glyph-name="yen" horiz-adv-x="1372" unicode="¥"/><glyph d="M634 755h-340l147 688h340zM409 -312h-340l145 689h340z" glyph-name="brokenbar" horiz-adv-x="775" unicode="¦"/><glyph d="M464 480l114 -61q50 17 81.5 52.5t31.5 75.5q0 76 -96 123l-112 61q-52 -15 -85 -50.5t-33 -77.5q0 -35 26 -67t73 -56zM407 -301q-126 0 -226 43.5t-159 125.5t-60 188h292q5 -51 47.5 -85t104.5 -34q63 0 104.5 31.5t41.5 78.5q0 69 -90 112l-178 90q-224 111 -224 298 q0 111 73 188t197 105v16q-77 56 -108.5 109.5t-31.5 127.5q0 157 127.5 256.5t325.5 99.5q192 0 311.5 -96.5t127.5 -262.5h-290q-4 55 -45.5 88t-104.5 33q-61 0 -100.5 -30.5t-39.5 -76.5q0 -66 93 -112l166 -88q234 -120 234 -300q0 -109 -75.5 -189.5t-192.5 -103.5 l-1 -16q75 -55 106 -109t31 -127q0 -157 -128.5 -258.5t-327.5 -101.5z" glyph-name="section" horiz-adv-x="972" unicode="§"/><glyph d="M539 1246q-60 0 -100 38.5t-40 94.5t40 95t100 39q59 0 99 -39t40 -95t-40 -94.5t-99 -38.5zM946 1246q-60 0 -100 38.5t-40 94.5t40 95t100 39t100 -39t40 -95t-40 -94.5t-100 -38.5z" glyph-name="dieresis" horiz-adv-x="1059" unicode="¨"/><glyph d="M884 -120q-165 0 -309.5 58t-246.5 159t-161 243t-59 305q0 162 63.5 310.5t170 255.5t254 170.5t308.5 63.5q221 0 398.5 -98.5t277.5 -273.5t100 -393q0 -162 -63 -310.5t-170 -255.5t-254 -170.5t-309 -63.5zM884 48q125 0 240 50.5t198 135.5t132.5 202t49.5 244 q0 260 -169 428.5t-431 168.5q-125 0 -240 -50.5t-198 -135.5t-132.5 -202t-49.5 -244q0 -128 45 -239t124 -189.5t190.5 -123.5t240.5 -45zM1263 744h-216q1 60 -30 94t-84 34q-74 0 -124.5 -77t-50.5 -190q0 -72 32 -111.5t91 -39.5q80 0 120 83h223q-33 -125 -124 -193.5 t-225 -68.5q-150 0 -244 93.5t-94 242.5q0 190 114 315t287 125q150 0 243 -88.5t82 -218.5z" glyph-name="copyright" horiz-adv-x="1672" unicode="©"/><glyph d="M510 1009q-49 0 -76.5 -21t-27.5 -55q0 -32 25.5 -50t63.5 -18q43 0 74.5 26.5t40.5 70.5l10 47h-110zM152 899q0 113 82.5 179.5t229.5 66.5h186q2 6 5 21.5t4 18.5q5 20 5 26q0 31 -24.5 48.5t-65.5 17.5q-33 0 -58 -13t-34 -36h-238q29 116 115 175t221 59 q151 0 244 -66.5t93 -173.5q0 -26 -6 -56l-100 -467h-248l15 82l-13 1q-30 -43 -79 -67.5t-107 -24.5q-98 0 -162.5 56.5t-64.5 152.5z" glyph-name="ordfeminine" horiz-adv-x="808" unicode="ª"/><glyph d="M710 153h-303l-263 409l2 11l405 406h330l-431 -421v-8zM1257 154h-303l-261 403l2 11l409 411h330l-435 -426l-1 -7z" glyph-name="guillemotleft" horiz-adv-x="1431" unicode="«"/><glyph d="M1307 737l-149 -703h-312l86 402h-785l64 301h1096z" glyph-name="logicalnot" horiz-adv-x="1372" unicode="¬"/><glyph d="M630 842h-138l99 471h245q67 0 112 -43t45 -105q0 -55 -35 -98t-91 -59l75 -166h-156l-64 154h-60zM708 1205l-24 -110h88q34 0 54 17t20 44q0 49 -58 49h-80zM740 550q-146 0 -266.5 68.5t-189 188t-68.5 265.5t68.5 265.5t189 188t266.5 68.5t266.5 -68.5t189 -188 t68.5 -265.5t-68.5 -265.5t-189 -188t-266.5 -68.5zM740 694q160 0 265.5 107.5t105.5 270.5t-105.5 270.5t-265.5 107.5t-265.5 -107.5t-105.5 -270.5t105.5 -270.5t265.5 -107.5z" glyph-name="registered" horiz-adv-x="1191" unicode="®"/><glyph d="M1093 1442l-35 -165h-673l35 165h673z" glyph-name="macron" horiz-adv-x="1059" unicode="¯"/><glyph d="M542 785q-143 0 -239.5 96.5t-96.5 239.5t96.5 239t239.5 96q144 0 240 -96t96 -239t-96.5 -239.5t-239.5 -96.5zM543 980q58 0 97.5 41.5t39.5 99.5q0 59 -39.5 100t-97.5 41q-56 0 -97 -41.5t-41 -99.5q0 -57 41 -99t97 -42z" glyph-name="degree" horiz-adv-x="774" unicode="°"/><glyph d="M1099 55h-971l54 255h971zM892 645l-45 -212h-304l45 212h-335l55 258h335l45 213h305l-46 -213h336l-55 -258h-336z" glyph-name="plusminus" horiz-adv-x="1372" unicode="±"/><glyph d="M639 1308l-45 -33h236l-42 -196h-595l40 183l216 141q115 78 149.5 109.5t34.5 59.5q0 21 -15.5 34t-40.5 13q-26 0 -45 -18t-23 -46l-1 -7h-240q4 114 100.5 190t235.5 76q127 0 208.5 -60t81.5 -155q0 -75 -52 -134t-203 -157z" glyph-name="two.sups" horiz-adv-x="682" unicode="²"/><glyph d="M470 1359l35 165h79q79 0 79 52q0 21 -18 34.5t-46 13.5q-23 0 -42.5 -11.5t-23.5 -28.5h-239q23 108 109.5 169t216.5 61q129 0 210.5 -58t81.5 -151q0 -65 -48.5 -112t-118.5 -56l-1 -5q54 -12 86.5 -53t32.5 -98q0 -101 -86.5 -163.5t-226.5 -62.5q-151 0 -236 62 t-84 172q0 20 2 28h247v-1q1 -25 20 -39.5t50 -14.5q29 0 47 14.5t18 37.5q0 19 -15.5 32t-38.5 13h-90z" glyph-name="three.sups" horiz-adv-x="715" unicode="³"/><glyph d="M722 1259h-277l293 316h312z" glyph-name="acute" horiz-adv-x="1059" unicode="´"/><glyph d="M-68 -352l306 1441h345l-122 -573q-12 -57 -12 -90q0 -79 40.5 -121t116.5 -42q82 0 143 59.5t83 160.5l129 606h345l-155 -729q-7 -36 -7 -52q0 -67 81 -67q29 0 56 9l-51 -238q-66 -20 -155 -20q-126 0 -190.5 51.5t-63.5 150.5l-1 2v2h-7q-37 -96 -122.5 -156 t-183.5 -60q-96 0 -141 58h-7l-84 -392h-343z" glyph-name="mugreek" horiz-adv-x="1328" unicode="µ"/><glyph d="M-68 -352l306 1441h345l-122 -573q-12 -57 -12 -90q0 -79 40.5 -121t116.5 -42q82 0 143 59.5t83 160.5l129 606h345l-155 -729q-7 -36 -7 -52q0 -67 81 -67q29 0 56 9l-51 -238q-66 -20 -155 -20q-126 0 -190.5 51.5t-63.5 150.5l-1 2v2h-7q-37 -96 -122.5 -156 t-183.5 -60q-96 0 -141 58h-7l-84 -392h-343z" glyph-name="mugreek" horiz-adv-x="1328" unicode="μ"/><glyph d="M796 -273h-333l147 688q-187 25 -294 144.5t-107 293.5q0 254 168 416t447 173l337 1zM976 -273l365 1716h333l-365 -1716h-333z" glyph-name="paragraph" horiz-adv-x="1582" unicode="¶"/><glyph d="M331 359q-77 0 -131.5 54t-54.5 131t54.5 131.5t131.5 54.5t131.5 -54.5t54.5 -131.5t-54.5 -131t-131.5 -54z" glyph-name="periodcentered" horiz-adv-x="595" unicode="·"/><glyph d="M243 -216l26 113l86 117h177l-2 -14l-66 -91q73 -7 111.5 -45t38.5 -103q0 -99 -87 -163t-222 -64q-100 0 -147 18l32 150q50 -15 117 -15q115 0 115 52q0 25 -27 35t-94 10h-58z" glyph-name="cedilla" horiz-adv-x="1075" unicode="¸"/><glyph d="M354 1079l104 488h-6l-190 -107l46 220l197 111h271l-152 -712h-270z" glyph-name="one.sups" horiz-adv-x="568" unicode="¹"/><glyph d="M539 680q-163 0 -258 90.5t-95 246.5q0 195 119 320t303 125q164 0 257.5 -91.5t93.5 -251.5q0 -194 -117.5 -316.5t-302.5 -122.5zM700 1130q0 63 -26 99.5t-70 36.5q-64 0 -110.5 -76t-46.5 -180q0 -63 25 -98t71 -35q65 0 111 74.5t46 178.5z" glyph-name="ordmasculine" horiz-adv-x="857" unicode="º"/><glyph d="M796 979h303l263 -409l-2 -11l-405 -406h-330l431 421v8zM249 978h303l261 -403l-2 -11l-409 -411h-330l435 426l1 8z" glyph-name="guillemotright" horiz-adv-x="1431" unicode="»"/><glyph d="M281 731l104 488h-6l-190 -107l46 220l197 111h271l-152 -712h-270zM357 0h-282l725 770l634 673h281l-705 -749zM1266 0l18 85h-358l49 230q114 164 314 397h382l-91 -427h77l-43 -200h-76l-18 -85h-254zM1191 278l-1 -6h143l56 264h-5q-127 -146 -193 -258z" glyph-name="onequarter" horiz-adv-x="1715" unicode="¼"/><glyph d="M385 1219h-6l-190 -107l46 220l197 111h271l-152 -712h-270zM1434 1443h281l-705 -749l-653 -694h-282l725 770zM1463 229l-45 -33h236l-42 -196h-595l40 183l216 141q115 78 149.5 109.5t34.5 59.5q0 21 -15.5 34t-40.5 13q-26 0 -45 -18t-23 -46l-1 -7h-240 q4 114 100.5 190t235.5 76q127 0 208.5 -60t81.5 -155q0 -75 -52 -134t-203 -157z" glyph-name="onehalf" horiz-adv-x="1735" unicode="½"/><glyph d="M397 1011l35 165h79q79 0 79 52q0 21 -18 34.5t-46 13.5q-23 0 -42.5 -11.5t-23.5 -28.5h-239q23 108 109.5 169t216.5 61q129 0 210.5 -58t81.5 -151q0 -65 -48.5 -112t-118.5 -56l-1 -5q54 -12 86.5 -53t32.5 -98q0 -101 -86.5 -163.5t-226.5 -62.5q-151 0 -236 62 t-84 172q0 20 2 28h247v-1q1 -25 20 -39.5t50 -14.5q29 0 47 14.5t18 37.5q0 19 -15.5 32t-38.5 13h-90zM457 0h-282l725 770l634 673h281l-705 -749zM1366 0l18 85h-358l49 230q114 164 314 397h382l-91 -427h77l-43 -200h-76l-18 -85h-254zM1291 278l-1 -6h143l56 264h-5 q-127 -146 -193 -258z" glyph-name="threequarters" horiz-adv-x="1815" unicode="¾"/><glyph d="M999 64q-21 -185 -162 -301t-357 -116q-225 0 -361 103.5t-136 267.5q0 128 72 232.5t209 164.5q115 50 161 91t60 109l7 35h319l-9 -55q-20 -136 -73 -207.5t-170 -122.5q-123 -55 -171 -104.5t-48 -115.5q0 -56 42.5 -91t113.5 -35q64 0 113 39.5t65 105.5h325z M739 1136q79 0 134.5 -52.5t55.5 -127.5t-55.5 -127t-134.5 -52q-78 0 -133.5 52t-55.5 127t55.5 127.5t133.5 52.5z" glyph-name="questiondown" horiz-adv-x="1118" unicode="¿"/><glyph d="M890 1121l-276 -540h324l-40 540h-8zM977 0l-24 317h-471l-163 -317h-388l804 1443h449l166 -1443h-373zM854 1556l-205 314h297l163 -314h-255z" glyph-name="Agrave" horiz-adv-x="1446" unicode="À"/><glyph d="M890 1121l-276 -540h324l-40 540h-8zM977 0l-24 317h-471l-163 -317h-388l804 1443h449l166 -1443h-373zM1127 1556h-284l295 314h326z" glyph-name="Aacute" horiz-adv-x="1446" unicode="Á"/><glyph d="M890 1121l-276 -540h324l-40 540h-8zM977 0l-24 317h-471l-163 -317h-388l804 1443h449l166 -1443h-373zM1182 1869l192 -327h-247l-103 192h-7l-185 -192h-253l332 327h271z" glyph-name="Acircumflex" horiz-adv-x="1446" unicode="Â"/><glyph d="M890 1121l-276 -540h324l-40 540h-8zM977 0l-24 317h-471l-163 -317h-388l804 1443h449l166 -1443h-373zM1150 1546q-48 0 -88.5 20t-63 43.5t-50 43.5t-53.5 20q-31 0 -55 -29.5t-37 -81.5h-184q26 130 101.5 207t176.5 77q49 0 90 -20t63 -43.5t49.5 -43.5t53.5 -20 q63 0 92 115h184q-28 -131 -104 -209.5t-175 -78.5z" glyph-name="Atilde" horiz-adv-x="1446" unicode="Ã"/><glyph d="M890 1121l-276 -540h324l-40 540h-8zM977 0l-24 317h-471l-163 -317h-388l804 1443h449l166 -1443h-373zM810 1573q-60 0 -100 38.5t-40 94.5t40 95t100 39q59 0 99 -39t40 -95t-40 -94.5t-99 -38.5zM1217 1573q-60 0 -100 38.5t-40 94.5t40 95t100 39t100 -39t40 -95 t-40 -94.5t-100 -38.5z" glyph-name="Adieresis" horiz-adv-x="1446" unicode="Ä"/><glyph d="M890 1121l-276 -540h324l-40 540h-8zM977 0l-24 317h-471l-163 -317h-388l804 1443h449l166 -1443h-373zM1043 1569q-95 0 -163 64.5t-68 158.5q0 95 68.5 161t164.5 66q95 0 162.5 -64.5t67.5 -158.5t-68 -160.5t-164 -66.5zM1043 1705q38 0 65 26t27 64t-26.5 64 t-63.5 26q-38 0 -65 -26.5t-27 -65.5q0 -37 26.5 -62.5t63.5 -25.5z" glyph-name="Aring" horiz-adv-x="1446" unicode="Å"/><glyph d="M1126 1167h-120l-339 -575h337zM878 0l69 327h-431l-194 -327h-371l873 1443h1337l-63 -295h-646l-61 -290h609l-58 -270h-609l-62 -293h645l-62 -295h-976z" glyph-name="AE" horiz-adv-x="2035" unicode="Æ"/><glyph d="M1543 889h-357v37q-4 105 -78.5 173.5t-185.5 68.5q-179 0 -293 -157.5t-114 -403.5q0 -153 73.5 -241t200.5 -88q115 0 201.5 65t122.5 178h357q-40 -229 -213 -376.5t-423 -166.5l-50 -69q73 -7 111.5 -45t38.5 -103q0 -99 -87 -163t-222 -64q-100 0 -147 18l32 150 q50 -15 117 -15q115 0 115 52q0 25 -27 35t-94 10h-58l26 113l63 86q-238 32 -376 193t-138 410q0 262 101 462.5t287 310t430 109.5q255 0 421 -146.5t169 -376.5q1 -27 -3 -56z" glyph-name="Ccedilla" horiz-adv-x="1507" unicode="Ç"/><glyph d="M1084 295l-62 -295h-989l307 1443h988l-63 -295h-621l-61 -288h584l-58 -270h-584l-63 -295h622zM709 1556l-205 314h297l163 -314h-255z" glyph-name="Egrave" horiz-adv-x="1191" unicode="È"/><glyph d="M1084 295l-62 -295h-989l307 1443h988l-63 -295h-621l-61 -288h584l-58 -270h-584l-63 -295h622zM982 1556h-284l295 314h326z" glyph-name="Eacute" horiz-adv-x="1191" unicode="É"/><glyph d="M1084 295l-62 -295h-989l307 1443h988l-63 -295h-621l-61 -288h584l-58 -270h-584l-63 -295h622zM1037 1869l192 -327h-247l-103 192h-7l-185 -192h-253l332 327h271z" glyph-name="Ecircumflex" horiz-adv-x="1191" unicode="Ê"/><glyph d="M1084 295l-62 -295h-989l307 1443h988l-63 -295h-621l-61 -288h584l-58 -270h-584l-63 -295h622zM665 1573q-60 0 -100 38.5t-40 94.5t40 95t100 39q59 0 99 -39t40 -95t-40 -94.5t-99 -38.5zM1072 1573q-60 0 -100 38.5t-40 94.5t40 95t100 39t100 -39t40 -95t-40 -94.5 t-100 -38.5z" glyph-name="Edieresis" horiz-adv-x="1191" unicode="Ë"/><glyph d="M400 0h-367l307 1443h367zM419 1556l-205 314h297l163 -314h-255z" glyph-name="Igrave" horiz-adv-x="598" unicode="Ì"/><glyph d="M400 0h-367l307 1443h367zM692 1556h-284l295 314h326z" glyph-name="Iacute" horiz-adv-x="598" unicode="Í"/><glyph d="M400 0h-367l307 1443h367zM747 1869l192 -327h-247l-103 192h-7l-185 -192h-253l332 327h271z" glyph-name="Icircumflex" horiz-adv-x="598" unicode="Î"/><glyph d="M400 0h-367l307 1443h367zM375 1573q-60 0 -100 38.5t-40 94.5t40 95t100 39q59 0 99 -39t40 -95t-40 -94.5t-99 -38.5zM782 1573q-60 0 -100 38.5t-40 94.5t40 95t100 39t100 -39t40 -95t-40 -94.5t-100 -38.5z" glyph-name="Idieresis" horiz-adv-x="598" unicode="Ï"/><glyph d="M466 294h199q194 0 315.5 148t121.5 395q0 146 -75.5 229t-213.5 83h-166l-58 -274h222l-63 -295h-221zM340 1443h557q263 0 422.5 -149.5t159.5 -410.5q0 -192 -55.5 -355.5t-154.5 -280t-242 -182t-312 -65.5h-682l123 580h-116l63 295h116z" glyph-name="Eth" horiz-adv-x="1473" unicode="Ð"/><glyph d="M385 0h-352l307 1443h288l426 -882h7l186 882h353l-307 -1443h-288l-426 882h-7zM1129 1546q-48 0 -88.5 20t-63 43.5t-50 43.5t-53.5 20q-31 0 -55 -29.5t-37 -81.5h-184q26 130 101.5 207t176.5 77q49 0 90 -20t63 -43.5t49.5 -43.5t53.5 -20q63 0 92 115h184 q-28 -131 -104 -209.5t-175 -78.5z" glyph-name="Ntilde" horiz-adv-x="1491" unicode="Ñ"/><glyph d="M918 1170q-112 0 -206 -74.5t-148 -202.5t-54 -279q0 -155 77 -248t205 -93q112 0 206 74.5t148.5 202t54.5 279.5q0 156 -77 248.5t-206 92.5zM782 -25q-147 0 -269 46.5t-203.5 128.5t-126.5 196t-45 247q0 190 61 354t166.5 277.5t251 178.5t309.5 65 q150 0 272.5 -46.5t204.5 -129t126 -196t44 -246.5q0 -190 -62 -354t-168 -278t-251.5 -178.5t-309.5 -64.5zM835 1556l-205 314h297l163 -314h-255z" glyph-name="Ograve" horiz-adv-x="1570" unicode="Ò"/><glyph d="M918 1170q-112 0 -206 -74.5t-148 -202.5t-54 -279q0 -155 77 -248t205 -93q112 0 206 74.5t148.5 202t54.5 279.5q0 156 -77 248.5t-206 92.5zM782 -25q-147 0 -269 46.5t-203.5 128.5t-126.5 196t-45 247q0 190 61 354t166.5 277.5t251 178.5t309.5 65 q150 0 272.5 -46.5t204.5 -129t126 -196t44 -246.5q0 -190 -62 -354t-168 -278t-251.5 -178.5t-309.5 -64.5zM1108 1556h-284l295 314h326z" glyph-name="Oacute" horiz-adv-x="1570" unicode="Ó"/><glyph d="M918 1170q-112 0 -206 -74.5t-148 -202.5t-54 -279q0 -155 77 -248t205 -93q112 0 206 74.5t148.5 202t54.5 279.5q0 156 -77 248.5t-206 92.5zM782 -25q-147 0 -269 46.5t-203.5 128.5t-126.5 196t-45 247q0 190 61 354t166.5 277.5t251 178.5t309.5 65 q150 0 272.5 -46.5t204.5 -129t126 -196t44 -246.5q0 -190 -62 -354t-168 -278t-251.5 -178.5t-309.5 -64.5zM1163 1869l192 -327h-247l-103 192h-7l-185 -192h-253l332 327h271z" glyph-name="Ocircumflex" horiz-adv-x="1570" unicode="Ô"/><glyph d="M918 1170q-112 0 -206 -74.5t-148 -202.5t-54 -279q0 -155 77 -248t205 -93q112 0 206 74.5t148.5 202t54.5 279.5q0 156 -77 248.5t-206 92.5zM782 -25q-147 0 -269 46.5t-203.5 128.5t-126.5 196t-45 247q0 190 61 354t166.5 277.5t251 178.5t309.5 65 q150 0 272.5 -46.5t204.5 -129t126 -196t44 -246.5q0 -190 -62 -354t-168 -278t-251.5 -178.5t-309.5 -64.5zM1131 1546q-48 0 -88.5 20t-63 43.5t-50 43.5t-53.5 20q-31 0 -55 -29.5t-37 -81.5h-184q26 130 101.5 207t176.5 77q49 0 90 -20t63 -43.5t49.5 -43.5t53.5 -20 q63 0 92 115h184q-28 -131 -104 -209.5t-175 -78.5z" glyph-name="Otilde" horiz-adv-x="1570" unicode="Õ"/><glyph d="M918 1170q-112 0 -206 -74.5t-148 -202.5t-54 -279q0 -155 77 -248t205 -93q112 0 206 74.5t148.5 202t54.5 279.5q0 156 -77 248.5t-206 92.5zM782 -25q-147 0 -269 46.5t-203.5 128.5t-126.5 196t-45 247q0 190 61 354t166.5 277.5t251 178.5t309.5 65 q150 0 272.5 -46.5t204.5 -129t126 -196t44 -246.5q0 -190 -62 -354t-168 -278t-251.5 -178.5t-309.5 -64.5zM791 1573q-60 0 -100 38.5t-40 94.5t40 95t100 39q59 0 99 -39t40 -95t-40 -94.5t-99 -38.5zM1198 1573q-60 0 -100 38.5t-40 94.5t40 95t100 39t100 -39t40 -95 t-40 -94.5t-100 -38.5z" glyph-name="Odieresis" horiz-adv-x="1570" unicode="Ö"/><glyph d="M908 74l-221 312l-340 -261l-164 231l341 261l-224 314l246 171l216 -302l343 259l165 -232l-344 -259l230 -323z" glyph-name="multiply" horiz-adv-x="1372" unicode="×"/><glyph d="M1195 911l-577 -577q72 -61 174 -61q112 0 206 74.5t148.5 202t54.5 279.5q0 43 -6 82zM516 532l577 577q-72 61 -175 61q-112 0 -206 -74.5t-148 -202.5t-54 -279q0 -43 6 -82zM1627 1343l-147 -147q93 -148 93 -346q0 -190 -62 -354t-168 -278t-251.5 -178.5 t-309.5 -64.5q-238 0 -405 118l-143 -143l-150 150l148 148q-94 149 -94 345q0 190 61 354t166.5 277.5t251 178.5t309.5 65q243 0 408 -118l143 143z" glyph-name="Oslash" horiz-adv-x="1570" unicode="Ø"/><glyph d="M732 -25q-272 0 -430 132.5t-158 346.5q-1 56 13 125l183 864h367l-182 -858q-10 -47 -10 -91q1 -96 67 -151.5t172 -55.5q108 0 180.5 64.5t97.5 184.5l192 907h367l-209 -987q-47 -225 -221 -353t-429 -128zM850 1556l-205 314h297l163 -314h-255z" glyph-name="Ugrave" horiz-adv-x="1484" unicode="Ù"/><glyph d="M732 -25q-272 0 -430 132.5t-158 346.5q-1 56 13 125l183 864h367l-182 -858q-10 -47 -10 -91q1 -96 67 -151.5t172 -55.5q108 0 180.5 64.5t97.5 184.5l192 907h367l-209 -987q-47 -225 -221 -353t-429 -128zM1123 1556h-284l295 314h326z" glyph-name="Uacute" horiz-adv-x="1484" unicode="Ú"/><glyph d="M732 -25q-272 0 -430 132.5t-158 346.5q-1 56 13 125l183 864h367l-182 -858q-10 -47 -10 -91q1 -96 67 -151.5t172 -55.5q108 0 180.5 64.5t97.5 184.5l192 907h367l-209 -987q-47 -225 -221 -353t-429 -128zM1178 1869l192 -327h-247l-103 192h-7l-185 -192h-253 l332 327h271z" glyph-name="Ucircumflex" horiz-adv-x="1484" unicode="Û"/><glyph d="M732 -25q-272 0 -430 132.5t-158 346.5q-1 56 13 125l183 864h367l-182 -858q-10 -47 -10 -91q1 -96 67 -151.5t172 -55.5q108 0 180.5 64.5t97.5 184.5l192 907h367l-209 -987q-47 -225 -221 -353t-429 -128zM806 1573q-60 0 -100 38.5t-40 94.5t40 95t100 39 q59 0 99 -39t40 -95t-40 -94.5t-99 -38.5zM1213 1573q-60 0 -100 38.5t-40 94.5t40 95t100 39t100 -39t40 -95t-40 -94.5t-100 -38.5z" glyph-name="Udieresis" horiz-adv-x="1484" unicode="Ü"/><glyph d="M796 0h-367l105 498l-296 945h380l164 -602h8l409 602h400l-699 -951zM1083 1556h-284l295 314h326z" glyph-name="Yacute" horiz-adv-x="1389" unicode="Ý"/><glyph d="M52 0l307 1443h368l-47 -219h238q197 0 325 -117t128 -296q0 -151 -75 -275t-212 -197t-308 -73h-301l-57 -266h-366zM617 941l-84 -395h206q122 0 194.5 62t72.5 165q0 81 -51.5 124.5t-149.5 43.5h-188z" glyph-name="Thorn" horiz-adv-x="1365" unicode="Þ"/><glyph d="M387 0h-354l238 1100q37 167 185 266t362 99q232 0 378 -108.5t146 -280.5q0 -127 -81 -222t-205 -118l-4 -19q130 -29 200 -106t70 -194q0 -196 -139.5 -311.5t-369.5 -115.5q-160 0 -275 42l59 266q68 -34 159 -34q95 0 153.5 48t58.5 127q0 71 -59 108.5t-165 37.5 h-77l58 275h73q81 0 136.5 46t55.5 118q0 71 -50 115t-130 44q-83 0 -138.5 -52.5t-76.5 -151.5z" glyph-name="germandbls" horiz-adv-x="1370" unicode="ß"/><glyph d="M510 223q77 0 137 44.5t74 111.5l18 81l-198 -6q-79 -3 -126 -36.5t-47 -88.5q0 -48 39.5 -77t102.5 -29zM358 -16q-137 0 -229.5 84t-92.5 212q0 167 130 264.5t357 104.5l258 8l13 64q4 23 4 36q0 47 -41 75.5t-110 28.5q-67 0 -112 -28t-60 -78h-316 q31 165 169.5 262.5t342.5 97.5q207 0 335 -91t128 -237q0 -43 -8 -89l-149 -698h-333l28 129h-7q-44 -66 -125.5 -105.5t-181.5 -39.5zM830 1259h-273l-193 316h307z" glyph-name="agrave" horiz-adv-x="1143" unicode="à"/><glyph d="M510 223q77 0 137 44.5t74 111.5l18 81l-198 -6q-79 -3 -126 -36.5t-47 -88.5q0 -48 39.5 -77t102.5 -29zM358 -16q-137 0 -229.5 84t-92.5 212q0 167 130 264.5t357 104.5l258 8l13 64q4 23 4 36q0 47 -41 75.5t-110 28.5q-67 0 -112 -28t-60 -78h-316 q31 165 169.5 262.5t342.5 97.5q207 0 335 -91t128 -237q0 -43 -8 -89l-149 -698h-333l28 129h-7q-44 -66 -125.5 -105.5t-181.5 -39.5zM899 1259h-277l293 316h312z" glyph-name="aacute" horiz-adv-x="1143" unicode="á"/><glyph d="M510 223q77 0 137 44.5t74 111.5l18 81l-198 -6q-79 -3 -126 -36.5t-47 -88.5q0 -48 39.5 -77t102.5 -29zM358 -16q-137 0 -229.5 84t-92.5 212q0 167 130 264.5t357 104.5l258 8l13 64q4 23 4 36q0 47 -41 75.5t-110 28.5q-67 0 -112 -28t-60 -78h-316 q31 165 169.5 262.5t342.5 97.5q207 0 335 -91t128 -237q0 -43 -8 -89l-149 -698h-333l28 129h-7q-44 -66 -125.5 -105.5t-181.5 -39.5zM924 1572l189 -327h-245l-97 183h-7l-175 -183h-266l329 327h272z" glyph-name="acircumflex" horiz-adv-x="1143" unicode="â"/><glyph d="M510 223q77 0 137 44.5t74 111.5l18 81l-198 -6q-79 -3 -126 -36.5t-47 -88.5q0 -48 39.5 -77t102.5 -29zM358 -16q-137 0 -229.5 84t-92.5 212q0 167 130 264.5t357 104.5l258 8l13 64q4 23 4 36q0 47 -41 75.5t-110 28.5q-67 0 -112 -28t-60 -78h-316 q31 165 169.5 262.5t342.5 97.5q207 0 335 -91t128 -237q0 -43 -8 -89l-149 -698h-333l28 129h-7q-44 -66 -125.5 -105.5t-181.5 -39.5zM875 1246q-48 0 -88.5 20t-63 43.5t-50 43.5t-53.5 20q-31 0 -55 -29.5t-37 -81.5h-184q26 130 101.5 207t176.5 77q49 0 90 -20 t63 -43.5t49.5 -43.5t53.5 -20q63 0 92 115h184q-28 -131 -104 -209.5t-175 -78.5z" glyph-name="atilde" horiz-adv-x="1143" unicode="ã"/><glyph d="M510 223q77 0 137 44.5t74 111.5l18 81l-198 -6q-79 -3 -126 -36.5t-47 -88.5q0 -48 39.5 -77t102.5 -29zM358 -16q-137 0 -229.5 84t-92.5 212q0 167 130 264.5t357 104.5l258 8l13 64q4 23 4 36q0 47 -41 75.5t-110 28.5q-67 0 -112 -28t-60 -78h-316 q31 165 169.5 262.5t342.5 97.5q207 0 335 -91t128 -237q0 -43 -8 -89l-149 -698h-333l28 129h-7q-44 -66 -125.5 -105.5t-181.5 -39.5zM544 1246q-60 0 -100 38.5t-40 94.5t40 95t100 39q59 0 99 -39t40 -95t-40 -94.5t-99 -38.5zM951 1246q-60 0 -100 38.5t-40 94.5t40 95 t100 39t100 -39t40 -95t-40 -94.5t-100 -38.5z" glyph-name="adieresis" horiz-adv-x="1143" unicode="ä"/><glyph d="M510 223q77 0 137 44.5t74 111.5l18 81l-198 -6q-79 -3 -126 -36.5t-47 -88.5q0 -48 39.5 -77t102.5 -29zM358 -16q-137 0 -229.5 84t-92.5 212q0 167 130 264.5t357 104.5l258 8l13 64q4 23 4 36q0 47 -41 75.5t-110 28.5q-67 0 -112 -28t-60 -78h-316 q31 165 169.5 262.5t342.5 97.5q207 0 335 -91t128 -237q0 -43 -8 -89l-149 -698h-333l28 129h-7q-44 -66 -125.5 -105.5t-181.5 -39.5zM758 1215q-95 0 -163 64.5t-68 158.5q0 95 68.5 161t164.5 66q95 0 162.5 -64.5t67.5 -158.5t-68 -160.5t-164 -66.5zM758 1351 q38 0 65 26t27 64t-26.5 64t-63.5 26q-38 0 -65 -26.5t-27 -65.5q0 -37 26.5 -62.5t63.5 -25.5z" glyph-name="aring" horiz-adv-x="1143" unicode="å"/><glyph d="M1242 -26q-117 0 -222.5 54t-146.5 135h-16q-63 -88 -175 -138.5t-240 -50.5q-176 0 -289 86.5t-113 219.5q0 170 127 266.5t360 102.5l258 8l13 64q3 15 3 36q0 46 -41.5 75t-108.5 29q-141 0 -173 -106h-316q31 162 166 261t328 99q102 0 197 -39t141 -101h16 q65 67 154 103.5t187 36.5q208 0 341.5 -131t133.5 -336q0 -90 -16 -179h-751v-18q0 -106 56.5 -168.5t152.5 -62.5q73 0 123 34t69 97h320q-44 -173 -189.5 -275t-348.5 -102zM1094 667h417q4 10 4 31q0 76 -49.5 123.5t-127.5 47.5q-89 0 -155 -55.5t-89 -146.5zM514 218 q78 0 138.5 44t75.5 111l18 82l-201 -7q-79 -3 -125.5 -36.5t-46.5 -88.5q0 -46 39 -75.5t102 -29.5z" glyph-name="ae" horiz-adv-x="1847" unicode="æ"/><glyph d="M1169 672h-329q-1 75 -45 120.5t-119 45.5q-108 0 -176 -105.5t-68 -274.5q0 -94 45 -150.5t120 -56.5q73 0 124.5 43.5t71.5 120.5h329q-25 -180 -153.5 -298.5t-316.5 -138.5l-50 -69q73 -7 111.5 -45t38.5 -103q0 -99 -87 -163t-222 -64q-100 0 -147 18l32 150 q50 -15 117 -15q115 0 115 52q0 25 -27 35t-94 10h-58l26 113l63 86q-179 31 -280.5 153.5t-101.5 307.5q0 305 164 488t440 183q209 0 343 -115t134 -285v-43z" glyph-name="ccedilla" horiz-adv-x="1160" unicode="ç"/><glyph d="M436 667h417q3 9 3 31q0 74 -49 122.5t-132 48.5q-86 0 -151 -56t-88 -146zM589 -25q-231 0 -365 132.5t-134 361.5q0 183 74.5 330t211.5 231.5t313 84.5q217 0 350 -128t133 -340q0 -103 -17 -178h-751q-3 -17 -3 -33q0 -94 55 -153t149 -59q74 0 127 34.5t73 92.5h321 q-43 -170 -187 -273t-350 -103zM844 1259h-273l-193 316h307z" glyph-name="egrave" horiz-adv-x="1193" unicode="è"/><glyph d="M436 667h417q3 9 3 31q0 74 -49 122.5t-132 48.5q-86 0 -151 -56t-88 -146zM589 -25q-231 0 -365 132.5t-134 361.5q0 183 74.5 330t211.5 231.5t313 84.5q217 0 350 -128t133 -340q0 -103 -17 -178h-751q-3 -17 -3 -33q0 -94 55 -153t149 -59q74 0 127 34.5t73 92.5h321 q-43 -170 -187 -273t-350 -103zM913 1259h-277l293 316h312z" glyph-name="eacute" horiz-adv-x="1193" unicode="é"/><glyph d="M436 667h417q3 9 3 31q0 74 -49 122.5t-132 48.5q-86 0 -151 -56t-88 -146zM589 -25q-231 0 -365 132.5t-134 361.5q0 183 74.5 330t211.5 231.5t313 84.5q217 0 350 -128t133 -340q0 -103 -17 -178h-751q-3 -17 -3 -33q0 -94 55 -153t149 -59q74 0 127 34.5t73 92.5h321 q-43 -170 -187 -273t-350 -103zM938 1572l189 -327h-245l-97 183h-7l-175 -183h-266l329 327h272z" glyph-name="ecircumflex" horiz-adv-x="1193" unicode="ê"/><glyph d="M436 667h417q3 9 3 31q0 74 -49 122.5t-132 48.5q-86 0 -151 -56t-88 -146zM589 -25q-231 0 -365 132.5t-134 361.5q0 183 74.5 330t211.5 231.5t313 84.5q217 0 350 -128t133 -340q0 -103 -17 -178h-751q-3 -17 -3 -33q0 -94 55 -153t149 -59q74 0 127 34.5t73 92.5h321 q-43 -170 -187 -273t-350 -103zM558 1246q-60 0 -100 38.5t-40 94.5t40 95t100 39q59 0 99 -39t40 -95t-40 -94.5t-99 -38.5zM965 1246q-60 0 -100 38.5t-40 94.5t40 95t100 39t100 -39t40 -95t-40 -94.5t-100 -38.5z" glyph-name="edieresis" horiz-adv-x="1193" unicode="ë"/><glyph d="M9 0l232 1089h345l-232 -1089h-345zM571 1259h-273l-193 316h307z" glyph-name="igrave" horiz-adv-x="529" unicode="ì"/><glyph d="M9 0l232 1089h345l-232 -1089h-345zM640 1259h-277l293 316h312z" glyph-name="iacute" horiz-adv-x="529" unicode="í"/><glyph d="M9 0l232 1089h345l-232 -1089h-345zM665 1572l189 -327h-245l-97 183h-7l-175 -183h-266l329 327h272z" glyph-name="icircumflex" horiz-adv-x="529" unicode="î"/><glyph d="M9 0l232 1089h345l-232 -1089h-345zM285 1246q-60 0 -100 38.5t-40 94.5t40 95t100 39q59 0 99 -39t40 -95t-40 -94.5t-99 -38.5zM692 1246q-60 0 -100 38.5t-40 94.5t40 95t100 39t100 -39t40 -95t-40 -94.5t-100 -38.5z" glyph-name="idieresis" horiz-adv-x="529" unicode="ï"/><glyph d="M628 251q102 0 181.5 104.5t79.5 240.5q0 94 -53 152t-139 58q-103 0 -180 -101t-77 -238q0 -97 51 -156.5t137 -59.5zM1290 1341l-187 -58q153 -242 153 -523q0 -160 -41 -295q-70 -228 -232.5 -359t-376.5 -131q-229 0 -375 138.5t-146 348.5q0 166 67.5 301.5 t185.5 211.5t262 76q100 0 182 -39t119 -100l15 -1q-8 135 -95 282l-288 -88l-30 158l215 67q-70 77 -174 156h391q47 -46 66 -68l256 81z" glyph-name="eth" horiz-adv-x="1277" unicode="ð"/><glyph d="M6 0l232 1089h332l-36 -166h7q57 91 151.5 141.5t206.5 50.5q148 0 240 -86t92 -225q0 -61 -15 -133l-141 -671h-342l130 617q9 46 9 78q0 66 -46 107t-119 41q-80 0 -141.5 -55t-80.5 -146l-137 -642h-342zM919 1246q-48 0 -88.5 20t-63 43.5t-50 43.5t-53.5 20 q-31 0 -55 -29.5t-37 -81.5h-184q26 130 101.5 207t176.5 77q49 0 90 -20t63 -43.5t49.5 -43.5t53.5 -20q63 0 92 115h184q-28 -131 -104 -209.5t-175 -78.5z" glyph-name="ntilde" horiz-adv-x="1241" unicode="ñ"/><glyph d="M613 242q113 0 189 108t76 267q0 104 -48 167t-127 63q-115 0 -190.5 -106.5t-75.5 -268.5q0 -104 48 -167t128 -63zM718 1115q229 0 370 -135.5t141 -355.5q0 -139 -47.5 -260t-130 -206.5t-200 -134.5t-252.5 -49q-229 0 -370 135t-141 356q0 139 47.5 260t130 206.5 t200 134.5t252.5 49zM871 1259h-273l-193 316h307z" glyph-name="ograve" horiz-adv-x="1251" unicode="ò"/><glyph d="M613 242q113 0 189 108t76 267q0 104 -48 167t-127 63q-115 0 -190.5 -106.5t-75.5 -268.5q0 -104 48 -167t128 -63zM718 1115q229 0 370 -135.5t141 -355.5q0 -139 -47.5 -260t-130 -206.5t-200 -134.5t-252.5 -49q-229 0 -370 135t-141 356q0 139 47.5 260t130 206.5 t200 134.5t252.5 49zM940 1259h-277l293 316h312z" glyph-name="oacute" horiz-adv-x="1251" unicode="ó"/><glyph d="M613 242q113 0 189 108t76 267q0 104 -48 167t-127 63q-115 0 -190.5 -106.5t-75.5 -268.5q0 -104 48 -167t128 -63zM718 1115q229 0 370 -135.5t141 -355.5q0 -139 -47.5 -260t-130 -206.5t-200 -134.5t-252.5 -49q-229 0 -370 135t-141 356q0 139 47.5 260t130 206.5 t200 134.5t252.5 49zM965 1572l189 -327h-245l-97 183h-7l-175 -183h-266l329 327h272z" glyph-name="ocircumflex" horiz-adv-x="1251" unicode="ô"/><glyph d="M613 242q113 0 189 108t76 267q0 104 -48 167t-127 63q-115 0 -190.5 -106.5t-75.5 -268.5q0 -104 48 -167t128 -63zM718 1115q229 0 370 -135.5t141 -355.5q0 -139 -47.5 -260t-130 -206.5t-200 -134.5t-252.5 -49q-229 0 -370 135t-141 356q0 139 47.5 260t130 206.5 t200 134.5t252.5 49zM916 1246q-48 0 -88.5 20t-63 43.5t-50 43.5t-53.5 20q-31 0 -55 -29.5t-37 -81.5h-184q26 130 101.5 207t176.5 77q49 0 90 -20t63 -43.5t49.5 -43.5t53.5 -20q63 0 92 115h184q-28 -131 -104 -209.5t-175 -78.5z" glyph-name="otilde" horiz-adv-x="1251" unicode="õ"/><glyph d="M613 242q113 0 189 108t76 267q0 104 -48 167t-127 63q-115 0 -190.5 -106.5t-75.5 -268.5q0 -104 48 -167t128 -63zM718 1115q229 0 370 -135.5t141 -355.5q0 -139 -47.5 -260t-130 -206.5t-200 -134.5t-252.5 -49q-229 0 -370 135t-141 356q0 139 47.5 260t130 206.5 t200 134.5t252.5 49zM585 1246q-60 0 -100 38.5t-40 94.5t40 95t100 39q59 0 99 -39t40 -95t-40 -94.5t-99 -38.5zM992 1246q-60 0 -100 38.5t-40 94.5t40 95t100 39t100 -39t40 -95t-40 -94.5t-100 -38.5z" glyph-name="odieresis" horiz-adv-x="1251" unicode="ö"/><glyph d="M1256 456h-1113l55 255h1112zM816 813q-85 0 -137 49t-52 128t52 127.5t137 48.5t137 -48t52 -128q0 -79 -52 -128t-137 -49zM644 2q-85 0 -137.5 48.5t-52.5 127.5t52.5 127.5t137.5 48.5t137 -48.5t52 -127.5t-52 -127.5t-137 -48.5z" glyph-name="divide" horiz-adv-x="1372" unicode="÷"/><glyph d="M889 653l-389 -389q46 -40 110 -40q120 0 200 114.5t80 284.5q0 20 -1 30zM425 433l391 391q-46 41 -110 41q-122 0 -202 -113t-80 -286q0 -22 1 -33zM1252 1016l-106 -106q83 -120 83 -286q0 -139 -47.5 -260t-130 -206.5t-200 -134.5t-252.5 -49q-177 0 -305 84 l-107 -107l-122 122l105 105q-82 121 -82 287q0 139 47.5 260t130 206.5t200 134.5t252.5 49q177 0 305 -84l107 107z" glyph-name="oslash" horiz-adv-x="1251" unicode="ø"/><glyph d="M1301 1089l-232 -1089h-333l37 172h-7q-48 -90 -141 -144t-207 -54q-155 0 -247.5 87t-92.5 230q0 73 15 141l139 657h344l-129 -601q-7 -42 -7 -73q0 -77 42 -117.5t120 -40.5q83 0 141.5 54.5t78.5 148.5l134 629h345zM922 1259h-273l-193 316h307z" glyph-name="ugrave" horiz-adv-x="1241" unicode="ù"/><glyph d="M1301 1089l-232 -1089h-333l37 172h-7q-48 -90 -141 -144t-207 -54q-155 0 -247.5 87t-92.5 230q0 73 15 141l139 657h344l-129 -601q-7 -42 -7 -73q0 -77 42 -117.5t120 -40.5q83 0 141.5 54.5t78.5 148.5l134 629h345zM991 1259h-277l293 316h312z" glyph-name="uacute" horiz-adv-x="1241" unicode="ú"/><glyph d="M1301 1089l-232 -1089h-333l37 172h-7q-48 -90 -141 -144t-207 -54q-155 0 -247.5 87t-92.5 230q0 73 15 141l139 657h344l-129 -601q-7 -42 -7 -73q0 -77 42 -117.5t120 -40.5q83 0 141.5 54.5t78.5 148.5l134 629h345zM1016 1572l189 -327h-245l-97 183h-7l-175 -183 h-266l329 327h272z" glyph-name="ucircumflex" horiz-adv-x="1241" unicode="û"/><glyph d="M1301 1089l-232 -1089h-333l37 172h-7q-48 -90 -141 -144t-207 -54q-155 0 -247.5 87t-92.5 230q0 73 15 141l139 657h344l-129 -601q-7 -42 -7 -73q0 -77 42 -117.5t120 -40.5q83 0 141.5 54.5t78.5 148.5l134 629h345zM636 1246q-60 0 -100 38.5t-40 94.5t40 95t100 39 q59 0 99 -39t40 -95t-40 -94.5t-99 -38.5zM1043 1246q-60 0 -100 38.5t-40 94.5t40 95t100 39t100 -39t40 -95t-40 -94.5t-100 -38.5z" glyph-name="udieresis" horiz-adv-x="1241" unicode="ü"/><glyph d="M81 -399q-132 0 -144 4l55 267q9 -3 104 -3q159 0 180 114q0 3 4 17.5t3 16.5l-125 1072h352l29 -818h7l377 818h367l-587 -1102q-111 -209 -256 -297.5t-366 -88.5zM942 1260h-277l293 316h312z" glyph-name="yacute" horiz-adv-x="1152" unicode="ý"/><glyph d="M640 258q110 0 187.5 107t77.5 261q0 98 -48 156t-130 58q-111 0 -189 -111t-78 -261q0 -94 49.5 -152t130.5 -58zM395 200l-113 -530h-344l378 1775h343l-109 -515h15q53 83 138 129t184 46q170 0 270 -115t100 -310q0 -198 -70 -357t-193.5 -249t-276.5 -90 q-114 0 -196 58.5t-110 157.5h-16z" glyph-name="thorn" horiz-adv-x="1274" unicode="þ"/><glyph d="M81 -399q-132 0 -144 4l55 267q9 -3 104 -3q159 0 180 114q0 3 4 17.5t3 16.5l-125 1072h352l29 -818h7l377 818h367l-587 -1102q-111 -209 -256 -297.5t-366 -88.5zM587 1247q-60 0 -100 38.5t-40 94.5t40 95t100 39q59 0 99 -39t40 -95t-40 -94.5t-99 -38.5zM994 1247 q-60 0 -100 38.5t-40 94.5t40 95t100 39t100 -39t40 -95t-40 -94.5t-100 -38.5z" glyph-name="ydieresis" horiz-adv-x="1152" unicode="ÿ"/><glyph d="M890 1121l-276 -540h324l-40 540h-8zM977 0l-24 317h-471l-163 -317h-388l804 1443h449l166 -1443h-373zM1391 1778l-35 -165h-721l35 165h721z" glyph-name="Amacron" horiz-adv-x="1446" unicode="Ā"/><glyph d="M510 223q77 0 137 44.5t74 111.5l18 81l-198 -6q-79 -3 -126 -36.5t-47 -88.5q0 -48 39.5 -77t102.5 -29zM358 -16q-137 0 -229.5 84t-92.5 212q0 167 130 264.5t357 104.5l258 8l13 64q4 23 4 36q0 47 -41 75.5t-110 28.5q-67 0 -112 -28t-60 -78h-316 q31 165 169.5 262.5t342.5 97.5q207 0 335 -91t128 -237q0 -43 -8 -89l-149 -698h-333l28 129h-7q-44 -66 -125.5 -105.5t-181.5 -39.5zM1102 1442l-35 -165h-673l35 165h673z" glyph-name="amacron" horiz-adv-x="1143" unicode="ā"/><glyph d="M890 1121l-276 -540h324l-40 540h-8zM977 0l-24 317h-471l-163 -317h-388l804 1443h449l166 -1443h-373zM671 1865h206q-4 -16 -4 -36q0 -58 35.5 -91t102.5 -33q76 0 130 43.5t71 116.5h214q-35 -144 -153 -236t-292 -92q-150 0 -233.5 74.5t-83.5 188.5q0 28 7 65z" glyph-name="Abreve" horiz-adv-x="1446" unicode="Ă"/><glyph d="M510 223q77 0 137 44.5t74 111.5l18 81l-198 -6q-79 -3 -126 -36.5t-47 -88.5q0 -48 39.5 -77t102.5 -29zM358 -16q-137 0 -229.5 84t-92.5 212q0 167 130 264.5t357 104.5l258 8l13 64q4 23 4 36q0 47 -41 75.5t-110 28.5q-67 0 -112 -28t-60 -78h-316 q31 165 169.5 262.5t342.5 97.5q207 0 335 -91t128 -237q0 -43 -8 -89l-149 -698h-333l28 129h-7q-44 -66 -125.5 -105.5t-181.5 -39.5zM413 1571h207q-4 -24 -4 -36q0 -59 36.5 -92t101.5 -33q74 0 128.5 43.5t72.5 117.5h213q-35 -152 -153 -240.5t-292 -88.5 q-138 0 -227 75.5t-89 193.5q0 27 6 60z" glyph-name="abreve" horiz-adv-x="1143" unicode="ă"/><glyph d="M1178 -278l-37 -175q-58 -25 -161 -25q-107 0 -175 53t-68 141q0 78 68 155.5t172 125.5l-25 320h-471l-162 -317h-388l803 1443h449l164 -1424l-25 -8q-157 -45 -239.5 -103.5t-82.5 -121.5q0 -35 27 -54.5t78 -19.5q47 0 73 10zM889 1121l-276 -540h324l-40 540h-8z" glyph-name="Aogonek" horiz-adv-x="1446" unicode="Ą"/><glyph d="M512 225q78 0 137.5 43.5t73.5 110.5l18 81l-199 -6q-78 -3 -124.5 -36.5t-46.5 -88.5q0 -46 39 -75t102 -29zM841 -444q-55 -25 -162 -25q-110 0 -175.5 53t-65.5 136q0 152 205 267l31 142h-7q-44 -66 -125 -104.5t-182 -38.5q-138 0 -230 84t-92 210q0 166 129.5 264 t358.5 105l257 8l13 64q4 21 4 36q0 47 -41.5 74.5t-111.5 27.5q-66 0 -110 -27t-60 -77h-315q31 165 169 261t341 96q208 0 336 -89.5t128 -235.5q0 -54 -8 -89l-147 -692l-32 -9q-97 -28 -172.5 -88.5t-75.5 -115.5q0 -33 29.5 -53t73.5 -20q45 0 73 10z" glyph-name="aogonek" horiz-adv-x="1143" unicode="ą"/><glyph d="M1186 889v37q-4 105 -78.5 173.5t-185.5 68.5q-179 0 -293 -157.5t-114 -403.5q0 -153 73.5 -241t200.5 -88q115 0 201.5 65t122.5 178h357q-43 -245 -236.5 -395.5t-467.5 -150.5q-286 0 -457 166.5t-171 444.5q0 262 101 462.5t287 310t430 109.5q255 0 421 -146.5 t169 -376.5q1 -27 -3 -56h-357zM1120 1556h-284l295 314h326z" glyph-name="Cacute" horiz-adv-x="1507" unicode="Ć"/><glyph d="M692 1115q209 0 343 -115t134 -285v-43h-329q-1 75 -45 120.5t-119 45.5q-108 0 -176 -105.5t-68 -274.5q0 -94 45 -150.5t120 -56.5q73 0 124.5 43.5t71.5 120.5h329q-28 -196 -177 -318.5t-362 -122.5q-228 0 -361.5 128t-133.5 342q0 305 164 488t440 183zM928 1260 h-277l293 316h312z" glyph-name="cacute" horiz-adv-x="1160" unicode="ć"/><glyph d="M1186 889v37q-4 105 -78.5 173.5t-185.5 68.5q-179 0 -293 -157.5t-114 -403.5q0 -153 73.5 -241t200.5 -88q115 0 201.5 65t122.5 178h357q-43 -245 -236.5 -395.5t-467.5 -150.5q-286 0 -457 166.5t-171 444.5q0 262 101 462.5t287 310t430 109.5q255 0 421 -146.5 t169 -376.5q1 -27 -3 -56h-357zM1175 1869l192 -327h-247l-103 192h-7l-185 -192h-253l332 327h271z" glyph-name="Ccircumflex" horiz-adv-x="1507" unicode="Ĉ"/><glyph d="M692 1115q209 0 343 -115t134 -285v-43h-329q-1 75 -45 120.5t-119 45.5q-108 0 -176 -105.5t-68 -274.5q0 -94 45 -150.5t120 -56.5q73 0 124.5 43.5t71.5 120.5h329q-28 -196 -177 -318.5t-362 -122.5q-228 0 -361.5 128t-133.5 342q0 305 164 488t440 183zM953 1573 l189 -327h-245l-97 183h-7l-175 -183h-266l329 327h272z" glyph-name="ccircumflex" horiz-adv-x="1160" unicode="ĉ"/><glyph d="M1186 889v37q-4 105 -78.5 173.5t-185.5 68.5q-179 0 -293 -157.5t-114 -403.5q0 -153 73.5 -241t200.5 -88q115 0 201.5 65t122.5 178h357q-43 -245 -236.5 -395.5t-467.5 -150.5q-286 0 -457 166.5t-171 444.5q0 262 101 462.5t287 310t430 109.5q255 0 421 -146.5 t169 -376.5q1 -27 -3 -56h-357zM1019 1605q-69 0 -116.5 47.5t-47.5 113.5q0 67 47.5 114.5t116.5 47.5t117 -47.5t48 -114.5q0 -66 -48 -113.5t-117 -47.5z" glyph-name="Cdotaccent" horiz-adv-x="1507" unicode="Ċ"/><glyph d="M692 1115q209 0 343 -115t134 -285v-43h-329q-1 75 -45 120.5t-119 45.5q-108 0 -176 -105.5t-68 -274.5q0 -94 45 -150.5t120 -56.5q73 0 124.5 43.5t71.5 120.5h329q-28 -196 -177 -318.5t-362 -122.5q-228 0 -361.5 128t-133.5 342q0 305 164 488t440 183zM769 1252 q-69 0 -116.5 47.5t-47.5 113.5q0 67 47.5 114.5t116.5 47.5t117 -47.5t48 -114.5q0 -66 -48 -113.5t-117 -47.5z" glyph-name="cdotaccent" horiz-adv-x="1160" unicode="ċ"/><glyph d="M1186 889v37q-4 105 -78.5 173.5t-185.5 68.5q-179 0 -293 -157.5t-114 -403.5q0 -153 73.5 -241t200.5 -88q115 0 201.5 65t122.5 178h357q-43 -245 -236.5 -395.5t-467.5 -150.5q-286 0 -457 166.5t-171 444.5q0 262 101 462.5t287 310t430 109.5q255 0 421 -146.5 t169 -376.5q1 -27 -3 -56h-357zM838 1542l-192 327h247l103 -192h8l184 192h253l-332 -327h-271z" glyph-name="Ccaron" horiz-adv-x="1507" unicode="Č"/><glyph d="M692 1115q209 0 343 -115t134 -285v-43h-329q-1 75 -45 120.5t-119 45.5q-108 0 -176 -105.5t-68 -274.5q0 -94 45 -150.5t120 -56.5q73 0 124.5 43.5t71.5 120.5h329q-28 -196 -177 -318.5t-362 -122.5q-228 0 -361.5 128t-133.5 342q0 305 164 488t440 183zM885 1246 h-271l-190 327h244l97 -184h7l175 184h267z" glyph-name="ccaron" horiz-adv-x="1160" unicode="č"/><glyph d="M340 1443h557q263 0 422.5 -149.5t159.5 -410.5q0 -192 -55.5 -355.5t-154.5 -280t-242 -182t-312 -65.5h-682zM647 1149l-181 -855h199q194 0 315.5 148t121.5 395q0 146 -75.5 229t-213.5 83h-166zM707 1542l-192 327h247l103 -192h8l184 192h253l-332 -327h-271z" glyph-name="Dcaron" horiz-adv-x="1473" unicode="Ď"/><glyph d="M1522 1443h286l-158 -511h-236zM454 -16q-172 0 -272 114.5t-100 310.5q0 147 41.5 276.5t113.5 221.5t173.5 145t216.5 53q120 0 204.5 -54.5t111.5 -147.5h8l115 540h344l-307 -1443h-337l34 158h-7q-119 -174 -339 -174zM614 250q110 0 188.5 109.5t78.5 261.5 q0 94 -49.5 152t-130.5 58q-111 0 -188 -106t-77 -262q0 -97 48.5 -155t129.5 -58z" glyph-name="dcaron" horiz-adv-x="1584" unicode="ď"/><glyph d="M466 294h199q194 0 315.5 148t121.5 395q0 146 -75.5 229t-213.5 83h-166l-58 -274h222l-63 -295h-221zM340 1443h557q263 0 422.5 -149.5t159.5 -410.5q0 -192 -55.5 -355.5t-154.5 -280t-242 -182t-312 -65.5h-682l123 580h-116l63 295h116z" glyph-name="Dcroat" horiz-adv-x="1473" unicode="Đ"/><glyph d="M614 250q110 0 188.5 109.5t78.5 261.5q0 94 -49.5 152t-130.5 58q-111 0 -188 -106t-77 -262q0 -97 48.5 -155t129.5 -58zM1487 1354l-37 -178h-97l-250 -1176h-337l34 158h-7q-119 -174 -339 -174q-172 0 -272 114.5t-100 310.5q0 147 41.5 276.5t113.5 221.5 t173.5 145t216.5 53q120 0 204.5 -54.5t111.5 -147.5h8l58 273h-226l38 178h226l19 89h344l-19 -89h96z" glyph-name="dcroat" horiz-adv-x="1282" unicode="đ"/><glyph d="M1084 295l-62 -295h-989l307 1443h988l-63 -295h-621l-61 -288h584l-58 -270h-584l-63 -295h622zM1246 1778l-35 -165h-721l35 165h721z" glyph-name="Emacron" horiz-adv-x="1191" unicode="Ē"/><glyph d="M436 667h417q3 9 3 31q0 74 -49 122.5t-132 48.5q-86 0 -151 -56t-88 -146zM589 -25q-231 0 -365 132.5t-134 361.5q0 183 74.5 330t211.5 231.5t313 84.5q217 0 350 -128t133 -340q0 -103 -17 -178h-751q-3 -17 -3 -33q0 -94 55 -153t149 -59q74 0 127 34.5t73 92.5h321 q-43 -170 -187 -273t-350 -103zM1116 1442l-35 -165h-673l35 165h673z" glyph-name="emacron" horiz-adv-x="1193" unicode="ē"/><glyph d="M1084 295l-62 -295h-989l307 1443h988l-63 -295h-621l-61 -288h584l-58 -270h-584l-63 -295h622zM526 1865h206q-4 -16 -4 -36q0 -58 35.5 -91t102.5 -33q76 0 130 43.5t71 116.5h214q-35 -144 -153 -236t-292 -92q-150 0 -233.5 74.5t-83.5 188.5q0 28 7 65z" glyph-name="Ebreve" horiz-adv-x="1191" unicode="Ĕ"/><glyph d="M436 667h417q3 9 3 31q0 74 -49 122.5t-132 48.5q-86 0 -151 -56t-88 -146zM589 -25q-231 0 -365 132.5t-134 361.5q0 183 74.5 330t211.5 231.5t313 84.5q217 0 350 -128t133 -340q0 -103 -17 -178h-751q-3 -17 -3 -33q0 -94 55 -153t149 -59q74 0 127 34.5t73 92.5h321 q-43 -170 -187 -273t-350 -103zM427 1571h207q-4 -24 -4 -36q0 -59 36.5 -92t101.5 -33q74 0 128.5 43.5t72.5 117.5h213q-35 -152 -153 -240.5t-292 -88.5q-138 0 -227 75.5t-89 193.5q0 27 6 60z" glyph-name="ebreve" horiz-adv-x="1193" unicode="ĕ"/><glyph d="M1084 295l-62 -295h-989l307 1443h988l-63 -295h-621l-61 -288h584l-58 -270h-584l-63 -295h622zM882 1605q-69 0 -116.5 47.5t-47.5 113.5q0 67 47.5 114.5t116.5 47.5t117 -47.5t48 -114.5q0 -66 -48 -113.5t-117 -47.5z" glyph-name="Edotaccent" horiz-adv-x="1191" unicode="Ė"/><glyph d="M436 667h417q3 9 3 31q0 74 -49 122.5t-132 48.5q-86 0 -151 -56t-88 -146zM589 -25q-231 0 -365 132.5t-134 361.5q0 183 74.5 330t211.5 231.5t313 84.5q217 0 350 -128t133 -340q0 -103 -17 -178h-751q-3 -17 -3 -33q0 -94 55 -153t149 -59q74 0 127 34.5t73 92.5h321 q-43 -170 -187 -273t-350 -103zM754 1251q-69 0 -116.5 47.5t-47.5 113.5q0 67 47.5 114.5t116.5 47.5t117 -47.5t48 -114.5q0 -66 -48 -113.5t-117 -47.5z" glyph-name="edotaccent" horiz-adv-x="1193" unicode="ė"/><glyph d="M33 0l307 1443h988l-63 -295h-621l-61 -288h584l-58 -270h-584l-63 -295h622l-61 -292l-44 -12q-107 -36 -172 -92.5t-65 -112.5q0 -35 27 -54.5t77 -19.5q51 0 74 10l-37 -175q-58 -25 -161 -25q-109 0 -176 53.5t-67 140.5q0 78 63.5 156t164.5 124l1 4h-675z" glyph-name="Eogonek" horiz-adv-x="1191" unicode="Ę"/><glyph d="M647 -469q-110 0 -175.5 53t-65.5 136q0 79 56 145t139 104v6h-12q-231 0 -365 132.5t-134 361.5q0 183 74.5 330t211.5 231.5t313 84.5q217 0 350 -128t133 -340q0 -103 -17 -178h-751q-3 -17 -3 -33q0 -94 55 -153t149 -59q74 0 127 34.5t73 92.5h321 q-20 -78 -70.5 -157.5t-127.5 -128.5q-135 -86 -197 -145.5t-62 -117.5q0 -34 30 -58t73 -24q47 0 73 10l-37 -174q-50 -25 -161 -25zM436 667h417q3 9 3 31q0 74 -49 122.5t-132 48.5q-86 0 -151 -56t-88 -146z" glyph-name="eogonek" horiz-adv-x="1193" unicode="ę"/><glyph d="M1084 295l-62 -295h-989l307 1443h988l-63 -295h-621l-61 -288h584l-58 -270h-584l-63 -295h622zM700 1542l-192 327h247l103 -192h8l184 192h253l-332 -327h-271z" glyph-name="Ecaron" horiz-adv-x="1191" unicode="Ě"/><glyph d="M436 667h417q3 9 3 31q0 74 -49 122.5t-132 48.5q-86 0 -151 -56t-88 -146zM589 -25q-231 0 -365 132.5t-134 361.5q0 183 74.5 330t211.5 231.5t313 84.5q217 0 350 -128t133 -340q0 -103 -17 -178h-751q-3 -17 -3 -33q0 -94 55 -153t149 -59q74 0 127 34.5t73 92.5h321 q-43 -170 -187 -273t-350 -103zM870 1245h-271l-190 327h244l97 -184h7l175 184h267z" glyph-name="ecaron" horiz-adv-x="1193" unicode="ě"/><glyph d="M1525 777l-31 -170q-55 -305 -242.5 -468.5t-480.5 -163.5q-287 0 -460 171t-173 452q0 179 57 338t159 277t253 186.5t330 68.5q176 0 316.5 -67t216.5 -177t77 -240q0 -14 -2 -28h-353q-7 96 -79 156.5t-185 60.5q-96 0 -175.5 -45t-131.5 -122t-81 -178.5t-29 -214.5 q0 -159 77.5 -251t220.5 -92q115 0 200.5 67.5t110.5 174.5l3 13h-273l54 252h621zM1154 1869l192 -327h-247l-103 192h-7l-185 -192h-253l332 327h271z" glyph-name="Gcircumflex" horiz-adv-x="1519" unicode="Ĝ"/><glyph d="M502 -411q-239 0 -378 93t-140 256h335q10 -56 63 -87.5t137 -31.5q193 0 234 180l39 176h-16q-48 -74 -132.5 -115t-187.5 -41q-167 0 -269.5 112.5t-102.5 296.5q0 181 70 336t195 248t276 93q115 0 199 -57t112 -152h15l42 193h336l-235 -1106q-40 -188 -196 -291 t-396 -103zM611 255q112 0 189.5 108.5t77.5 257.5q0 94 -50 152t-131 58q-112 0 -188 -106t-76 -260q0 -95 48 -152.5t130 -57.5zM1020 1574l189 -327h-245l-97 183h-7l-175 -183h-266l329 327h272z" glyph-name="gcircumflex" horiz-adv-x="1269" unicode="ĝ"/><glyph d="M1525 777l-31 -170q-55 -305 -242.5 -468.5t-480.5 -163.5q-287 0 -460 171t-173 452q0 179 57 338t159 277t253 186.5t330 68.5q176 0 316.5 -67t216.5 -177t77 -240q0 -14 -2 -28h-353q-7 96 -79 156.5t-185 60.5q-96 0 -175.5 -45t-131.5 -122t-81 -178.5t-29 -214.5 q0 -159 77.5 -251t220.5 -92q115 0 200.5 67.5t110.5 174.5l3 13h-273l54 252h621zM643 1865h206q-4 -16 -4 -36q0 -58 35.5 -91t102.5 -33q76 0 130 43.5t71 116.5h214q-35 -144 -153 -236t-292 -92q-150 0 -233.5 74.5t-83.5 188.5q0 28 7 65z" glyph-name="Gbreve" horiz-adv-x="1519" unicode="Ğ"/><glyph d="M502 -411q-239 0 -378 93t-140 256h335q10 -56 63 -87.5t137 -31.5q193 0 234 180l39 176h-16q-48 -74 -132.5 -115t-187.5 -41q-167 0 -269.5 112.5t-102.5 296.5q0 181 70 336t195 248t276 93q115 0 199 -57t112 -152h15l42 193h336l-235 -1106q-40 -188 -196 -291 t-396 -103zM611 255q112 0 189.5 108.5t77.5 257.5q0 94 -50 152t-131 58q-112 0 -188 -106t-76 -260q0 -95 48 -152.5t130 -57.5zM509 1573h207q-4 -24 -4 -36q0 -59 36.5 -92t101.5 -33q74 0 128.5 43.5t72.5 117.5h213q-35 -152 -153 -240.5t-292 -88.5q-138 0 -227 75.5 t-89 193.5q0 27 6 60z" glyph-name="gbreve" horiz-adv-x="1269" unicode="ğ"/><glyph d="M1525 777l-31 -170q-55 -305 -242.5 -468.5t-480.5 -163.5q-287 0 -460 171t-173 452q0 179 57 338t159 277t253 186.5t330 68.5q176 0 316.5 -67t216.5 -177t77 -240q0 -14 -2 -28h-353q-7 96 -79 156.5t-185 60.5q-96 0 -175.5 -45t-131.5 -122t-81 -178.5t-29 -214.5 q0 -159 77.5 -251t220.5 -92q115 0 200.5 67.5t110.5 174.5l3 13h-273l54 252h621zM998 1605q-69 0 -116.5 47.5t-47.5 113.5q0 67 47.5 114.5t116.5 47.5t117 -47.5t48 -114.5q0 -66 -48 -113.5t-117 -47.5z" glyph-name="Gdotaccent" horiz-adv-x="1519" unicode="Ġ"/><glyph d="M502 -411q-239 0 -378 93t-140 256h335q10 -56 63 -87.5t137 -31.5q193 0 234 180l39 176h-16q-48 -74 -132.5 -115t-187.5 -41q-167 0 -269.5 112.5t-102.5 296.5q0 181 70 336t195 248t276 93q115 0 199 -57t112 -152h15l42 193h336l-235 -1106q-40 -188 -196 -291 t-396 -103zM611 255q112 0 189.5 108.5t77.5 257.5q0 94 -50 152t-131 58q-112 0 -188 -106t-76 -260q0 -95 48 -152.5t130 -57.5zM836 1253q-69 0 -116.5 47.5t-47.5 113.5q0 67 47.5 114.5t116.5 47.5t117 -47.5t48 -114.5q0 -66 -48 -113.5t-117 -47.5z" glyph-name="gdotaccent" horiz-adv-x="1269" unicode="ġ"/><glyph d="M1525 777l-31 -170q-55 -305 -242.5 -468.5t-480.5 -163.5q-287 0 -460 171t-173 452q0 179 57 338t159 277t253 186.5t330 68.5q176 0 316.5 -67t216.5 -177t77 -240q0 -14 -2 -28h-353q-7 96 -79 156.5t-185 60.5q-96 0 -175.5 -45t-131.5 -122t-81 -178.5t-29 -214.5 q0 -159 77.5 -251t220.5 -92q115 0 200.5 67.5t110.5 174.5l3 13h-273l54 252h621zM635 -475h-267l211 330h313z" glyph-name="Gcommaaccent" horiz-adv-x="1519" unicode="Ģ"/><glyph d="M502 -411q-239 0 -378 93t-140 256h335q10 -56 63 -87.5t137 -31.5q193 0 234 180l39 176h-16q-48 -74 -132.5 -115t-187.5 -41q-167 0 -269.5 112.5t-102.5 296.5q0 181 70 336t195 248t276 93q115 0 199 -57t112 -152h15l42 193h336l-235 -1106q-40 -188 -196 -291 t-396 -103zM611 255q112 0 189.5 108.5t77.5 257.5q0 94 -50 152t-131 58q-112 0 -188 -106t-76 -260q0 -95 48 -152.5t130 -57.5zM1097 1565h267l-211 -330h-313z" glyph-name="gcommaaccent" horiz-adv-x="1269" unicode="ģ"/><glyph d="M1341 0h-375l125 584h-559l-124 -584h-375l307 1443h375l-122 -568h559l121 568h375zM1216 1869l192 -327h-247l-103 192h-7l-185 -192h-253l332 327h271z" glyph-name="Hcircumflex" horiz-adv-x="1540" unicode="Ĥ"/><glyph d="M13 0l307 1443h343l-112 -520h7q59 88 149.5 137.5t204.5 49.5q150 0 242.5 -86t92.5 -221q0 -61 -15 -132l-142 -671h-342l131 617q9 44 9 76q0 66 -46.5 108t-121.5 42q-83 0 -146 -56t-82 -145l-136 -642h-343zM715 1869l192 -327h-247l-103 192h-7l-185 -192h-253 l332 327h271z" glyph-name="hcircumflex" horiz-adv-x="1257" unicode="ĥ"/><glyph d="M1152 875l36 168h-559l-36 -168h559zM1722 1286l-52 -243h-107l-222 -1043h-375l125 584h-559l-124 -584h-375l222 1043h-109l52 243h109l33 157h375l-34 -157h559l33 157h375l-33 -157h107z" glyph-name="Hbar" horiz-adv-x="1540" unicode="Ħ"/><glyph d="M551 923h7q59 88 149.5 137.5t204.5 49.5q150 0 242.5 -86t92.5 -221q0 -61 -15 -132l-142 -671h-342l131 617q9 44 9 76q0 66 -46.5 108t-121.5 42q-83 0 -146 -56t-82 -145l-136 -642h-343l251 1179h-96l36 172h96l20 92h343l-20 -92h208l-37 -172h-208z" glyph-name="hbar" horiz-adv-x="1257" unicode="ħ"/><glyph d="M400 0h-367l307 1443h367zM715 1546q-48 0 -88.5 20t-63 43.5t-50 43.5t-53.5 20q-31 0 -55 -29.5t-37 -81.5h-184q26 130 101.5 207t176.5 77q49 0 90 -20t63 -43.5t49.5 -43.5t53.5 -20q63 0 92 115h184q-28 -131 -104 -209.5t-175 -78.5z" glyph-name="Itilde" horiz-adv-x="598" unicode="Ĩ"/><glyph d="M9 0l232 1089h345l-232 -1089h-345zM616 1246q-48 0 -88.5 20t-63 43.5t-50 43.5t-53.5 20q-31 0 -55 -29.5t-37 -81.5h-184q26 130 101.5 207t176.5 77q49 0 90 -20t63 -43.5t49.5 -43.5t53.5 -20q63 0 92 115h184q-28 -131 -104 -209.5t-175 -78.5z" glyph-name="itilde" horiz-adv-x="529" unicode="ĩ"/><glyph d="M400 0h-367l307 1443h367zM956 1778l-35 -165h-721l35 165h721z" glyph-name="Imacron" horiz-adv-x="598" unicode="Ī"/><glyph d="M9 0l232 1089h345l-232 -1089h-345zM756 1442l-29 -165h-572l29 165h572z" glyph-name="imacron" horiz-adv-x="529" unicode="ī"/><glyph d="M400 0h-367l307 1443h367zM236 1865h206q-4 -16 -4 -36q0 -58 35.5 -91t102.5 -33q76 0 130 43.5t71 116.5h214q-35 -144 -153 -236t-292 -92q-150 0 -233.5 74.5t-83.5 188.5q0 28 7 65z" glyph-name="Ibreve" horiz-adv-x="598" unicode="Ĭ"/><glyph d="M9 0l232 1089h345l-232 -1089h-345zM154 1571h207q-4 -24 -4 -36q0 -59 36.5 -92t101.5 -33q74 0 128.5 43.5t72.5 117.5h213q-35 -152 -153 -240.5t-292 -88.5q-138 0 -227 75.5t-89 193.5q0 27 6 60z" glyph-name="ibreve" horiz-adv-x="529" unicode="ĭ"/><glyph d="M147 -478q-108 0 -175.5 54t-67.5 141q0 138 177 276l-49 3l308 1447h367l-306 -1439l-36 -13q-88 -37 -142.5 -93.5t-54.5 -109.5q0 -36 27.5 -56t76.5 -20q51 0 74 10l-37 -175q-58 -25 -162 -25z" glyph-name="Iogonek" horiz-adv-x="598" unicode="Į"/><glyph d="M232 -444q-54 -25 -161 -25q-110 0 -175.5 53t-65.5 136q0 129 171 256l237 1113h345l-230 -1080l-36 -12q-83 -31 -153.5 -91.5t-70.5 -112.5q0 -33 29.5 -53t73.5 -20q45 0 73 10zM466 1180q-76 0 -128 49.5t-52 122.5q0 74 52 123.5t128 49.5t128 -49.5t52 -123.5 q0 -73 -52 -122.5t-128 -49.5z" glyph-name="iogonek" horiz-adv-x="524" unicode="į"/><glyph d="M400 0h-367l307 1443h367zM591 1605q-69 0 -116.5 47.5t-47.5 113.5q0 67 47.5 114.5t116.5 47.5t117 -47.5t48 -114.5q0 -66 -48 -113.5t-117 -47.5z" glyph-name="Idotaccent" horiz-adv-x="598" unicode="İ"/><glyph d="M9 0l232 1089h345l-232 -1089h-345z" glyph-name="dotlessi" horiz-adv-x="529" unicode="ı"/><glyph d="M400 0h-367l307 1443h367zM642 409q0 34 3 60h351v-16q0 -75 41.5 -119t115.5 -44q145 0 184 186l206 967h368l-216 -1013q-47 -221 -187 -338t-361 -117q-228 0 -366.5 119.5t-138.5 314.5z" glyph-name="IJ" horiz-adv-x="1803" unicode="Ĳ"/><glyph d="M8 0l232 1089h345l-232 -1089h-345zM468 1180q-76 0 -128 49.5t-52 122.5q0 74 52 123.5t128 49.5t128 -49.5t52 -123.5q0 -73 -52 -122.5t-128 -49.5zM998 1180q-76 0 -128 49.5t-52 122.5q0 74 52 123.5t128 49.5t128 -49.5t52 -123.5q0 -73 -52 -122.5t-128 -49.5z M1112 1089l-247 -1159q-33 -153 -148 -238t-285 -85q-84 0 -151 14l54 247q34 -6 66 -6q107 0 128 103l239 1124h344z" glyph-name="ij" horiz-adv-x="1054" unicode="ĳ"/><glyph d="M44 409q0 34 3 60h351v-16q0 -75 41.5 -119t115.5 -44q145 0 184 186l206 967h368l-216 -1013q-47 -221 -187 -338t-361 -117q-228 0 -366.5 119.5t-138.5 314.5zM1353 1869l192 -327h-247l-103 192h-7l-185 -192h-253l332 327h271z" glyph-name="Jcircumflex" horiz-adv-x="1205" unicode="Ĵ"/><glyph d="M584 1089l-247 -1159q-33 -153 -148 -238t-285 -85q-84 0 -151 14l54 247q34 -6 66 -6q107 0 128 103l239 1124h344zM664 1572l189 -327h-245l-97 183h-7l-175 -183h-266l329 327h272z" glyph-name="jcircumflex" horiz-adv-x="526" unicode="ĵ"/><glyph d="M400 0h-367l307 1443h367l-131 -616h7l611 616h423l-660 -669l354 -774h-404l-254 566l-169 -168zM480 -475h-267l211 330h313z" glyph-name="Kcommaaccent" horiz-adv-x="1410" unicode="Ķ"/><glyph d="M357 0h-344l308 1443h343l-160 -753h7l397 399h398l-497 -473l297 -616h-373l-200 429l-105 -97zM375 -475h-267l211 330h313z" glyph-name="kcommaaccent" horiz-adv-x="1176" unicode="ķ"/><glyph d="M1077 303l-65 -303h-979l307 1443h367l-242 -1140h612zM692 1556h-284l295 314h326z" glyph-name="Lacute" horiz-adv-x="1136" unicode="Ĺ"/><glyph d="M15 0l307 1443h344l-307 -1443h-344zM663 1556h-284l295 314h326z" glyph-name="lacute" horiz-adv-x="540" unicode="ĺ"/><glyph d="M1077 303l-65 -303h-979l307 1443h367l-242 -1140h612zM372 -475h-267l211 330h313z" glyph-name="Lcommaaccent" horiz-adv-x="1136" unicode="Ļ"/><glyph d="M15 0l307 1443h344l-307 -1443h-344zM24 -475h-267l211 330h313z" glyph-name="lcommaaccent" horiz-adv-x="540" unicode="ļ"/><glyph d="M953 1443h286l-159 -511h-236zM1077 303l-65 -303h-979l307 1443h367l-242 -1140h612z" glyph-name="Lcaron" horiz-adv-x="1136" unicode="Ľ"/><glyph d="M793 1443h286l-158 -511h-236zM15 0l307 1443h344l-307 -1443h-344z" glyph-name="lcaron" horiz-adv-x="856" unicode="ľ"/><glyph d="M465 303h612l-65 -303h-979l96 450l-129 -60l64 302l129 60l147 691h367l-106 -501l278 129l-65 -301l-277 -129z" glyph-name="Lslash" horiz-adv-x="1136" unicode="Ł"/><glyph d="M690 1003l-56 -262l-130 -61l-145 -680h-344l107 502l-122 -57l56 262l121 57l145 679h344l-107 -501z" glyph-name="lslash" horiz-adv-x="540" unicode="ł"/><glyph d="M385 0h-352l307 1443h288l426 -882h7l186 882h353l-307 -1443h-288l-426 882h-7zM1106 1556h-284l295 314h326z" glyph-name="Nacute" horiz-adv-x="1491" unicode="Ń"/><glyph d="M6 0l232 1089h332l-36 -166h7q57 91 151.5 141.5t206.5 50.5q148 0 240 -86t92 -225q0 -61 -15 -133l-141 -671h-342l130 617q9 46 9 78q0 66 -46 107t-119 41q-80 0 -141.5 -55t-80.5 -146l-137 -642h-342zM943 1259h-277l293 316h312z" glyph-name="nacute" horiz-adv-x="1241" unicode="ń"/><glyph d="M385 0h-352l307 1443h288l426 -882h7l186 882h353l-307 -1443h-288l-426 882h-7zM527 -475h-267l211 330h313z" glyph-name="Ncommaaccent" horiz-adv-x="1491" unicode="Ņ"/><glyph d="M6 0l232 1089h332l-36 -166h7q57 91 151.5 141.5t206.5 50.5q148 0 240 -86t92 -225q0 -61 -15 -133l-141 -671h-342l130 617q9 46 9 78q0 66 -46 107t-119 41q-80 0 -141.5 -55t-80.5 -146l-137 -642h-342zM378 -475h-267l211 330h313z" glyph-name="ncommaaccent" horiz-adv-x="1241" unicode="ņ"/><glyph d="M385 0h-352l307 1443h288l426 -882h7l186 882h353l-307 -1443h-288l-426 882h-7zM824 1542l-192 327h247l103 -192h8l184 192h253l-332 -327h-271z" glyph-name="Ncaron" horiz-adv-x="1491" unicode="Ň"/><glyph d="M6 0l232 1089h332l-36 -166h7q57 91 151.5 141.5t206.5 50.5q148 0 240 -86t92 -225q0 -61 -15 -133l-141 -671h-342l130 617q9 46 9 78q0 66 -46 107t-119 41q-80 0 -141.5 -55t-80.5 -146l-137 -642h-342zM900 1245h-271l-190 327h244l97 -184h7l175 184h267z" glyph-name="ncaron" horiz-adv-x="1241" unicode="ň"/><glyph d="M918 1170q-112 0 -206 -74.5t-148 -202.5t-54 -279q0 -155 77 -248t205 -93q112 0 206 74.5t148.5 202t54.5 279.5q0 156 -77 248.5t-206 92.5zM782 -25q-147 0 -269 46.5t-203.5 128.5t-126.5 196t-45 247q0 190 61 354t166.5 277.5t251 178.5t309.5 65 q150 0 272.5 -46.5t204.5 -129t126 -196t44 -246.5q0 -190 -62 -354t-168 -278t-251.5 -178.5t-309.5 -64.5zM1372 1778l-35 -165h-721l35 165h721z" glyph-name="Omacron" horiz-adv-x="1570" unicode="Ō"/><glyph d="M613 242q113 0 189 108t76 267q0 104 -48 167t-127 63q-115 0 -190.5 -106.5t-75.5 -268.5q0 -104 48 -167t128 -63zM718 1115q229 0 370 -135.5t141 -355.5q0 -139 -47.5 -260t-130 -206.5t-200 -134.5t-252.5 -49q-229 0 -370 135t-141 356q0 139 47.5 260t130 206.5 t200 134.5t252.5 49zM1143 1442l-35 -165h-673l35 165h673z" glyph-name="omacron" horiz-adv-x="1251" unicode="ō"/><glyph d="M918 1170q-112 0 -206 -74.5t-148 -202.5t-54 -279q0 -155 77 -248t205 -93q112 0 206 74.5t148.5 202t54.5 279.5q0 156 -77 248.5t-206 92.5zM782 -25q-147 0 -269 46.5t-203.5 128.5t-126.5 196t-45 247q0 190 61 354t166.5 277.5t251 178.5t309.5 65 q150 0 272.5 -46.5t204.5 -129t126 -196t44 -246.5q0 -190 -62 -354t-168 -278t-251.5 -178.5t-309.5 -64.5zM652 1865h206q-4 -16 -4 -36q0 -58 35.5 -91t102.5 -33q76 0 130 43.5t71 116.5h214q-35 -144 -153 -236t-292 -92q-150 0 -233.5 74.5t-83.5 188.5q0 28 7 65z" glyph-name="Obreve" horiz-adv-x="1570" unicode="Ŏ"/><glyph d="M613 242q113 0 189 108t76 267q0 104 -48 167t-127 63q-115 0 -190.5 -106.5t-75.5 -268.5q0 -104 48 -167t128 -63zM718 1115q229 0 370 -135.5t141 -355.5q0 -139 -47.5 -260t-130 -206.5t-200 -134.5t-252.5 -49q-229 0 -370 135t-141 356q0 139 47.5 260t130 206.5 t200 134.5t252.5 49zM454 1571h207q-4 -24 -4 -36q0 -59 36.5 -92t101.5 -33q74 0 128.5 43.5t72.5 117.5h213q-35 -152 -153 -240.5t-292 -88.5q-138 0 -227 75.5t-89 193.5q0 27 6 60z" glyph-name="obreve" horiz-adv-x="1251" unicode="ŏ"/><glyph d="M918 1170q-112 0 -206 -74.5t-148 -202.5t-54 -279q0 -155 77 -248t205 -93q112 0 206 74.5t148.5 202t54.5 279.5q0 156 -77 248.5t-206 92.5zM782 -25q-147 0 -269 46.5t-203.5 128.5t-126.5 196t-45 247q0 190 61 354t166.5 277.5t251 178.5t309.5 65 q150 0 272.5 -46.5t204.5 -129t126 -196t44 -246.5q0 -190 -62 -354t-168 -278t-251.5 -178.5t-309.5 -64.5zM1345 1556h-283l296 314h324zM872 1556h-282l295 314h324z" glyph-name="Ohungarumlaut" horiz-adv-x="1570" unicode="Ő"/><glyph d="M613 242q113 0 189 108t76 267q0 104 -48 167t-127 63q-115 0 -190.5 -106.5t-75.5 -268.5q0 -104 48 -167t128 -63zM718 1115q229 0 370 -135.5t141 -355.5q0 -139 -47.5 -260t-130 -206.5t-200 -134.5t-252.5 -49q-229 0 -370 135t-141 356q0 139 47.5 260t130 206.5 t200 134.5t252.5 49zM897 1260l253 315h281l-285 -315h-249zM492 1260l253 315h281l-286 -315h-248z" glyph-name="ohungarumlaut" horiz-adv-x="1251" unicode="ő"/><glyph d="M1142 0l35 174h-7q-72 -93 -191.5 -146t-257.5 -53q-257 0 -416 171.5t-159 448.5q0 246 101.5 445.5t282.5 313.5t406 114q155 0 271 -68.5t183 -197.5h6l53 241h903l-63 -295h-621l-61 -288h584l-58 -270h-584l-63 -295h622l-62 -295h-904zM1209 829q0 156 -77 248.5 t-206 92.5q-112 0 -206 -75t-148 -202.5t-54 -278.5q0 -155 77 -248t205 -93q113 0 207 75t148 202.5t54 278.5z" glyph-name="OE" horiz-adv-x="2236" unicode="Œ"/><glyph d="M1360 -25q-110 0 -216.5 50.5t-145.5 122.5h-16q-65 -84 -164.5 -128.5t-220.5 -44.5q-232 0 -371.5 133.5t-139.5 356.5q0 136 48 256.5t131 207t199.5 136.5t248.5 50q116 0 209.5 -46t152.5 -126h16q61 76 160 124t209 48q214 0 349 -130t135 -337q0 -78 -18 -179 h-749v-18q0 -106 56 -168.5t150 -62.5q153 0 195 131h320q-43 -172 -189 -274t-349 -102zM1211 667h417q2 10 2 31q0 76 -49 123.5t-128 47.5q-88 0 -153.5 -55t-88.5 -147zM441 465q0 -107 44 -167t122 -60q109 0 185.5 112.5t76.5 271.5q0 107 -43.5 168.5t-119.5 61.5 q-109 0 -187 -114t-78 -273z" glyph-name="oe" horiz-adv-x="1963" unicode="œ"/><glyph d="M1317 1870l-337 -314h-284l295 314h326zM562 764h226q118 0 190 64t72 165q0 84 -51 128.5t-145 44.5h-205zM340 1443h615q217 0 340.5 -116t123.5 -303q0 -161 -92.5 -294t-257.5 -189l169 -541h-382l-149 505h-200l-107 -505h-367z" glyph-name="Racute" horiz-adv-x="1365" unicode="Ŕ"/><glyph d="M6 0l233 1089h335l-31 -155h7q41 78 112.5 124.5t160.5 46.5q83 0 144 -28l-66 -301q-75 36 -157 36q-219 0 -270 -239l-123 -573h-345zM795 1260h-277l293 316h312z" glyph-name="racute" horiz-adv-x="848" unicode="ŕ"/><glyph d="M194 -475l211 330h313l-257 -330h-267zM562 764h226q118 0 190 64t72 165q0 84 -51 128.5t-145 44.5h-205zM340 1443h615q217 0 340.5 -116t123.5 -303q0 -161 -92.5 -294t-257.5 -189l169 -541h-382l-149 505h-200l-107 -505h-367z" glyph-name="Rcommaaccent" horiz-adv-x="1365" unicode="Ŗ"/><glyph d="M6 0l233 1089h335l-31 -155h7q41 78 112.5 124.5t160.5 46.5q83 0 144 -28l-66 -301q-75 36 -157 36q-219 0 -270 -239l-123 -573h-345zM17 -475h-267l211 330h313z" glyph-name="rcommaaccent" horiz-adv-x="848" unicode="ŗ"/><glyph d="M969 1542h-271l-192 327h247l103 -192h8l184 192h253zM562 764h226q118 0 190 64t72 165q0 84 -51 128.5t-145 44.5h-205zM340 1443h615q217 0 340.5 -116t123.5 -303q0 -161 -92.5 -294t-257.5 -189l169 -541h-382l-149 505h-200l-107 -505h-367z" glyph-name="Rcaron" horiz-adv-x="1365" unicode="Ř"/><glyph d="M6 0l233 1089h335l-31 -155h7q41 78 112.5 124.5t160.5 46.5q83 0 144 -28l-66 -301q-75 36 -157 36q-219 0 -270 -239l-123 -573h-345zM752 1246h-271l-190 327h244l97 -184h7l175 184h267z" glyph-name="rcaron" horiz-adv-x="848" unicode="ř"/><glyph d="M71 425h349q11 -75 83.5 -123t179.5 -48q103 0 166.5 40.5t63.5 109.5q0 55 -39 89t-146 67l-138 42q-183 56 -274.5 153.5t-91.5 243.5q0 210 162.5 339.5t416.5 129.5q267 0 422.5 -119.5t156.5 -328.5h-338q-3 77 -66 123.5t-167 46.5q-98 0 -156 -42t-58 -104 q0 -54 41.5 -91t137.5 -65l143 -43q194 -57 281.5 -147.5t87.5 -240.5q0 -215 -167.5 -348.5t-444.5 -133.5q-278 0 -440.5 119t-164.5 331zM990 1556h-284l295 314h326z" glyph-name="Sacute" horiz-adv-x="1347" unicode="Ś"/><glyph d="M165 757q0 161 130.5 259t346.5 98q204 0 334.5 -100t135.5 -259h-310q-4 56 -49.5 91.5t-115.5 35.5q-66 0 -105.5 -26t-39.5 -69q0 -36 30.5 -59t113.5 -51l116 -38q154 -52 219.5 -120t65.5 -178q0 -165 -135.5 -266t-358.5 -101q-226 0 -363.5 101t-144.5 270h327 q5 -62 56.5 -99.5t134.5 -37.5q66 0 104.5 26t38.5 70q0 34 -29 55.5t-109 48.5l-98 33q-152 50 -223.5 127t-71.5 189zM865 1260h-277l293 316h312z" glyph-name="sacute" horiz-adv-x="1108" unicode="ś"/><glyph d="M71 425h349q11 -75 83.5 -123t179.5 -48q103 0 166.5 40.5t63.5 109.5q0 55 -39 89t-146 67l-138 42q-183 56 -274.5 153.5t-91.5 243.5q0 210 162.5 339.5t416.5 129.5q267 0 422.5 -119.5t156.5 -328.5h-338q-3 77 -66 123.5t-167 46.5q-98 0 -156 -42t-58 -104 q0 -54 41.5 -91t137.5 -65l143 -43q194 -57 281.5 -147.5t87.5 -240.5q0 -215 -167.5 -348.5t-444.5 -133.5q-278 0 -440.5 119t-164.5 331zM1045 1869l192 -327h-247l-103 192h-7l-185 -192h-253l332 327h271z" glyph-name="Scircumflex" horiz-adv-x="1347" unicode="Ŝ"/><glyph d="M165 757q0 161 130.5 259t346.5 98q204 0 334.5 -100t135.5 -259h-310q-4 56 -49.5 91.5t-115.5 35.5q-66 0 -105.5 -26t-39.5 -69q0 -36 30.5 -59t113.5 -51l116 -38q154 -52 219.5 -120t65.5 -178q0 -165 -135.5 -266t-358.5 -101q-226 0 -363.5 101t-144.5 270h327 q5 -62 56.5 -99.5t134.5 -37.5q66 0 104.5 26t38.5 70q0 34 -29 55.5t-109 48.5l-98 33q-152 50 -223.5 127t-71.5 189zM890 1573l189 -327h-245l-97 183h-7l-175 -183h-266l329 327h272z" glyph-name="scircumflex" horiz-adv-x="1108" unicode="ŝ"/><glyph d="M776 888l143 -43q194 -57 281.5 -147.5t87.5 -240.5q0 -203 -149.5 -334t-401.5 -146l-49 -68q73 -7 111.5 -45t38.5 -103q0 -99 -87 -163t-222 -64q-100 0 -147 18l32 150q50 -15 117 -15q115 0 115 52q0 25 -27 35t-94 10h-58l26 113l62 84q-226 26 -354 141.5 t-130 302.5h349q11 -75 83.5 -123t179.5 -48q103 0 166.5 40.5t63.5 109.5q0 55 -39 89t-146 67l-138 42q-183 56 -274.5 153.5t-91.5 243.5q0 210 162.5 339.5t416.5 129.5q267 0 422.5 -119.5t156.5 -328.5h-338q-3 77 -66 123.5t-167 46.5q-98 0 -156 -42t-58 -104 q0 -54 41.5 -91t137.5 -65z" glyph-name="Scedilla" horiz-adv-x="1347" unicode="Ş"/><glyph d="M636 677l116 -38q154 -52 219.5 -120t65.5 -178q0 -151 -115.5 -249.5t-309.5 -114.5l-49 -68q73 -7 111.5 -45t38.5 -103q0 -99 -87 -163t-222 -64q-100 0 -147 18l32 150q50 -15 117 -15q115 0 115 52q0 25 -27 35t-94 10h-58l26 113l62 84q-179 25 -284 121.5 t-111 242.5h327q5 -62 56.5 -99.5t134.5 -37.5q66 0 104.5 26t38.5 70q0 34 -29 55.5t-109 48.5l-98 33q-152 50 -223.5 127t-71.5 189q0 161 130.5 259t346.5 98q204 0 334.5 -100t135.5 -259h-310q-4 56 -49.5 91.5t-115.5 35.5q-66 0 -105.5 -26t-39.5 -69 q0 -36 30.5 -59t113.5 -51z" glyph-name="scedilla" horiz-adv-x="1108" unicode="ş"/><glyph d="M71 425h349q11 -75 83.5 -123t179.5 -48q103 0 166.5 40.5t63.5 109.5q0 55 -39 89t-146 67l-138 42q-183 56 -274.5 153.5t-91.5 243.5q0 210 162.5 339.5t416.5 129.5q267 0 422.5 -119.5t156.5 -328.5h-338q-3 77 -66 123.5t-167 46.5q-98 0 -156 -42t-58 -104 q0 -54 41.5 -91t137.5 -65l143 -43q194 -57 281.5 -147.5t87.5 -240.5q0 -215 -167.5 -348.5t-444.5 -133.5q-278 0 -440.5 119t-164.5 331zM708 1542l-192 327h247l103 -192h8l184 192h253l-332 -327h-271z" glyph-name="Scaron" horiz-adv-x="1347" unicode="Š"/><glyph d="M165 757q0 161 130.5 259t346.5 98q204 0 334.5 -100t135.5 -259h-310q-4 56 -49.5 91.5t-115.5 35.5q-66 0 -105.5 -26t-39.5 -69q0 -36 30.5 -59t113.5 -51l116 -38q154 -52 219.5 -120t65.5 -178q0 -165 -135.5 -266t-358.5 -101q-226 0 -363.5 101t-144.5 270h327 q5 -62 56.5 -99.5t134.5 -37.5q66 0 104.5 26t38.5 70q0 34 -29 55.5t-109 48.5l-98 33q-152 50 -223.5 127t-71.5 189zM822 1246h-271l-190 327h244l97 -184h7l175 184h267z" glyph-name="scaron" horiz-adv-x="1108" unicode="š"/><glyph d="M266 1443h1199l-63 -295h-416l-243 -1148l-66 -91q73 -7 111.5 -45t38.5 -103q0 -99 -87 -163t-222 -64q-100 0 -147 18l32 150q50 -15 117 -15q115 0 115 52q0 25 -27 35t-94 10h-58l26 113l76 103h-183l244 1148h-416z" glyph-name="Tcedilla" horiz-adv-x="1284" unicode="Ţ"/><glyph d="M623 808l-92 -429q-6 -25 -6 -56q0 -46 31 -67t98 -21q51 0 72 6l-53 -242q-49 -13 -141 -13l-56 -77q73 -7 111.5 -45t38.5 -103q0 -99 -87 -163t-222 -64q-100 0 -147 18l32 150q50 -15 117 -15q115 0 115 52q0 25 -27 35t-94 10h-58l26 113l79 108q-93 24 -142.5 80 t-49.5 141q0 58 11 114l99 468h-163l56 256h162l56 262h343l-55 -262h217l-54 -256h-217z" glyph-name="tcedilla" horiz-adv-x="813" unicode="ţ"/><glyph d="M743 0h-368l244 1148h-416l63 295h1199l-63 -295h-416zM753 1542l-192 327h247l103 -192h8l184 192h253l-332 -327h-271z" glyph-name="Tcaron" horiz-adv-x="1284" unicode="Ť"/><glyph d="M960 1732h286l-159 -511h-236zM524 -14q-169 0 -262.5 61t-93.5 179q0 58 11 114l99 468h-163l56 256h162l56 262h343l-55 -262h217l-54 -256h-217l-92 -429q-6 -25 -6 -56q0 -46 31 -67t98 -21q51 0 72 6l-53 -242q-50 -13 -149 -13z" glyph-name="tcaron" horiz-adv-x="1022" unicode="ť"/><glyph d="M1402 1148h-416l-59 -278h319l-62 -294h-319l-122 -576h-368l122 576h-273l63 294h273l59 278h-416l63 295h1199z" glyph-name="Tbar" horiz-adv-x="1284" unicode="Ŧ"/><glyph d="M840 808h-217l-33 -153h225l-36 -166h-224l-24 -110q-6 -25 -6 -56q0 -46 31 -67t98 -21q51 0 72 6l-53 -242q-50 -13 -149 -13q-169 0 -262.5 61t-93.5 179q0 58 11 114l32 149h-164l36 166h163l32 153h-163l56 256h162l56 262h343l-55 -262h217z" glyph-name="tbar" horiz-adv-x="813" unicode="ŧ"/><glyph d="M732 -25q-272 0 -430 132.5t-158 346.5q-1 56 13 125l183 864h367l-182 -858q-10 -47 -10 -91q1 -96 67 -151.5t172 -55.5q108 0 180.5 64.5t97.5 184.5l192 907h367l-209 -987q-47 -225 -221 -353t-429 -128zM1146 1546q-48 0 -88.5 20t-63 43.5t-50 43.5t-53.5 20 q-31 0 -55 -29.5t-37 -81.5h-184q26 130 101.5 207t176.5 77q49 0 90 -20t63 -43.5t49.5 -43.5t53.5 -20q63 0 92 115h184q-28 -131 -104 -209.5t-175 -78.5z" glyph-name="Utilde" horiz-adv-x="1484" unicode="Ũ"/><glyph d="M1301 1089l-232 -1089h-333l37 172h-7q-48 -90 -141 -144t-207 -54q-155 0 -247.5 87t-92.5 230q0 73 15 141l139 657h344l-129 -601q-7 -42 -7 -73q0 -77 42 -117.5t120 -40.5q83 0 141.5 54.5t78.5 148.5l134 629h345zM967 1246q-48 0 -88.5 20t-63 43.5t-50 43.5 t-53.5 20q-31 0 -55 -29.5t-37 -81.5h-184q26 130 101.5 207t176.5 77q49 0 90 -20t63 -43.5t49.5 -43.5t53.5 -20q63 0 92 115h184q-28 -131 -104 -209.5t-175 -78.5z" glyph-name="utilde" horiz-adv-x="1241" unicode="ũ"/><glyph d="M732 -25q-272 0 -430 132.5t-158 346.5q-1 56 13 125l183 864h367l-182 -858q-10 -47 -10 -91q1 -96 67 -151.5t172 -55.5q108 0 180.5 64.5t97.5 184.5l192 907h367l-209 -987q-47 -225 -221 -353t-429 -128zM1387 1778l-35 -165h-721l35 165h721z" glyph-name="Umacron" horiz-adv-x="1484" unicode="Ū"/><glyph d="M1301 1089l-232 -1089h-333l37 172h-7q-48 -90 -141 -144t-207 -54q-155 0 -247.5 87t-92.5 230q0 73 15 141l139 657h344l-129 -601q-7 -42 -7 -73q0 -77 42 -117.5t120 -40.5q83 0 141.5 54.5t78.5 148.5l134 629h345zM1194 1442l-35 -165h-673l35 165h673z" glyph-name="umacron" horiz-adv-x="1241" unicode="ū"/><glyph d="M732 -25q-272 0 -430 132.5t-158 346.5q-1 56 13 125l183 864h367l-182 -858q-10 -47 -10 -91q1 -96 67 -151.5t172 -55.5q108 0 180.5 64.5t97.5 184.5l192 907h367l-209 -987q-47 -225 -221 -353t-429 -128zM667 1865h206q-4 -16 -4 -36q0 -58 35.5 -91t102.5 -33 q76 0 130 43.5t71 116.5h214q-35 -144 -153 -236t-292 -92q-150 0 -233.5 74.5t-83.5 188.5q0 28 7 65z" glyph-name="Ubreve" horiz-adv-x="1484" unicode="Ŭ"/><glyph d="M1301 1089l-232 -1089h-333l37 172h-7q-48 -90 -141 -144t-207 -54q-155 0 -247.5 87t-92.5 230q0 73 15 141l139 657h344l-129 -601q-7 -42 -7 -73q0 -77 42 -117.5t120 -40.5q83 0 141.5 54.5t78.5 148.5l134 629h345zM505 1571h207q-4 -24 -4 -36q0 -59 36.5 -92 t101.5 -33q74 0 128.5 43.5t72.5 117.5h213q-35 -152 -153 -240.5t-292 -88.5q-138 0 -227 75.5t-89 193.5q0 27 6 60z" glyph-name="ubreve" horiz-adv-x="1241" unicode="ŭ"/><glyph d="M732 -25q-272 0 -430 132.5t-158 346.5q-1 56 13 125l183 864h367l-182 -858q-10 -47 -10 -91q1 -96 67 -151.5t172 -55.5q108 0 180.5 64.5t97.5 184.5l192 907h367l-209 -987q-47 -225 -221 -353t-429 -128zM1040 1569q-95 0 -163 64.5t-68 158.5q0 95 68.5 161 t164.5 66q95 0 162.5 -64.5t67.5 -158.5t-68 -160.5t-164 -66.5zM1040 1705q38 0 65 26t27 64t-26.5 64t-63.5 26q-38 0 -65 -26.5t-27 -65.5q0 -37 26.5 -62.5t63.5 -25.5z" glyph-name="Uring" horiz-adv-x="1484" unicode="Ů"/><glyph d="M1301 1089l-232 -1089h-333l37 172h-7q-48 -90 -141 -144t-207 -54q-155 0 -247.5 87t-92.5 230q0 73 15 141l139 657h344l-129 -601q-7 -42 -7 -73q0 -77 42 -117.5t120 -40.5q83 0 141.5 54.5t78.5 148.5l134 629h345zM850 1215q-95 0 -163 64.5t-68 158.5 q0 95 68.5 161t164.5 66q95 0 162.5 -64.5t67.5 -158.5t-68 -160.5t-164 -66.5zM850 1351q38 0 65 26t27 64t-26.5 64t-63.5 26q-38 0 -65 -26.5t-27 -65.5q0 -37 26.5 -62.5t63.5 -25.5z" glyph-name="uring" horiz-adv-x="1241" unicode="ů"/><glyph d="M732 -25q-272 0 -430 132.5t-158 346.5q-1 56 13 125l183 864h367l-182 -858q-10 -47 -10 -91q1 -96 67 -151.5t172 -55.5q108 0 180.5 64.5t97.5 184.5l192 907h367l-209 -987q-47 -225 -221 -353t-429 -128zM1360 1556h-283l296 314h324zM887 1556h-282l295 314h324z" glyph-name="Uhungarumlaut" horiz-adv-x="1484" unicode="Ű"/><glyph d="M1301 1089l-232 -1089h-333l37 172h-7q-48 -90 -141 -144t-207 -54q-155 0 -247.5 87t-92.5 230q0 73 15 141l139 657h344l-129 -601q-7 -42 -7 -73q0 -77 42 -117.5t120 -40.5q83 0 141.5 54.5t78.5 148.5l134 629h345zM948 1260l253 315h281l-285 -315h-249zM543 1260 l253 315h281l-286 -315h-248z" glyph-name="uhungarumlaut" horiz-adv-x="1241" unicode="ű"/><glyph d="M990 -453q-58 -25 -162 -25q-107 0 -175 53t-68 141q0 70 50.5 137.5t137.5 117.5v7q-11 -3 -31 -3q-273 0 -435.5 133t-162.5 346q-1 57 13 124l183 865h369l-183 -859q-10 -46 -10 -90q1 -96 66.5 -151.5t171.5 -55.5q108 0 180 64t97 184l192 908h368l-209 -988 q-53 -257 -284 -397q-122 -75 -185.5 -139.5t-63.5 -132.5q0 -35 27 -54.5t77 -19.5q48 0 74 10z" glyph-name="Uogonek" horiz-adv-x="1484" unicode="Ų"/><glyph d="M931 -444q-55 -25 -162 -25q-110 0 -175 53t-65 136q0 152 204 267l40 185h-7q-47 -87 -138.5 -142t-209.5 -55q-153 0 -246.5 85.5t-93.5 230.5q0 58 15 141l138 658h345l-129 -602q-7 -34 -7 -73q0 -77 42 -117.5t120 -40.5q83 0 141.5 54.5t78.5 148.5l135 630h342 l-229 -1084l-31 -9q-99 -30 -173.5 -90t-74.5 -114q0 -33 29.5 -53t73.5 -20q45 0 73 10z" glyph-name="uogonek" horiz-adv-x="1240" unicode="ų"/><glyph d="M1096 898l-430 -898h-348l-71 1443h373l-4 -962h7l445 962h291l48 -962h7l395 962h378l-681 -1443h-344l-59 898h-7zM1437 1869l192 -327h-247l-103 192h-7l-185 -192h-253l332 327h271z" glyph-name="Wcircumflex" horiz-adv-x="1986" unicode="Ŵ"/><glyph d="M1822 1089l-507 -1089h-375l-16 735h-7l-321 -735h-379l-50 1089h341l-21 -769h7l325 769h336l4 -769h7l301 769h355zM1238 1573l189 -327h-245l-97 183h-7l-175 -183h-266l329 327h272z" glyph-name="wcircumflex" horiz-adv-x="1691" unicode="ŵ"/><glyph d="M796 0h-367l105 498l-296 945h380l164 -602h8l409 602h400l-699 -951zM1138 1869l192 -327h-247l-103 192h-7l-185 -192h-253l332 327h271z" glyph-name="Ycircumflex" horiz-adv-x="1389" unicode="Ŷ"/><glyph d="M81 -399q-132 0 -144 4l55 267q9 -3 104 -3q159 0 180 114q0 3 4 17.5t3 16.5l-125 1072h352l29 -818h7l377 818h367l-587 -1102q-111 -209 -256 -297.5t-366 -88.5zM967 1573l189 -327h-245l-97 183h-7l-175 -183h-266l329 327h272z" glyph-name="ycircumflex" horiz-adv-x="1152" unicode="ŷ"/><glyph d="M796 0h-367l105 498l-296 945h380l164 -602h8l409 602h400l-699 -951zM766 1573q-60 0 -100 38.5t-40 94.5t40 95t100 39q59 0 99 -39t40 -95t-40 -94.5t-99 -38.5zM1173 1573q-60 0 -100 38.5t-40 94.5t40 95t100 39t100 -39t40 -95t-40 -94.5t-100 -38.5z" glyph-name="Ydieresis" horiz-adv-x="1389" unicode="Ÿ"/><glyph d="M-5 0l50 233l838 908v7h-634l64 295h1087l-50 -233l-838 -908v-7h666l-62 -295h-1121zM1022 1556h-284l295 314h326z" glyph-name="Zacute" horiz-adv-x="1277" unicode="Ź"/><glyph d="M-19 0l40 188l631 628l2 7h-485l57 266h920l-47 -216l-593 -600l-1 -7h483l-57 -266h-950zM910 1259h-277l293 316h312z" glyph-name="zacute" horiz-adv-x="1074" unicode="ź"/><glyph d="M-5 0l50 233l838 908v7h-634l64 295h1087l-50 -233l-838 -908v-7h666l-62 -295h-1121zM922 1605q-69 0 -116.5 47.5t-47.5 113.5q0 67 47.5 114.5t116.5 47.5t117 -47.5t48 -114.5q0 -66 -48 -113.5t-117 -47.5z" glyph-name="Zdotaccent" horiz-adv-x="1277" unicode="Ż"/><glyph d="M-19 0l40 188l631 628l2 7h-485l57 266h920l-47 -216l-593 -600l-1 -7h483l-57 -266h-950zM751 1251q-69 0 -116.5 47.5t-47.5 113.5q0 67 47.5 114.5t116.5 47.5t117 -47.5t48 -114.5q0 -66 -48 -113.5t-117 -47.5z" glyph-name="zdotaccent" horiz-adv-x="1074" unicode="ż"/><glyph d="M-5 0l50 233l838 908v7h-634l64 295h1087l-50 -233l-838 -908v-7h666l-62 -295h-1121zM740 1542l-192 327h247l103 -192h8l184 192h253l-332 -327h-271z" glyph-name="Zcaron" horiz-adv-x="1277" unicode="Ž"/><glyph d="M-19 0l40 188l631 628l2 7h-485l57 266h920l-47 -216l-593 -600l-1 -7h483l-57 -266h-950zM867 1245h-271l-190 327h244l97 -184h7l175 184h267z" glyph-name="zcaron" horiz-adv-x="1074" unicode="ž"/><glyph d="M751 -25q-278 0 -444.5 158.5t-166.5 422.5q0 60 12.5 132.5t30.5 117.5h995q0 4 1 10t1.5 10.5t0.5 7.5q17 157 -54.5 248.5t-210.5 91.5q-210 0 -309 -175h-372q77 218 268.5 343.5t447.5 125.5q274 0 434 -156.5t160 -424.5q0 -272 -98.5 -479t-278.5 -320t-417 -113z M770 269q126 0 225 79.5t136 210.5h-618q-3 -21 -3 -43q0 -115 69.5 -181t190.5 -66z" glyph-name="uni04D8" horiz-adv-x="1558" unicode="Ə"/><glyph d="M751 -25q-278 0 -444.5 158.5t-166.5 422.5q0 60 12.5 132.5t30.5 117.5h995q0 4 1 10t1.5 10.5t0.5 7.5q17 157 -54.5 248.5t-210.5 91.5q-210 0 -309 -175h-372q77 218 268.5 343.5t447.5 125.5q274 0 434 -156.5t160 -424.5q0 -272 -98.5 -479t-278.5 -320t-417 -113z M770 269q126 0 225 79.5t136 210.5h-618q-3 -21 -3 -43q0 -115 69.5 -181t190.5 -66z" glyph-name="uni04D8" horiz-adv-x="1558" unicode="Ә"/><glyph d="M246 -21q-71 0 -140.5 10.5t-104.5 24.5l58 275q73 -26 166 -26q92 0 149.5 40.5t94.5 139.5l67 184h-321l52 245h360l81 218q135 366 578 366q142 0 226 -28l-59 -274q-59 19 -155 19q-189 0 -257 -185l-43 -116h325l-53 -245h-363l-96 -262q-71 -193 -205.5 -289.5 t-359.5 -96.5z" glyph-name="florin" horiz-adv-x="1372" unicode="ƒ"/><glyph d="M1201 829q0 156 -77 248.5t-206 92.5q-112 0 -206 -74.5t-148 -202.5t-54 -279q0 -155 77 -248t205 -93q112 0 206 74.5t148.5 202t54.5 279.5zM1573 850q0 -190 -62 -354t-168 -278t-251.5 -178.5t-309.5 -64.5q-147 0 -269 46.5t-203.5 128.5t-126.5 196t-45 247 q0 190 61 354t166.5 277.5t251 178.5t309.5 65q91 0 166.5 -15.5t122.5 -38t83.5 -44.5t68 -37.5t57.5 -15.5q46 0 70 23t35 77l36 170h269l-55 -256q-21 -99 -76.5 -149t-126.5 -50q-39 0 -62 14l-6 -7q65 -127 65 -289z" glyph-name="Ohorn" horiz-adv-x="1570" unicode="Ơ"/><glyph d="M1225 620q0 -135 -48 -255t-131 -205.5t-199.5 -135.5t-248.5 -50q-232 0 -371.5 134t-139.5 358q0 135 48.5 255.5t132 207t200.5 136.5t249 50q96 0 206 -25.5t148 -25.5q88 0 105 84l33 155h269l-50 -236q-20 -95 -85 -154.5t-147 -59.5h-20v-7q49 -90 49 -226z M442 467q0 -107 44 -167.5t121 -60.5q109 0 186 112.5t77 270.5q0 107 -43.5 168.5t-119.5 61.5q-109 0 -187 -113.5t-78 -271.5z" glyph-name="ohorn" horiz-adv-x="1322" unicode="ơ"/><glyph d="M735 -25q-271 0 -434.5 132.5t-163.5 346.5q0 59 13 124l183 865h369l-183 -859q-10 -46 -10 -90q2 -93 66 -150t172 -57t180 64t97 184l192 908h384q73 0 88 71l42 194h269l-57 -266q-23 -108 -99.5 -167.5t-189.5 -59.5h-116l-161 -760q-47 -224 -216.5 -352 t-424.5 -128z" glyph-name="Uhorn" horiz-adv-x="1739" unicode="Ư"/><glyph d="M766 172q-48 -90 -141 -144t-207 -54q-155 0 -247.5 87t-92.5 230q0 73 15 141l139 657h344l-129 -601q-7 -42 -7 -73q0 -77 42 -117.5t120 -40.5q83 0 141.5 54.5t78.5 148.5l134 629h320q76 0 91 69l32 155h269l-50 -236q-22 -101 -93 -157.5t-176 -56.5h-96l-184 -863 h-333l37 172h-7z" glyph-name="uhorn" horiz-adv-x="1472" unicode="ư"/><glyph d="M340 1443h557q263 0 422.5 -149.5t159.5 -410.5q0 -192 -55.5 -355.5t-154.5 -280t-242 -182t-312 -65.5h-682zM647 1149l-181 -855h199q194 0 315.5 148t121.5 395q0 146 -75.5 229t-213.5 83h-166zM1468 0l50 233l838 908v7h-634l64 295h1087l-50 -233l-838 -908v-7 h666l-62 -295h-1121zM2213 1542l-192 327h247l103 -192h8l184 192h253l-332 -327h-271z" glyph-name="uni01C4" horiz-adv-x="2750" unicode="Ǆ"/><glyph d="M340 1443h557q263 0 422.5 -149.5t159.5 -410.5q0 -192 -55.5 -355.5t-154.5 -280t-242 -182t-312 -65.5h-682zM647 1149l-181 -855h199q194 0 315.5 148t121.5 395q0 146 -75.5 229t-213.5 83h-166zM1454 0l40 188l631 628l2 7h-485l57 266h920l-47 -216l-593 -600 l-1 -7h483l-57 -266h-950zM2340 1245h-271l-190 327h244l97 -184h7l175 184h267z" glyph-name="uni01C5" horiz-adv-x="2547" unicode="ǅ"/><glyph d="M454 -16q-172 0 -272 114.5t-100 310.5q0 147 41.5 276.5t113.5 221.5t173.5 145t216.5 53q120 0 204.5 -54.5t111.5 -147.5h8l115 540h344l-307 -1443h-337l34 158h-7q-119 -174 -339 -174zM614 250q110 0 188.5 109.5t78.5 261.5q0 94 -49.5 152t-130.5 58 q-111 0 -188 -106t-77 -262q0 -97 48.5 -155t129.5 -58zM1263 0l40 188l631 628l2 7h-485l57 266h920l-47 -216l-593 -600l-1 -7h483l-57 -266h-950zM2149 1245h-271l-190 327h244l97 -184h7l175 184h267z" glyph-name="uni01C6" horiz-adv-x="2356" unicode="ǆ"/><glyph d="M1077 303l-65 -303h-979l307 1443h367l-242 -1140h612zM1180 409q0 34 3 60h351v-16q0 -75 41.5 -119t115.5 -44q145 0 184 186l206 967h368l-216 -1013q-47 -221 -187 -338t-361 -117q-228 0 -366.5 119.5t-138.5 314.5z" glyph-name="uni01C7" horiz-adv-x="2341" unicode="Ǉ"/><glyph d="M1077 303l-65 -303h-979l307 1443h367l-242 -1140h612zM1606 1180q-76 0 -128 49.5t-52 122.5q0 74 52 123.5t128 49.5t128 -49.5t52 -123.5q0 -73 -52 -122.5t-128 -49.5zM1720 1089l-247 -1159q-33 -153 -148 -238t-285 -85q-85 0 -151 14l54 247q34 -6 66 -6 q107 0 128 103l239 1124h344z" glyph-name="uni01C8" horiz-adv-x="1662" unicode="ǈ"/><glyph d="M15 0l307 1443h344l-307 -1443h-344zM1010 1180q-76 0 -128 49.5t-52 122.5q0 74 52 123.5t128 49.5t128 -49.5t52 -123.5q0 -73 -52 -122.5t-128 -49.5zM1124 1089l-247 -1159q-33 -153 -148 -238t-285 -85q-84 0 -151 14l54 247q34 -6 66 -6q107 0 128 103l239 1124 h344z" glyph-name="uni01C9" horiz-adv-x="1066" unicode="ǉ"/><glyph d="M385 0h-352l307 1443h288l426 -882h7l186 882h353l-307 -1443h-288l-426 882h-7zM1535 409q0 34 3 60h351v-16q0 -75 41.5 -119t115.5 -44q145 0 184 186l206 967h368l-216 -1013q-47 -221 -187 -338t-361 -117q-228 0 -366.5 119.5t-138.5 314.5z" glyph-name="uni01CA" horiz-adv-x="2696" unicode="Ǌ"/><glyph d="M385 0h-352l307 1443h288l426 -882h7l186 882h353l-307 -1443h-288l-426 882h-7zM1961 1180q-76 0 -128 49.5t-52 122.5q0 74 52 123.5t128 49.5t128 -49.5t52 -123.5q0 -73 -52 -122.5t-128 -49.5zM2075 1089l-247 -1159q-33 -153 -148 -238t-285 -85q-85 0 -151 14 l54 247q34 -6 66 -6q107 0 128 103l239 1124h344z" glyph-name="uni01CB" horiz-adv-x="2017" unicode="ǋ"/><glyph d="M6 0l232 1089h332l-36 -166h7q57 91 151.5 141.5t206.5 50.5q148 0 240 -86t92 -225q0 -61 -15 -133l-141 -671h-342l130 617q9 46 9 78q0 66 -46 107t-119 41q-80 0 -141.5 -55t-80.5 -146l-137 -642h-342zM1711 1180q-76 0 -128 49.5t-52 122.5q0 74 52 123.5t128 49.5 t128 -49.5t52 -123.5q0 -73 -52 -122.5t-128 -49.5zM1825 1089l-247 -1159q-33 -153 -148 -238t-285 -85q-85 0 -151 14l54 247q34 -6 66 -6q107 0 128 103l239 1124h344z" glyph-name="uni01CC" horiz-adv-x="1767" unicode="ǌ"/><glyph d="M890 1121l-276 -540h324l-40 540h-8zM977 0l-24 317h-471l-163 -317h-388l804 1443h449l166 -1443h-373zM845 1542l-192 327h247l103 -192h8l184 192h253l-332 -327h-271z" glyph-name="Acaron" horiz-adv-x="1446" unicode="Ǎ"/><glyph d="M510 223q77 0 137 44.5t74 111.5l18 81l-198 -6q-79 -3 -126 -36.5t-47 -88.5q0 -48 39.5 -77t102.5 -29zM358 -16q-137 0 -229.5 84t-92.5 212q0 167 130 264.5t357 104.5l258 8l13 64q4 23 4 36q0 47 -41 75.5t-110 28.5q-67 0 -112 -28t-60 -78h-316 q31 165 169.5 262.5t342.5 97.5q207 0 335 -91t128 -237q0 -43 -8 -89l-149 -698h-333l28 129h-7q-44 -66 -125.5 -105.5t-181.5 -39.5zM856 1245h-271l-190 327h244l97 -184h7l175 184h267z" glyph-name="acaron" horiz-adv-x="1143" unicode="ǎ"/><glyph d="M400 0h-367l307 1443h367zM410 1542l-192 327h247l103 -192h8l184 192h253l-332 -327h-271z" glyph-name="Icaron" horiz-adv-x="598" unicode="Ǐ"/><glyph d="M9 0l232 1089h345l-232 -1089h-345zM597 1245h-271l-190 327h244l97 -184h7l175 184h267z" glyph-name="icaron" horiz-adv-x="529" unicode="ǐ"/><glyph d="M918 1170q-112 0 -206 -74.5t-148 -202.5t-54 -279q0 -155 77 -248t205 -93q112 0 206 74.5t148.5 202t54.5 279.5q0 156 -77 248.5t-206 92.5zM782 -25q-147 0 -269 46.5t-203.5 128.5t-126.5 196t-45 247q0 190 61 354t166.5 277.5t251 178.5t309.5 65 q150 0 272.5 -46.5t204.5 -129t126 -196t44 -246.5q0 -190 -62 -354t-168 -278t-251.5 -178.5t-309.5 -64.5zM826 1542l-192 327h247l103 -192h8l184 192h253l-332 -327h-271z" glyph-name="Ocaron" horiz-adv-x="1570" unicode="Ǒ"/><glyph d="M613 242q113 0 189 108t76 267q0 104 -48 167t-127 63q-115 0 -190.5 -106.5t-75.5 -268.5q0 -104 48 -167t128 -63zM718 1115q229 0 370 -135.5t141 -355.5q0 -139 -47.5 -260t-130 -206.5t-200 -134.5t-252.5 -49q-229 0 -370 135t-141 356q0 139 47.5 260t130 206.5 t200 134.5t252.5 49zM897 1245h-271l-190 327h244l97 -184h7l175 184h267z" glyph-name="ocaron" horiz-adv-x="1251" unicode="ǒ"/><glyph d="M732 -25q-272 0 -430 132.5t-158 346.5q-1 56 13 125l183 864h367l-182 -858q-10 -47 -10 -91q1 -96 67 -151.5t172 -55.5q108 0 180.5 64.5t97.5 184.5l192 907h367l-209 -987q-47 -225 -221 -353t-429 -128zM841 1542l-192 327h247l103 -192h8l184 192h253l-332 -327 h-271z" glyph-name="Ucaron" horiz-adv-x="1484" unicode="Ǔ"/><glyph d="M1301 1089l-232 -1089h-333l37 172h-7q-48 -90 -141 -144t-207 -54q-155 0 -247.5 87t-92.5 230q0 73 15 141l139 657h344l-129 -601q-7 -42 -7 -73q0 -77 42 -117.5t120 -40.5q83 0 141.5 54.5t78.5 148.5l134 629h345zM948 1245h-271l-190 327h244l97 -184h7l175 184 h267z" glyph-name="ucaron" horiz-adv-x="1241" unicode="ǔ"/><glyph d="M732 -25q-272 0 -430 132.5t-158 346.5q-1 56 13 125l183 864h367l-182 -858q-10 -47 -10 -91q1 -96 67 -151.5t172 -55.5q108 0 180.5 64.5t97.5 184.5l192 907h367l-209 -987q-47 -225 -221 -353t-429 -128zM794 1819q62 0 103.5 -40.5t41.5 -98.5t-41.5 -99 t-103.5 -41t-104 41t-42 99t42 98.5t104 40.5zM1455 2098l-35 -165h-721l35 165h721zM1217 1819q62 0 103.5 -40.5t41.5 -98.5t-41.5 -99t-103.5 -41t-104 41t-42 99t42 98.5t104 40.5z" glyph-name="Udieresismacron" horiz-adv-x="1484" unicode="Ǖ"/><glyph d="M1301 1089l-232 -1089h-333l37 172h-7q-48 -90 -141 -144t-207 -54q-155 0 -247.5 87t-92.5 230q0 73 15 141l139 657h344l-129 -601q-7 -42 -7 -73q0 -77 42 -117.5t120 -40.5q83 0 141.5 54.5t78.5 148.5l134 629h345zM619 1228q-60 0 -100 39t-40 95t40 95t100 39 t100 -39t40 -95t-40 -95t-100 -39zM1026 1228q-59 0 -99 39t-40 95t40 95t99 39q60 0 100 -39t40 -95t-40 -95t-100 -39zM1269 1793l-35 -165h-673l35 165h673z" glyph-name="udieresismacron" horiz-adv-x="1241" unicode="ǖ"/><glyph d="M732 -25q-272 0 -430 132.5t-158 346.5q-1 56 13 125l183 864h367l-182 -858q-10 -47 -10 -91q1 -96 67 -151.5t172 -55.5q108 0 180.5 64.5t97.5 184.5l192 907h367l-209 -987q-47 -225 -221 -353t-429 -128zM905 1903l251 265h300l-284 -265h-267zM806 1558 q-59 0 -99 38.5t-40 94.5q0 55 40 93.5t99 38.5t98.5 -38.5t39.5 -93.5q0 -56 -39.5 -94.5t-98.5 -38.5zM1209 1558q-59 0 -99 38.5t-40 94.5q0 55 40 93.5t99 38.5t98.5 -38.5t39.5 -93.5q0 -56 -39.5 -94.5t-98.5 -38.5z" glyph-name="Udieresisacute" horiz-adv-x="1484" unicode="Ǘ"/><glyph d="M1301 1089l-232 -1089h-333l37 172h-7q-48 -90 -141 -144t-207 -54q-155 0 -247.5 87t-92.5 230q0 73 15 141l139 657h344l-129 -601q-7 -42 -7 -73q0 -77 42 -117.5t120 -40.5q83 0 141.5 54.5t78.5 148.5l134 629h345zM737 1607l264 285h287l-298 -285h-253zM632 1229 q-60 0 -100 38.5t-40 94.5t40 95t100 39q59 0 99 -39t40 -95t-40 -94.5t-99 -38.5zM1039 1229q-60 0 -100 38.5t-40 94.5t40 95t100 39t100 -39t40 -95t-40 -94.5t-100 -38.5z" glyph-name="udieresisacute" horiz-adv-x="1241" unicode="ǘ"/><glyph d="M732 -25q-272 0 -430 132.5t-158 346.5q-1 56 13 125l183 864h367l-182 -858q-10 -47 -10 -91q1 -96 67 -151.5t172 -55.5q108 0 180.5 64.5t97.5 184.5l192 907h367l-209 -987q-47 -225 -221 -353t-429 -128zM932 1900l-190 288h233l91 -151h18l156 151h257l-313 -288 h-252zM794 1819q62 0 103.5 -40.5t41.5 -98.5t-41.5 -99t-103.5 -41t-104 41t-42 99t42 98.5t104 40.5zM1217 1819q62 0 103.5 -40.5t41.5 -98.5t-41.5 -99t-103.5 -41t-104 41t-42 99t42 98.5t104 40.5z" glyph-name="Udieresiscaron" horiz-adv-x="1484" unicode="Ǚ"/><glyph d="M1301 1089l-232 -1089h-333l37 172h-7q-48 -90 -141 -144t-207 -54q-155 0 -247.5 87t-92.5 230q0 73 15 141l139 657h344l-129 -601q-7 -42 -7 -73q0 -77 42 -117.5t120 -40.5q83 0 141.5 54.5t78.5 148.5l134 629h345zM619 1228q-60 0 -100 39t-40 95t40 95t100 39 t100 -39t40 -95t-40 -95t-100 -39zM1026 1228q-59 0 -99 39t-40 95t40 95t99 39q60 0 100 -39t40 -95t-40 -95t-100 -39zM730 1574l-189 322h243l97 -179h8l174 179h268l-329 -322h-272z" glyph-name="udieresiscaron" horiz-adv-x="1241" unicode="ǚ"/><glyph d="M732 -25q-272 0 -430 132.5t-158 346.5q-1 56 13 125l183 864h367l-182 -858q-10 -47 -10 -91q1 -96 67 -151.5t172 -55.5q108 0 180.5 64.5t97.5 184.5l192 907h367l-209 -987q-47 -225 -221 -353t-429 -128zM1186 1903h-238l-170 265h271zM806 1558q-59 0 -99 38.5 t-40 94.5q0 55 40 93.5t99 38.5t98.5 -38.5t39.5 -93.5q0 -56 -39.5 -94.5t-98.5 -38.5zM1209 1558q-59 0 -99 38.5t-40 94.5q0 55 40 93.5t99 38.5t98.5 -38.5t39.5 -93.5q0 -56 -39.5 -94.5t-98.5 -38.5z" glyph-name="Udieresisgrave" horiz-adv-x="1484" unicode="Ǜ"/><glyph d="M1301 1089l-232 -1089h-333l37 172h-7q-48 -90 -141 -144t-207 -54q-155 0 -247.5 87t-92.5 230q0 73 15 141l139 657h344l-129 -601q-7 -42 -7 -73q0 -77 42 -117.5t120 -40.5q83 0 141.5 54.5t78.5 148.5l134 629h345zM1004 1603h-230l-171 289h282zM632 1229 q-60 0 -100 38.5t-40 94.5t40 95t100 39q59 0 99 -39t40 -95t-40 -94.5t-99 -38.5zM1039 1229q-60 0 -100 38.5t-40 94.5t40 95t100 39t100 -39t40 -95t-40 -94.5t-100 -38.5z" glyph-name="udieresisgrave" horiz-adv-x="1241" unicode="ǜ"/><glyph d="M461 739h-322q43 169 187.5 272.5t348.5 103.5q232 0 366.5 -132.5t134.5 -361.5q0 -183 -74.5 -330t-211.5 -231.5t-313 -84.5q-217 0 -350.5 127.5t-133.5 339.5q0 105 18 178h751q2 24 2 33q0 94 -55 153t-149 59q-73 0 -126.5 -34.5t-72.5 -91.5zM591 220 q86 0 150.5 56t87.5 147h-417q-3 -9 -3 -32q0 -74 49 -122.5t133 -48.5z" glyph-name="uni04D9" horiz-adv-x="1201" unicode="ǝ"/><glyph d="M461 739h-322q43 169 187.5 272.5t348.5 103.5q232 0 366.5 -132.5t134.5 -361.5q0 -183 -74.5 -330t-211.5 -231.5t-313 -84.5q-217 0 -350.5 127.5t-133.5 339.5q0 105 18 178h751q2 24 2 33q0 94 -55 153t-149 59q-73 0 -126.5 -34.5t-72.5 -91.5zM591 220 q86 0 150.5 56t87.5 147h-417q-3 -9 -3 -32q0 -74 49 -122.5t133 -48.5z" glyph-name="uni04D9" horiz-adv-x="1201" unicode="ә"/><glyph d="M461 739h-322q43 169 187.5 272.5t348.5 103.5q232 0 366.5 -132.5t134.5 -361.5q0 -183 -74.5 -330t-211.5 -231.5t-313 -84.5q-217 0 -350.5 127.5t-133.5 339.5q0 105 18 178h751q2 24 2 33q0 94 -55 153t-149 59q-73 0 -126.5 -34.5t-72.5 -91.5zM591 220 q86 0 150.5 56t87.5 147h-417q-3 -9 -3 -32q0 -74 49 -122.5t133 -48.5z" glyph-name="uni04D9" horiz-adv-x="1201" unicode="ə"/><glyph d="M890 1121l-276 -540h324l-40 540h-8zM977 0l-24 317h-471l-163 -317h-388l804 1443h449l166 -1443h-373zM798 1819q62 0 103.5 -40.5t41.5 -98.5t-41.5 -99t-103.5 -41t-104 41t-42 99t42 98.5t104 40.5zM1459 2098l-35 -165h-721l35 165h721zM1221 1819 q62 0 103.5 -40.5t41.5 -98.5t-41.5 -99t-103.5 -41t-104 41t-42 99t42 98.5t104 40.5z" glyph-name="Adieresismacron" horiz-adv-x="1446" unicode="Ǟ"/><glyph d="M510 223q77 0 137 44.5t74 111.5l18 81l-198 -6q-79 -3 -126 -36.5t-47 -88.5q0 -48 39.5 -77t102.5 -29zM358 -16q-137 0 -229.5 84t-92.5 212q0 167 130 264.5t357 104.5l258 8l13 64q4 23 4 36q0 47 -41 75.5t-110 28.5q-67 0 -112 -28t-60 -78h-316 q31 165 169.5 262.5t342.5 97.5q207 0 335 -91t128 -237q0 -43 -8 -89l-149 -698h-333l28 129h-7q-44 -66 -125.5 -105.5t-181.5 -39.5zM527 1228q-60 0 -100 39t-40 95t40 95t100 39t100 -39t40 -95t-40 -95t-100 -39zM934 1228q-59 0 -99 39t-40 95t40 95t99 39 q60 0 100 -39t40 -95t-40 -95t-100 -39zM1177 1793l-35 -165h-673l35 165h673z" glyph-name="adieresismacron" horiz-adv-x="1143" unicode="ǟ"/><glyph d="M890 1121l-276 -540h324l-40 540h-8zM977 0l-24 317h-471l-163 -317h-388l804 1443h449l166 -1443h-373zM1011 1546q-64 0 -106.5 41.5t-42.5 100.5q0 60 42.5 101.5t106.5 41.5q63 0 105.5 -41.5t42.5 -101.5q0 -59 -42.5 -100.5t-105.5 -41.5zM1459 2098l-35 -165h-721 l35 165h721z" glyph-name="Adotmacron" horiz-adv-x="1446" unicode="Ǡ"/><glyph d="M510 223q77 0 137 44.5t74 111.5l18 81l-198 -6q-79 -3 -126 -36.5t-47 -88.5q0 -48 39.5 -77t102.5 -29zM358 -16q-137 0 -229.5 84t-92.5 212q0 167 130 264.5t357 104.5l258 8l13 64q4 23 4 36q0 47 -41 75.5t-110 28.5q-67 0 -112 -28t-60 -78h-316 q31 165 169.5 262.5t342.5 97.5q207 0 335 -91t128 -237q0 -43 -8 -89l-149 -698h-333l28 129h-7q-44 -66 -125.5 -105.5t-181.5 -39.5zM735 1216q-69 0 -116.5 47t-47.5 113q0 67 47.5 113.5t116.5 46.5t116 -46.5t47 -113.5q0 -66 -47 -113t-116 -47zM1177 1793l-35 -165 h-673l35 165h673z" glyph-name="adotmacron" horiz-adv-x="1143" unicode="ǡ"/><glyph d="M1126 1167h-120l-339 -575h337zM878 0l69 327h-431l-194 -327h-371l873 1443h1337l-63 -295h-646l-61 -290h609l-58 -270h-609l-62 -293h645l-62 -295h-976zM1893 1778l-35 -165h-721l35 165h721z" glyph-name="AEmacron" horiz-adv-x="2035" unicode="Ǣ"/><glyph d="M1242 -26q-117 0 -222.5 54t-146.5 135h-16q-63 -88 -175 -138.5t-240 -50.5q-176 0 -289 86.5t-113 219.5q0 170 127 266.5t360 102.5l258 8l13 64q3 15 3 36q0 46 -41.5 75t-108.5 29q-141 0 -173 -106h-316q31 162 166 261t328 99q102 0 197 -39t141 -101h16 q65 67 154 103.5t187 36.5q208 0 341.5 -131t133.5 -336q0 -90 -16 -179h-751v-18q0 -106 56.5 -168.5t152.5 -62.5q73 0 123 34t69 97h320q-44 -173 -189.5 -275t-348.5 -102zM1094 667h417q4 10 4 31q0 76 -49.5 123.5t-127.5 47.5q-89 0 -155 -55.5t-89 -146.5zM514 218 q78 0 138.5 44t75.5 111l18 82l-201 -7q-79 -3 -125.5 -36.5t-46.5 -88.5q0 -46 39 -75.5t102 -29.5zM1469 1442l-35 -165h-673l35 165h673z" glyph-name="aemacron" horiz-adv-x="1847" unicode="ǣ"/><glyph d="M1525 777l-31 -170q-55 -305 -242.5 -468.5t-480.5 -163.5q-287 0 -460 171t-173 452q0 179 57 338t159 277t253 186.5t330 68.5q176 0 316.5 -67t216.5 -177t77 -240q0 -14 -2 -28h-353q-7 96 -79 156.5t-185 60.5q-96 0 -175.5 -45t-131.5 -122t-81 -178.5t-29 -214.5 q0 -159 77.5 -251t220.5 -92q115 0 200.5 67.5t110.5 174.5l3 13h-273l54 252h621zM817 1542l-192 327h247l103 -192h8l184 192h253l-332 -327h-271z" glyph-name="Gcaron" horiz-adv-x="1519" unicode="Ǧ"/><glyph d="M502 -411q-239 0 -378 93t-140 256h335q10 -56 63 -87.5t137 -31.5q193 0 234 180l39 176h-16q-48 -74 -132.5 -115t-187.5 -41q-167 0 -269.5 112.5t-102.5 296.5q0 181 70 336t195 248t276 93q115 0 199 -57t112 -152h15l42 193h336l-235 -1106q-40 -188 -196 -291 t-396 -103zM611 255q112 0 189.5 108.5t77.5 257.5q0 94 -50 152t-131 58q-112 0 -188 -106t-76 -260q0 -95 48 -152.5t130 -57.5zM952 1247h-271l-190 327h244l97 -184h7l175 184h267z" glyph-name="gcaron" horiz-adv-x="1269" unicode="ǧ"/><glyph d="M400 0h-367l307 1443h367l-131 -616h7l611 616h423l-660 -669l354 -774h-404l-254 566l-169 -168zM812 1542l-192 327h247l103 -192h8l184 192h253l-332 -327h-271z" glyph-name="Kcaron" horiz-adv-x="1410" unicode="Ǩ"/><glyph d="M357 0h-344l308 1443h343l-160 -753h7l397 399h398l-497 -473l297 -616h-373l-200 429l-105 -97zM379 1542l-192 327h247l103 -192h8l184 192h253l-332 -327h-271z" glyph-name="kcaron" horiz-adv-x="1176" unicode="ǩ"/><glyph d="M1035 -453q-58 -25 -161 -25q-108 0 -175.5 53t-67.5 141q0 70 49.5 137.5t135.5 116.5v7q-20 -2 -34 -2q-147 0 -269 46.5t-203.5 128.5t-126.5 196t-45 247q0 190 61 354t166.5 277.5t251 178.5t309.5 65q150 0 272.5 -46.5t204.5 -129t126 -196t44 -246.5 q0 -258 -116.5 -458.5t-306.5 -326.5q-61 -41 -97.5 -68t-78 -65t-61 -73.5t-19.5 -72.5q0 -35 27 -54.5t78 -19.5q47 0 73 10zM1201 829q0 156 -77 248.5t-206 92.5q-112 0 -206 -74.5t-148 -202.5t-54 -279q0 -155 77 -248t205 -93q112 0 206 74.5t148.5 202t54.5 279.5z" glyph-name="Oogonek" horiz-adv-x="1570" unicode="Ǫ"/><glyph d="M813 -444q-50 -25 -162 -25q-110 0 -175.5 53t-65.5 136q0 79 56.5 145t140.5 105v4h-9q-232 0 -371.5 134t-139.5 358q0 180 82.5 329t227 234.5t320.5 85.5q232 0 370 -134.5t138 -360.5q0 -178 -82 -323.5t-223 -235.5q-129 -82 -188 -141.5t-59 -117.5q0 -34 30 -58 t73 -24q45 0 73 10zM442 467q0 -107 44 -167.5t121 -60.5q109 0 186 112.5t77 270.5q0 107 -43.5 168.5t-119.5 61.5q-109 0 -187 -113.5t-78 -271.5z" glyph-name="oogonek" horiz-adv-x="1247" unicode="ǫ"/><glyph d="M1035 -453q-58 -25 -161 -25q-108 0 -175.5 53t-67.5 141q0 70 49.5 137.5t135.5 116.5v7q-20 -2 -34 -2q-147 0 -269 46.5t-203.5 128.5t-126.5 196t-45 247q0 190 61 354t166.5 277.5t251 178.5t309.5 65q150 0 272.5 -46.5t204.5 -129t126 -196t44 -246.5 q0 -258 -116.5 -458.5t-306.5 -326.5q-61 -41 -97.5 -68t-78 -65t-61 -73.5t-19.5 -72.5q0 -35 27 -54.5t78 -19.5q47 0 73 10zM1201 829q0 156 -77 248.5t-206 92.5q-112 0 -206 -74.5t-148 -202.5t-54 -279q0 -155 77 -248t205 -93q112 0 206 74.5t148.5 202t54.5 279.5z M1372 1778l-35 -165h-721l35 165h721z" glyph-name="Oogonekmacron" horiz-adv-x="1570" unicode="Ǭ"/><glyph d="M813 -444q-50 -25 -162 -25q-110 0 -175.5 53t-65.5 136q0 79 56.5 145t140.5 105v4h-9q-232 0 -371.5 134t-139.5 358q0 180 82.5 329t227 234.5t320.5 85.5q232 0 370 -134.5t138 -360.5q0 -178 -82 -323.5t-223 -235.5q-129 -82 -188 -141.5t-59 -117.5q0 -34 30 -58 t73 -24q45 0 73 10zM442 467q0 -107 44 -167.5t121 -60.5q109 0 186 112.5t77 270.5q0 107 -43.5 168.5t-119.5 61.5q-109 0 -187 -113.5t-78 -271.5zM1176 1442l-35 -165h-673l35 165h673z" glyph-name="oogonekmacron" horiz-adv-x="1247" unicode="ǭ"/><glyph d="M340 1443h557q263 0 422.5 -149.5t159.5 -410.5q0 -192 -55.5 -355.5t-154.5 -280t-242 -182t-312 -65.5h-682zM647 1149l-181 -855h199q194 0 315.5 148t121.5 395q0 146 -75.5 229t-213.5 83h-166zM1468 0l50 233l838 908v7h-634l64 295h1087l-50 -233l-838 -908v-7 h666l-62 -295h-1121z" glyph-name="uni01F1" horiz-adv-x="2750" unicode="Ǳ"/><glyph d="M340 1443h557q263 0 422.5 -149.5t159.5 -410.5q0 -192 -55.5 -355.5t-154.5 -280t-242 -182t-312 -65.5h-682zM647 1149l-181 -855h199q194 0 315.5 148t121.5 395q0 146 -75.5 229t-213.5 83h-166zM1454 0l40 188l631 628l2 7h-485l57 266h920l-47 -216l-593 -600 l-1 -7h483l-57 -266h-950z" glyph-name="uni01F2" horiz-adv-x="2548" unicode="ǲ"/><glyph d="M454 -16q-172 0 -272 114.5t-100 310.5q0 147 41.5 276.5t113.5 221.5t173.5 145t216.5 53q120 0 204.5 -54.5t111.5 -147.5h8l115 540h344l-307 -1443h-337l34 158h-7q-119 -174 -339 -174zM614 250q110 0 188.5 109.5t78.5 261.5q0 94 -49.5 152t-130.5 58 q-111 0 -188 -106t-77 -262q0 -97 48.5 -155t129.5 -58zM1263 0l40 188l631 628l2 7h-485l57 266h920l-47 -216l-593 -600l-1 -7h483l-57 -266h-950z" glyph-name="uni01F3" horiz-adv-x="2357" unicode="ǳ"/><glyph d="M1525 777l-31 -170q-55 -305 -242.5 -468.5t-480.5 -163.5q-287 0 -460 171t-173 452q0 179 57 338t159 277t253 186.5t330 68.5q176 0 316.5 -67t216.5 -177t77 -240q0 -14 -2 -28h-353q-7 96 -79 156.5t-185 60.5q-96 0 -175.5 -45t-131.5 -122t-81 -178.5t-29 -214.5 q0 -159 77.5 -251t220.5 -92q115 0 200.5 67.5t110.5 174.5l3 13h-273l54 252h621zM1099 1556h-284l295 314h326z" glyph-name="Gacute" horiz-adv-x="1519" unicode="Ǵ"/><glyph d="M502 -411q-239 0 -378 93t-140 256h335q10 -56 63 -87.5t137 -31.5q193 0 234 180l39 176h-16q-48 -74 -132.5 -115t-187.5 -41q-167 0 -269.5 112.5t-102.5 296.5q0 181 70 336t195 248t276 93q115 0 199 -57t112 -152h15l42 193h336l-235 -1106q-40 -188 -196 -291 t-396 -103zM611 255q112 0 189.5 108.5t77.5 257.5q0 94 -50 152t-131 58q-112 0 -188 -106t-76 -260q0 -95 48 -152.5t130 -57.5zM995 1261h-277l293 316h312z" glyph-name="gacute" horiz-adv-x="1269" unicode="ǵ"/><glyph d="M385 0h-352l307 1443h288l426 -882h7l186 882h353l-307 -1443h-288l-426 882h-7zM833 1556l-205 314h297l163 -314h-255z" glyph-name="Ngrave" horiz-adv-x="1491" unicode="Ǹ"/><glyph d="M6 0l232 1089h332l-36 -166h7q57 91 151.5 141.5t206.5 50.5q148 0 240 -86t92 -225q0 -61 -15 -133l-141 -671h-342l130 617q9 46 9 78q0 66 -46 107t-119 41q-80 0 -141.5 -55t-80.5 -146l-137 -642h-342zM874 1259h-273l-193 316h307z" glyph-name="ngrave" horiz-adv-x="1241" unicode="ǹ"/><glyph d="M890 1121l-276 -540h324l-40 540h-8zM977 0l-24 317h-471l-163 -317h-388l804 1443h449l166 -1443h-373zM1015 1515q-89 0 -147.5 55.5t-58.5 142.5q0 88 59 144.5t149 56.5q89 0 148 -55.5t59 -141.5q-1 -88 -60 -145t-149 -57zM1015 1639q34 0 56 21.5t21 55.5 q0 33 -21.5 54t-53.5 21q-34 0 -55.5 -22t-21.5 -56q0 -32 21.5 -53t53.5 -21zM1101 2177h285l-195 -194h-245z" glyph-name="Aringacute" horiz-adv-x="1446" unicode="Ǻ"/><glyph d="M510 223q77 0 137 44.5t74 111.5l18 81l-198 -6q-79 -3 -126 -36.5t-47 -88.5q0 -48 39.5 -77t102.5 -29zM358 -16q-137 0 -229.5 84t-92.5 212q0 167 130 264.5t357 104.5l258 8l13 64q4 23 4 36q0 47 -41 75.5t-110 28.5q-67 0 -112 -28t-60 -78h-316 q31 165 169.5 262.5t342.5 97.5q207 0 335 -91t128 -237q0 -43 -8 -89l-149 -698h-333l28 129h-7q-44 -66 -125.5 -105.5t-181.5 -39.5zM684 1723l186 222h279l-226 -222h-239zM743 1206q-98 0 -161.5 60.5t-63.5 156.5q0 97 64 159t163 62t162.5 -60.5t62.5 -156.5 q0 -96 -64 -158.5t-163 -62.5zM661 1424q0 -37 23 -60t59 -23q37 0 61 24t24 62q-1 36 -24 59.5t-59 23.5q-37 0 -60.5 -24t-23.5 -62z" glyph-name="aringacute" horiz-adv-x="1143" unicode="ǻ"/><glyph d="M1126 1167h-120l-339 -575h337zM878 0l69 327h-431l-194 -327h-371l873 1443h1337l-63 -295h-646l-61 -290h609l-58 -270h-609l-62 -293h645l-62 -295h-976zM1629 1556h-284l295 314h326z" glyph-name="AEacute" horiz-adv-x="2035" unicode="Ǽ"/><glyph d="M1242 -26q-117 0 -222.5 54t-146.5 135h-16q-63 -88 -175 -138.5t-240 -50.5q-176 0 -289 86.5t-113 219.5q0 170 127 266.5t360 102.5l258 8l13 64q3 15 3 36q0 46 -41.5 75t-108.5 29q-141 0 -173 -106h-316q31 162 166 261t328 99q102 0 197 -39t141 -101h16 q65 67 154 103.5t187 36.5q208 0 341.5 -131t133.5 -336q0 -90 -16 -179h-751v-18q0 -106 56.5 -168.5t152.5 -62.5q73 0 123 34t69 97h320q-44 -173 -189.5 -275t-348.5 -102zM1094 667h417q4 10 4 31q0 76 -49.5 123.5t-127.5 47.5q-89 0 -155 -55.5t-89 -146.5zM514 218 q78 0 138.5 44t75.5 111l18 82l-201 -7q-79 -3 -125.5 -36.5t-46.5 -88.5q0 -46 39 -75.5t102 -29.5zM1266 1259h-277l293 316h312z" glyph-name="aeacute" horiz-adv-x="1847" unicode="ǽ"/><glyph d="M1445 1870l-337 -314h-284l295 314h326zM1195 911l-577 -577q72 -61 174 -61q112 0 206 74.5t148.5 202t54.5 279.5q0 43 -6 82zM516 532l577 577q-72 61 -175 61q-112 0 -206 -74.5t-148 -202.5t-54 -279q0 -43 6 -82zM1627 1343l-147 -147q93 -148 93 -346 q0 -190 -62 -354t-168 -278t-251.5 -178.5t-309.5 -64.5q-238 0 -405 118l-143 -143l-150 150l148 148q-94 149 -94 345q0 190 61 354t166.5 277.5t251 178.5t309.5 65q243 0 408 -118l143 143z" glyph-name="Oslashacute" horiz-adv-x="1570" unicode="Ǿ"/><glyph d="M1268 1575l-328 -316h-277l293 316h312zM889 653l-389 -389q46 -40 110 -40q120 0 200 114.5t80 284.5q0 20 -1 30zM425 433l391 391q-46 41 -110 41q-122 0 -202 -113t-80 -286q0 -22 1 -33zM1130 1138l122 -122l-106 -106q83 -120 83 -286q0 -139 -47.5 -260 t-130 -206.5t-200 -134.5t-252.5 -49q-177 0 -305 84l-107 -107l-122 122l105 105q-82 121 -82 287q0 139 47.5 260t130 206.5t200 134.5t252.5 49q177 0 305 -84z" glyph-name="oslashacute" horiz-adv-x="1251" unicode="ǿ"/><glyph d="M890 1121l-276 -540h324l-40 540h-8zM977 0l-24 317h-471l-163 -317h-388l804 1443h449l166 -1443h-373zM632 1556l-204 314h296l163 -314h-255zM1067 1556l-205 314h297l163 -314h-255z" glyph-name="Adblgrave" horiz-adv-x="1446" unicode="Ȁ"/><glyph d="M510 223q77 0 137 44.5t74 111.5l18 81l-198 -6q-79 -3 -126 -36.5t-47 -88.5q0 -48 39.5 -77t102.5 -29zM358 -16q-137 0 -229.5 84t-92.5 212q0 167 130 264.5t357 104.5l258 8l13 64q4 23 4 36q0 47 -41 75.5t-110 28.5q-67 0 -112 -28t-60 -78h-316 q31 165 169.5 262.5t342.5 97.5q207 0 335 -91t128 -237q0 -43 -8 -89l-149 -698h-333l28 129h-7q-44 -66 -125.5 -105.5t-181.5 -39.5zM682 1260h-244l-204 315h277zM1081 1260h-244l-203 315h276z" glyph-name="adblgrave" horiz-adv-x="1143" unicode="ȁ"/><glyph d="M890 1121l-276 -540h324l-40 540h-8zM977 0l-24 317h-471l-163 -317h-388l804 1443h449l166 -1443h-373zM1355 1537h-206q4 15 4 35q0 58 -36 91.5t-102 33.5q-76 0 -129.5 -44t-71.5 -116h-215q36 144 154 236t292 92q150 0 233.5 -74.5t83.5 -189.5q0 -29 -7 -64z" glyph-name="Ainvertedbreve" horiz-adv-x="1446" unicode="Ȃ"/><glyph d="M510 223q77 0 137 44.5t74 111.5l18 81l-198 -6q-79 -3 -126 -36.5t-47 -88.5q0 -48 39.5 -77t102.5 -29zM358 -16q-137 0 -229.5 84t-92.5 212q0 167 130 264.5t357 104.5l258 8l13 64q4 23 4 36q0 47 -41 75.5t-110 28.5q-67 0 -112 -28t-60 -78h-316 q31 165 169.5 262.5t342.5 97.5q207 0 335 -91t128 -237q0 -43 -8 -89l-149 -698h-333l28 129h-7q-44 -66 -125.5 -105.5t-181.5 -39.5zM1078 1227h-207q4 24 4 36q0 59 -36.5 92t-101.5 33q-74 0 -128.5 -43.5t-72.5 -117.5h-213q35 152 153 240.5t292 88.5 q138 0 227 -75.5t89 -193.5q0 -16 -6 -60z" glyph-name="ainvertedbreve" horiz-adv-x="1143" unicode="ȃ"/><glyph d="M1084 295l-62 -295h-989l307 1443h988l-63 -295h-621l-61 -288h584l-58 -270h-584l-63 -295h622zM487 1556l-204 314h296l163 -314h-255zM922 1556l-205 314h297l163 -314h-255z" glyph-name="Edblgrave" horiz-adv-x="1191" unicode="Ȅ"/><glyph d="M436 667h417q3 9 3 31q0 74 -49 122.5t-132 48.5q-86 0 -151 -56t-88 -146zM589 -25q-231 0 -365 132.5t-134 361.5q0 183 74.5 330t211.5 231.5t313 84.5q217 0 350 -128t133 -340q0 -103 -17 -178h-751q-3 -17 -3 -33q0 -94 55 -153t149 -59q74 0 127 34.5t73 92.5h321 q-43 -170 -187 -273t-350 -103zM696 1260h-244l-204 315h277zM1095 1260h-244l-203 315h276z" glyph-name="edblgrave" horiz-adv-x="1193" unicode="ȅ"/><glyph d="M1084 295l-62 -295h-989l307 1443h988l-63 -295h-621l-61 -288h584l-58 -270h-584l-63 -295h622zM1210 1537h-206q4 15 4 35q0 58 -36 91.5t-102 33.5q-76 0 -129.5 -44t-71.5 -116h-215q36 144 154 236t292 92q150 0 233.5 -74.5t83.5 -189.5q0 -29 -7 -64z" glyph-name="Einvertedbreve" horiz-adv-x="1191" unicode="Ȇ"/><glyph d="M436 667h417q3 9 3 31q0 74 -49 122.5t-132 48.5q-86 0 -151 -56t-88 -146zM589 -25q-231 0 -365 132.5t-134 361.5q0 183 74.5 330t211.5 231.5t313 84.5q217 0 350 -128t133 -340q0 -103 -17 -178h-751q-3 -17 -3 -33q0 -94 55 -153t149 -59q74 0 127 34.5t73 92.5h321 q-43 -170 -187 -273t-350 -103zM1092 1227h-207q4 24 4 36q0 59 -36.5 92t-101.5 33q-74 0 -128.5 -43.5t-72.5 -117.5h-213q35 152 153 240.5t292 88.5q138 0 227 -75.5t89 -193.5q0 -16 -6 -60z" glyph-name="einvertedbreve" horiz-adv-x="1193" unicode="ȇ"/><glyph d="M400 0h-367l307 1443h367zM197 1556l-204 314h296l163 -314h-255zM632 1556l-205 314h297l163 -314h-255z" glyph-name="Idblgrave" horiz-adv-x="598" unicode="Ȉ"/><glyph d="M9 0l232 1089h345l-232 -1089h-345zM423 1260h-244l-204 315h277zM822 1260h-244l-203 315h276z" glyph-name="idblgrave" horiz-adv-x="529" unicode="ȉ"/><glyph d="M400 0h-367l307 1443h367zM920 1537h-206q4 15 4 35q0 58 -36 91.5t-102 33.5q-76 0 -129.5 -44t-71.5 -116h-215q36 144 154 236t292 92q150 0 233.5 -74.5t83.5 -189.5q0 -29 -7 -64z" glyph-name="Iinvertedbreve" horiz-adv-x="598" unicode="Ȋ"/><glyph d="M9 0l232 1089h345l-232 -1089h-345zM819 1227h-207q4 24 4 36q0 59 -36.5 92t-101.5 33q-74 0 -128.5 -43.5t-72.5 -117.5h-213q35 152 153 240.5t292 88.5q138 0 227 -75.5t89 -193.5q0 -16 -6 -60z" glyph-name="iinvertedbreve" horiz-adv-x="529" unicode="ȋ"/><glyph d="M918 1170q-112 0 -206 -74.5t-148 -202.5t-54 -279q0 -155 77 -248t205 -93q112 0 206 74.5t148.5 202t54.5 279.5q0 156 -77 248.5t-206 92.5zM782 -25q-147 0 -269 46.5t-203.5 128.5t-126.5 196t-45 247q0 190 61 354t166.5 277.5t251 178.5t309.5 65 q150 0 272.5 -46.5t204.5 -129t126 -196t44 -246.5q0 -190 -62 -354t-168 -278t-251.5 -178.5t-309.5 -64.5zM613 1556l-204 314h296l163 -314h-255zM1048 1556l-205 314h297l163 -314h-255z" glyph-name="Odblgrave" horiz-adv-x="1570" unicode="Ȍ"/><glyph d="M613 242q113 0 189 108t76 267q0 104 -48 167t-127 63q-115 0 -190.5 -106.5t-75.5 -268.5q0 -104 48 -167t128 -63zM718 1115q229 0 370 -135.5t141 -355.5q0 -139 -47.5 -260t-130 -206.5t-200 -134.5t-252.5 -49q-229 0 -370 135t-141 356q0 139 47.5 260t130 206.5 t200 134.5t252.5 49zM723 1260h-244l-204 315h277zM1122 1260h-244l-203 315h276z" glyph-name="odblgrave" horiz-adv-x="1251" unicode="ȍ"/><glyph d="M918 1170q-112 0 -206 -74.5t-148 -202.5t-54 -279q0 -155 77 -248t205 -93q112 0 206 74.5t148.5 202t54.5 279.5q0 156 -77 248.5t-206 92.5zM782 -25q-147 0 -269 46.5t-203.5 128.5t-126.5 196t-45 247q0 190 61 354t166.5 277.5t251 178.5t309.5 65 q150 0 272.5 -46.5t204.5 -129t126 -196t44 -246.5q0 -190 -62 -354t-168 -278t-251.5 -178.5t-309.5 -64.5zM1336 1537h-206q4 15 4 35q0 58 -36 91.5t-102 33.5q-76 0 -129.5 -44t-71.5 -116h-215q36 144 154 236t292 92q150 0 233.5 -74.5t83.5 -189.5q0 -29 -7 -64z" glyph-name="Oinvertedbreve" horiz-adv-x="1570" unicode="Ȏ"/><glyph d="M613 242q113 0 189 108t76 267q0 104 -48 167t-127 63q-115 0 -190.5 -106.5t-75.5 -268.5q0 -104 48 -167t128 -63zM718 1115q229 0 370 -135.5t141 -355.5q0 -139 -47.5 -260t-130 -206.5t-200 -134.5t-252.5 -49q-229 0 -370 135t-141 356q0 139 47.5 260t130 206.5 t200 134.5t252.5 49zM1119 1227h-207q4 24 4 36q0 59 -36.5 92t-101.5 33q-74 0 -128.5 -43.5t-72.5 -117.5h-213q35 152 153 240.5t292 88.5q138 0 227 -75.5t89 -193.5q0 -16 -6 -60z" glyph-name="oinvertedbreve" horiz-adv-x="1251" unicode="ȏ"/><glyph d="M1175 1556h-255l-205 314h297zM740 1556h-255l-204 314h296zM562 764h226q118 0 190 64t72 165q0 84 -51 128.5t-145 44.5h-205zM340 1443h615q217 0 340.5 -116t123.5 -303q0 -161 -92.5 -294t-257.5 -189l169 -541h-382l-149 505h-200l-107 -505h-367z" glyph-name="Rdblgrave" horiz-adv-x="1365" unicode="Ȑ"/><glyph d="M6 0l233 1089h335l-31 -155h7q41 78 112.5 124.5t160.5 46.5q83 0 144 -28l-66 -301q-75 36 -157 36q-219 0 -270 -239l-123 -573h-345zM578 1261h-244l-204 315h277zM977 1261h-244l-203 315h276z" glyph-name="rdblgrave" horiz-adv-x="848" unicode="ȑ"/><glyph d="M1208 1537h-206q4 15 4 35q0 58 -36 91.5t-102 33.5q-76 0 -129.5 -44t-71.5 -116h-215q36 144 154 236t292 92q150 0 233.5 -74.5t83.5 -189.5q0 -29 -7 -64zM562 764h226q118 0 190 64t72 165q0 84 -51 128.5t-145 44.5h-205zM340 1443h615q217 0 340.5 -116 t123.5 -303q0 -161 -92.5 -294t-257.5 -189l169 -541h-382l-149 505h-200l-107 -505h-367z" glyph-name="Rinvertedbreve" horiz-adv-x="1365" unicode="Ȓ"/><glyph d="M6 0l233 1089h335l-31 -155h7q41 78 112.5 124.5t160.5 46.5q83 0 144 -28l-66 -301q-75 36 -157 36q-219 0 -270 -239l-123 -573h-345zM973 1227h-207q4 24 4 36q0 59 -36.5 92t-101.5 33q-74 0 -128.5 -43.5t-72.5 -117.5h-213q35 152 153 240.5t292 88.5 q138 0 227 -75.5t89 -193.5q0 -16 -6 -60z" glyph-name="rinvertedbreve" horiz-adv-x="848" unicode="ȓ"/><glyph d="M732 -25q-272 0 -430 132.5t-158 346.5q-1 56 13 125l183 864h367l-182 -858q-10 -47 -10 -91q1 -96 67 -151.5t172 -55.5q108 0 180.5 64.5t97.5 184.5l192 907h367l-209 -987q-47 -225 -221 -353t-429 -128zM628 1556l-204 314h296l163 -314h-255zM1063 1556l-205 314 h297l163 -314h-255z" glyph-name="Udblgrave" horiz-adv-x="1484" unicode="Ȕ"/><glyph d="M1301 1089l-232 -1089h-333l37 172h-7q-48 -90 -141 -144t-207 -54q-155 0 -247.5 87t-92.5 230q0 73 15 141l139 657h344l-129 -601q-7 -42 -7 -73q0 -77 42 -117.5t120 -40.5q83 0 141.5 54.5t78.5 148.5l134 629h345zM774 1260h-244l-204 315h277zM1173 1260h-244 l-203 315h276z" glyph-name="udblgrave" horiz-adv-x="1241" unicode="ȕ"/><glyph d="M732 -25q-272 0 -430 132.5t-158 346.5q-1 56 13 125l183 864h367l-182 -858q-10 -47 -10 -91q1 -96 67 -151.5t172 -55.5q108 0 180.5 64.5t97.5 184.5l192 907h367l-209 -987q-47 -225 -221 -353t-429 -128zM1351 1537h-206q4 15 4 35q0 58 -36 91.5t-102 33.5 q-76 0 -129.5 -44t-71.5 -116h-215q36 144 154 236t292 92q150 0 233.5 -74.5t83.5 -189.5q0 -29 -7 -64z" glyph-name="Uinvertedbreve" horiz-adv-x="1484" unicode="Ȗ"/><glyph d="M1301 1089l-232 -1089h-333l37 172h-7q-48 -90 -141 -144t-207 -54q-155 0 -247.5 87t-92.5 230q0 73 15 141l139 657h344l-129 -601q-7 -42 -7 -73q0 -77 42 -117.5t120 -40.5q83 0 141.5 54.5t78.5 148.5l134 629h345zM1170 1227h-207q4 24 4 36q0 59 -36.5 92 t-101.5 33q-74 0 -128.5 -43.5t-72.5 -117.5h-213q35 152 153 240.5t292 88.5q138 0 227 -75.5t89 -193.5q0 -16 -6 -60z" glyph-name="uinvertedbreve" horiz-adv-x="1241" unicode="ȗ"/><glyph d="M71 425h349q11 -75 83.5 -123t179.5 -48q103 0 166.5 40.5t63.5 109.5q0 55 -39 89t-146 67l-138 42q-183 56 -274.5 153.5t-91.5 243.5q0 210 162.5 339.5t416.5 129.5q267 0 422.5 -119.5t156.5 -328.5h-338q-3 77 -66 123.5t-167 46.5q-98 0 -156 -42t-58 -104 q0 -54 41.5 -91t137.5 -65l143 -43q194 -57 281.5 -147.5t87.5 -240.5q0 -215 -167.5 -348.5t-444.5 -133.5q-278 0 -440.5 119t-164.5 331zM506 -475h-267l211 330h313z" glyph-name="Scommaaccent" horiz-adv-x="1347" unicode="Ș"/><glyph d="M165 757q0 161 130.5 259t346.5 98q204 0 334.5 -100t135.5 -259h-310q-4 56 -49.5 91.5t-115.5 35.5q-66 0 -105.5 -26t-39.5 -69q0 -36 30.5 -59t113.5 -51l116 -38q154 -52 219.5 -120t65.5 -178q0 -165 -135.5 -266t-358.5 -101q-226 0 -363.5 101t-144.5 270h327 q5 -62 56.5 -99.5t134.5 -37.5q66 0 104.5 26t38.5 70q0 34 -29 55.5t-109 48.5l-98 33q-152 50 -223.5 127t-71.5 189zM381 -475h-267l211 330h313z" glyph-name="scommaaccent" horiz-adv-x="1108" unicode="ș"/><glyph d="M743 0h-368l244 1148h-416l63 295h1199l-63 -295h-416zM397 -475h-267l211 330h313z" glyph-name="Tcommaaccent" horiz-adv-x="1284" unicode="Ț"/><glyph d="M524 -14q-169 0 -262.5 61t-93.5 179q0 58 11 114l99 468h-163l56 256h162l56 262h343l-55 -262h217l-54 -256h-217l-92 -429q-6 -25 -6 -56q0 -46 31 -67t98 -21q51 0 72 6l-53 -242q-50 -13 -149 -13zM294 -475h-267l211 330h313z" glyph-name="tcommaaccent" horiz-adv-x="813" unicode="ț"/><glyph d="M1341 0h-375l125 584h-559l-124 -584h-375l307 1443h375l-122 -568h559l121 568h375zM879 1542l-192 327h247l103 -192h8l184 192h253l-332 -327h-271z" glyph-name="Hcaron" horiz-adv-x="1540" unicode="Ȟ"/><glyph d="M13 0l307 1443h343l-112 -520h7q59 88 149.5 137.5t204.5 49.5q150 0 242.5 -86t92.5 -221q0 -61 -15 -132l-142 -671h-342l131 617q9 44 9 76q0 66 -46.5 108t-121.5 42q-83 0 -146 -56t-82 -145l-136 -642h-343zM378 1542l-192 327h247l103 -192h8l184 192h253 l-332 -327h-271z" glyph-name="hcaron" horiz-adv-x="1257" unicode="ȟ"/><glyph d="M890 1121l-276 -540h324l-40 540h-8zM977 0l-24 317h-471l-163 -317h-388l804 1443h449l166 -1443h-373zM1026 1605q-69 0 -116.5 47.5t-47.5 113.5q0 67 47.5 114.5t116.5 47.5t117 -47.5t48 -114.5q0 -66 -48 -113.5t-117 -47.5z" glyph-name="Adotaccent" horiz-adv-x="1446" unicode="Ȧ"/><glyph d="M510 223q77 0 137 44.5t74 111.5l18 81l-198 -6q-79 -3 -126 -36.5t-47 -88.5q0 -48 39.5 -77t102.5 -29zM358 -16q-137 0 -229.5 84t-92.5 212q0 167 130 264.5t357 104.5l258 8l13 64q4 23 4 36q0 47 -41 75.5t-110 28.5q-67 0 -112 -28t-60 -78h-316 q31 165 169.5 262.5t342.5 97.5q207 0 335 -91t128 -237q0 -43 -8 -89l-149 -698h-333l28 129h-7q-44 -66 -125.5 -105.5t-181.5 -39.5zM740 1251q-69 0 -116.5 47.5t-47.5 113.5q0 67 47.5 114.5t116.5 47.5t117 -47.5t48 -114.5q0 -66 -48 -113.5t-117 -47.5z" glyph-name="adotaccent" horiz-adv-x="1143" unicode="ȧ"/><glyph d="M1265 1148h-621l-61 -288h584l-58 -270h-584l-63 -295h622l-62 -295h-389l-66 -91q73 -7 111.5 -45t38.5 -103q0 -99 -87 -163t-222 -64q-100 0 -147 18l32 150q50 -15 117 -15q115 0 115 52q0 25 -27 35t-94 10h-58l26 113l76 103h-415l307 1443h988z" glyph-name="Ecedilla" horiz-adv-x="1191" unicode="Ȩ"/><glyph d="M436 667h417q3 9 3 31q0 74 -49 122.5t-132 48.5q-86 0 -151 -56t-88 -146zM1155 469h-751q-3 -17 -3 -33q0 -94 55 -153t149 -59q74 0 127 34.5t73 92.5h321q-39 -154 -162 -254t-301 -118l-51 -70q73 -7 111.5 -45t38.5 -103q0 -99 -87 -163t-222 -64q-100 0 -147 18 l32 150q50 -15 117 -15q115 0 115 52q0 25 -27 35t-94 10h-58l26 113l64 86q-184 30 -287.5 158t-103.5 328q0 183 74.5 330t211.5 231.5t313 84.5q217 0 350 -128t133 -340q0 -103 -17 -178z" glyph-name="ecedilla" horiz-adv-x="1193" unicode="ȩ"/><glyph d="M918 1170q-112 0 -206 -74.5t-148 -202.5t-54 -279q0 -155 77 -248t205 -93q112 0 206 74.5t148.5 202t54.5 279.5q0 156 -77 248.5t-206 92.5zM782 -25q-147 0 -269 46.5t-203.5 128.5t-126.5 196t-45 247q0 190 61 354t166.5 277.5t251 178.5t309.5 65 q150 0 272.5 -46.5t204.5 -129t126 -196t44 -246.5q0 -190 -62 -354t-168 -278t-251.5 -178.5t-309.5 -64.5zM779 1819q62 0 103.5 -40.5t41.5 -98.5t-41.5 -99t-103.5 -41t-104 41t-42 99t42 98.5t104 40.5zM1440 2098l-35 -165h-721l35 165h721zM1202 1819 q62 0 103.5 -40.5t41.5 -98.5t-41.5 -99t-103.5 -41t-104 41t-42 99t42 98.5t104 40.5z" glyph-name="Odieresismacron" horiz-adv-x="1570" unicode="Ȫ"/><glyph d="M613 242q113 0 189 108t76 267q0 104 -48 167t-127 63q-115 0 -190.5 -106.5t-75.5 -268.5q0 -104 48 -167t128 -63zM718 1115q229 0 370 -135.5t141 -355.5q0 -139 -47.5 -260t-130 -206.5t-200 -134.5t-252.5 -49q-229 0 -370 135t-141 356q0 139 47.5 260t130 206.5 t200 134.5t252.5 49zM568 1228q-60 0 -100 39t-40 95t40 95t100 39t100 -39t40 -95t-40 -95t-100 -39zM975 1228q-59 0 -99 39t-40 95t40 95t99 39q60 0 100 -39t40 -95t-40 -95t-100 -39zM1218 1793l-35 -165h-673l35 165h673z" glyph-name="odieresismacron" horiz-adv-x="1251" unicode="ȫ"/><glyph d="M918 1170q-112 0 -206 -74.5t-148 -202.5t-54 -279q0 -155 77 -248t205 -93q112 0 206 74.5t148.5 202t54.5 279.5q0 156 -77 248.5t-206 92.5zM782 -25q-147 0 -269 46.5t-203.5 128.5t-126.5 196t-45 247q0 190 61 354t166.5 277.5t251 178.5t309.5 65 q150 0 272.5 -46.5t204.5 -129t126 -196t44 -246.5q0 -190 -62 -354t-168 -278t-251.5 -178.5t-309.5 -64.5zM1440 2098l-35 -165h-721l35 165h721zM1115 1537q-47 0 -87.5 20t-63.5 44t-50 44t-50 20q-31 0 -56.5 -29t-37.5 -79h-181q26 128 102.5 204t178.5 76 q47 0 87.5 -20t63.5 -43.5t49.5 -43.5t49.5 -20q33 0 58 29t38 83h182q-27 -129 -104.5 -207t-178.5 -78z" glyph-name="Otildemacron" horiz-adv-x="1570" unicode="Ȭ"/><glyph d="M613 242q113 0 189 108t76 267q0 104 -48 167t-127 63q-115 0 -190.5 -106.5t-75.5 -268.5q0 -104 48 -167t128 -63zM718 1115q229 0 370 -135.5t141 -355.5q0 -139 -47.5 -260t-130 -206.5t-200 -134.5t-252.5 -49q-229 0 -370 135t-141 356q0 139 47.5 260t130 206.5 t200 134.5t252.5 49zM909 1221q-48 0 -88.5 20t-63 43.5t-50 43.5t-53.5 20q-31 0 -55 -29.5t-37 -81.5h-184q26 130 101.5 207t176.5 77q49 0 90 -20t63 -43.5t49.5 -43.5t53.5 -20q63 0 92 115h184q-28 -131 -104 -209.5t-175 -78.5zM1218 1793l-35 -165h-673l35 165h673z" glyph-name="otildemacron" horiz-adv-x="1251" unicode="ȭ"/><glyph d="M918 1170q-112 0 -206 -74.5t-148 -202.5t-54 -279q0 -155 77 -248t205 -93q112 0 206 74.5t148.5 202t54.5 279.5q0 156 -77 248.5t-206 92.5zM782 -25q-147 0 -269 46.5t-203.5 128.5t-126.5 196t-45 247q0 190 61 354t166.5 277.5t251 178.5t309.5 65 q150 0 272.5 -46.5t204.5 -129t126 -196t44 -246.5q0 -190 -62 -354t-168 -278t-251.5 -178.5t-309.5 -64.5zM1007 1605q-69 0 -116.5 47.5t-47.5 113.5q0 67 47.5 114.5t116.5 47.5t117 -47.5t48 -114.5q0 -66 -48 -113.5t-117 -47.5z" glyph-name="Odotaccent" horiz-adv-x="1570" unicode="Ȯ"/><glyph d="M613 242q113 0 189 108t76 267q0 104 -48 167t-127 63q-115 0 -190.5 -106.5t-75.5 -268.5q0 -104 48 -167t128 -63zM718 1115q229 0 370 -135.5t141 -355.5q0 -139 -47.5 -260t-130 -206.5t-200 -134.5t-252.5 -49q-229 0 -370 135t-141 356q0 139 47.5 260t130 206.5 t200 134.5t252.5 49zM781 1251q-69 0 -116.5 47.5t-47.5 113.5q0 67 47.5 114.5t116.5 47.5t117 -47.5t48 -114.5q0 -66 -48 -113.5t-117 -47.5z" glyph-name="odotaccent" horiz-adv-x="1251" unicode="ȯ"/><glyph d="M918 1170q-112 0 -206 -74.5t-148 -202.5t-54 -279q0 -155 77 -248t205 -93q112 0 206 74.5t148.5 202t54.5 279.5q0 156 -77 248.5t-206 92.5zM782 -25q-147 0 -269 46.5t-203.5 128.5t-126.5 196t-45 247q0 190 61 354t166.5 277.5t251 178.5t309.5 65 q150 0 272.5 -46.5t204.5 -129t126 -196t44 -246.5q0 -190 -62 -354t-168 -278t-251.5 -178.5t-309.5 -64.5zM992 1546q-64 0 -106.5 41.5t-42.5 100.5q0 60 42.5 101.5t106.5 41.5q63 0 105.5 -41.5t42.5 -101.5q0 -59 -42.5 -100.5t-105.5 -41.5zM1440 2098l-35 -165h-721 l35 165h721z" glyph-name="Odotaccentmacron" horiz-adv-x="1570" unicode="Ȱ"/><glyph d="M613 242q113 0 189 108t76 267q0 104 -48 167t-127 63q-115 0 -190.5 -106.5t-75.5 -268.5q0 -104 48 -167t128 -63zM718 1115q229 0 370 -135.5t141 -355.5q0 -139 -47.5 -260t-130 -206.5t-200 -134.5t-252.5 -49q-229 0 -370 135t-141 356q0 139 47.5 260t130 206.5 t200 134.5t252.5 49zM776 1216q-69 0 -116.5 47t-47.5 113q0 67 47.5 113.5t116.5 46.5t116 -46.5t47 -113.5q0 -66 -47 -113t-116 -47zM1218 1793l-35 -165h-673l35 165h673z" glyph-name="odotaccentmacron" horiz-adv-x="1251" unicode="ȱ"/><glyph d="M796 0h-367l105 498l-296 945h380l164 -602h8l409 602h400l-699 -951zM1347 1778l-35 -165h-721l35 165h721z" glyph-name="Ymacron" horiz-adv-x="1389" unicode="Ȳ"/><glyph d="M81 -399q-132 0 -144 4l55 267q9 -3 104 -3q159 0 180 114q0 3 4 17.5t3 16.5l-125 1072h352l29 -818h7l377 818h367l-587 -1102q-111 -209 -256 -297.5t-366 -88.5zM1145 1443l-35 -165h-673l35 165h673z" glyph-name="ymacron" horiz-adv-x="1152" unicode="ȳ"/><glyph d="M584 1089l-247 -1159q-33 -153 -148 -238t-285 -85q-84 0 -151 14l54 247q34 -6 66 -6q107 0 128 103l239 1124h344z" glyph-name="dotlessj" horiz-adv-x="526" unicode="ȷ"/><glyph d="M472 851h-257l189 592h326z" glyph-name="quoteright" horiz-adv-x="623" unicode="ʼ"/><glyph d="M472 851h-257l189 592h326z" glyph-name="quoteright" horiz-adv-x="623" unicode="’"/><glyph d="M917 1572l189 -327h-245l-97 183h-7l-175 -183h-266l329 327h272z" glyph-name="circumflex" horiz-adv-x="1059" unicode="ˆ"/><glyph d="M846 1245h-271l-190 327h244l97 -184h7l175 184h267z" glyph-name="caron" horiz-adv-x="1059" unicode="ˇ"/><glyph d="M402 1571h207q-4 -24 -4 -36q0 -59 36.5 -92t101.5 -33q74 0 128.5 43.5t72.5 117.5h213q-35 -152 -153 -240.5t-292 -88.5q-138 0 -227 75.5t-89 193.5q0 27 6 60z" glyph-name="breve" horiz-adv-x="1060" unicode="˘"/><glyph d="M746 1251q-69 0 -116.5 47.5t-47.5 113.5q0 67 47.5 114.5t116.5 47.5t117 -47.5t48 -114.5q0 -66 -48 -113.5t-117 -47.5z" glyph-name="dotaccent" horiz-adv-x="1059" unicode="˙"/><glyph d="M752 1215q-95 0 -163 64.5t-68 158.5q0 95 68.5 161t164.5 66q95 0 162.5 -64.5t67.5 -158.5t-68 -160.5t-164 -66.5zM752 1351q38 0 65 26t27 64t-26.5 64t-63.5 26q-38 0 -65 -26.5t-27 -65.5q0 -37 26.5 -62.5t63.5 -25.5z" glyph-name="ring" horiz-adv-x="1059" unicode="˚"/><glyph d="M616 -275l-37 -177q-48 -12 -111 -12q-124 0 -199.5 57t-75.5 150q0 87 67.5 163t185.5 123l190 -24q-196 -93 -196 -191q0 -44 35 -68t99 -24q32 0 42 3z" glyph-name="ogonek" horiz-adv-x="1059" unicode="˛"/><glyph d="M870 1248q-48 0 -88.5 20t-63 43.5t-50 43.5t-53.5 20q-31 0 -55 -29.5t-37 -81.5h-184q26 130 101.5 207t176.5 77q49 0 90 -20t63 -43.5t49.5 -43.5t53.5 -20q63 0 92 115h184q-28 -131 -104 -209.5t-175 -78.5z" glyph-name="tilde" horiz-adv-x="1059" unicode="˜"/><glyph d="M683 1260l253 315h281l-285 -315h-249zM278 1260l253 315h281l-286 -315h-248z" glyph-name="hungarumlaut" horiz-adv-x="1059" unicode="˝"/><glyph d="M306 1259h-273l-193 316h307z" glyph-name="gravecmb" unicode="̀"/><glyph d="M375 1259h-277l293 316h312z" glyph-name="acutecmb" unicode="́"/><glyph d="M400 1572l189 -327h-245l-97 183h-7l-175 -183h-266l329 327h272z" glyph-name="circumflexcmb" unicode="̂"/><glyph d="M351 1248q-48 0 -88.5 20t-63 43.5t-50 43.5t-53.5 20q-31 0 -55 -29.5t-37 -81.5h-184q26 130 101.5 207t176.5 77q49 0 90 -20t63 -43.5t49.5 -43.5t53.5 -20q63 0 92 115h184q-28 -131 -104 -209.5t-175 -78.5z" glyph-name="tildecmb" unicode="̃"/><glyph d="M578 1442l-35 -165h-673l35 165h673z" glyph-name="macroncmb" unicode="̄"/><glyph d="M-111 1571h207q-4 -24 -4 -36q0 -59 36.5 -92t101.5 -33q74 0 128.5 43.5t72.5 117.5h213q-35 -152 -153 -240.5t-292 -88.5q-138 0 -227 75.5t-89 193.5q0 27 6 60z" glyph-name="brevecmb" unicode="̆"/><glyph d="M216 1251q-69 0 -116.5 47.5t-47.5 113.5q0 67 47.5 114.5t116.5 47.5t117 -47.5t48 -114.5q0 -66 -48 -113.5t-117 -47.5z" glyph-name="dotaccentcmb" unicode="̇"/><glyph d="M20 1246q-60 0 -100 38.5t-40 94.5t40 95t100 39q59 0 99 -39t40 -95t-40 -94.5t-99 -38.5zM427 1246q-60 0 -100 38.5t-40 94.5t40 95t100 39t100 -39t40 -95t-40 -94.5t-100 -38.5z" glyph-name="dieresiscmb" unicode="̈"/><glyph d="M66 1515l38 156q58 20 134 20q98 0 159.5 -52t61.5 -134q0 -93 -66 -172t-174 -116l-75 127q111 42 111 116q0 32 -25 51.5t-66 19.5q-59 0 -98 -16z" glyph-name="hookabovecmb" unicode="̉"/><glyph d="M234 1215q-95 0 -163 64.5t-68 158.5q0 95 68.5 161t164.5 66q95 0 162.5 -64.5t67.5 -158.5t-68 -160.5t-164 -66.5zM234 1351q38 0 65 26t27 64t-26.5 64t-63.5 26q-38 0 -65 -26.5t-27 -65.5q0 -37 26.5 -62.5t63.5 -25.5z" glyph-name="ringcmb" unicode="̊"/><glyph d="M332 1260l253 315h281l-285 -315h-249zM-73 1260l253 315h281l-286 -315h-248z" glyph-name="hungarumlautcmb" unicode="̋"/><glyph d="M332 1245h-271l-190 327h244l97 -184h7l175 184h267z" glyph-name="caroncmb" unicode="̌"/><glyph d="M158 1260h-244l-204 315h277zM557 1260h-244l-203 315h276z" glyph-name="dblgravecmb" unicode="̏"/><glyph d="M557 1242h-207q4 24 4 36q0 59 -36.5 92t-101.5 33q-74 0 -128.5 -43.5t-72.5 -117.5h-213q35 152 153 240.5t292 88.5q138 0 227 -75.5t89 -193.5q0 -16 -6 -60z" glyph-name="invertedbrevecmb" unicode="̑"/><glyph d="M-80 884l50 235q19 -12 49 -12q34 0 55.5 22.5t33.5 76.5l35 166h268l-48 -224q-30 -140 -112 -212.5t-201 -72.5q-93 0 -130 21z" glyph-name="horncmb" unicode="̛"/><glyph d="M-149 -470q-69 0 -116.5 47.5t-47.5 113.5q0 67 47.5 114.5t116.5 47.5t117 -47.5t48 -114.5q0 -66 -48 -113.5t-117 -47.5z" glyph-name="dotbelowcmb" unicode="̣"/><glyph d="M-352 -443q-60 0 -100 39t-40 95t40 95t100 39q59 0 99 -39t40 -95t-40 -95t-99 -39zM55 -443q-60 0 -100 39t-40 95t40 95t100 39q59 0 99 -39t40 -95t-40 -95t-99 -39z" glyph-name="dieresisbelowcmb" unicode="̤"/><glyph d="M-138 -535q-95 0 -163 64.5t-68 158.5q0 95 68.5 161t164.5 66q95 0 162.5 -64.5t67.5 -158.5t-68 -160.5t-164 -66.5zM-138 -399q38 0 65 26t27 64t-26.5 64t-63.5 26q-38 0 -65 -26.5t-27 -65.5q0 -37 26.5 -62.5t63.5 -25.5z" glyph-name="ringbelowcmb" unicode="̥"/><glyph d="M-246 -475h-267l211 330h313z" glyph-name="commabelowcmb" unicode="̦"/><glyph d="M-285 -216l26 113l86 117h177l-2 -14l-66 -91q73 -7 111.5 -45t38.5 -103q0 -99 -87 -163t-222 -64q-100 0 -147 18l32 150q50 -15 117 -15q115 0 115 52q0 25 -27 35t-94 10h-58z" glyph-name="cedillacmb" unicode="̧"/><glyph d="M61 -275l-37 -177q-48 -12 -111 -12q-124 0 -199.5 57t-75.5 150q0 87 67.5 163t185.5 123l190 -24q-196 -93 -196 -191q0 -44 35 -68t99 -24q31 0 42 3z" glyph-name="ogonekcmb" unicode="̨"/><glyph d="M15 -165l192 -327h-247l-103 192h-8l-184 -192h-253l331 327h272z" glyph-name="circumflexbelowcmb" unicode="̭"/><glyph d="M-491 -145h205q-4 -24 -4 -36q0 -58 35.5 -91t102.5 -33q77 0 130 43.5t71 116.5h215q-36 -145 -153.5 -236.5t-292.5 -91.5q-150 0 -233 74.5t-83 188.5q0 36 7 65z" glyph-name="brevebelowcmb" unicode="̮"/><glyph d="M-11 -460q-48 0 -88.5 20t-63 43.5t-50 43.5t-53.5 20q-31 0 -55 -29.5t-37 -81.5h-184q26 130 101.5 207t176.5 77q49 0 90 -20t63 -43.5t49.5 -43.5t53.5 -20q63 0 92 115h184q-28 -131 -104 -209.5t-175 -78.5z" glyph-name="tildebelowcmb" unicode="̰"/><glyph d="M230 -226l-35 -165h-721l35 165h721z" glyph-name="macronbelowcmb" unicode="̱"/><glyph d="M230 -226l-35 -165h-721l35 165h721z" glyph-name="macronbelowcmb" unicode="̲"/><glyph d="M402 692q-77 0 -131.5 54t-54.5 131t54.5 131.5t131.5 54.5t131 -54.5t54 -131.5t-54 -131t-131 -54zM200 -331h-258l189 592h327z" glyph-name="greekquestionmark" horiz-adv-x="595" unicode=";"/><glyph d="M428 1255l152 331h352l-228 -331h-276z" glyph-name="tonosgreek" horiz-adv-x="863" unicode="΄"/><glyph d="M994 1248h-223l93 333h335zM1325 1236q-63 0 -105 41t-42 100q-1 59 41.5 100t105.5 41t105 -41t42 -100t-42 -100t-105 -41zM578 1236q-62 0 -104.5 41.5t-42.5 99.5q0 59 42 100t105 41t105 -41t43 -100q0 -58 -42.5 -99.5t-105.5 -41.5z" glyph-name="dieresistonosgreek" horiz-adv-x="1497" unicode="΅"/><glyph d="M890 1121l-276 -540h324l-40 540h-8zM977 0l-24 317h-471l-163 -317h-388l804 1443h449l166 -1443h-373zM79 1112l152 331h351l-227 -331h-276z" glyph-name="Alphatonosgreek" horiz-adv-x="1446" unicode="Ά"/><glyph d="M391 643q-77 0 -131.5 54.5t-54.5 131.5t54.5 131.5t131.5 54.5t131.5 -54.5t54.5 -131.5t-54.5 -131.5t-131.5 -54.5z" glyph-name="anoteleia" horiz-adv-x="595" unicode="·"/><glyph d="M153 1112l152 331h351l-227 -331h-276zM1522 295l-62 -295h-989l307 1443h988l-63 -295h-621l-61 -288h584l-58 -270h-584l-63 -295h622z" glyph-name="Epsilontonosgreek" horiz-adv-x="1629" unicode="Έ"/><glyph d="M153 1112l152 331h351l-227 -331h-276zM1779 0h-375l125 584h-559l-124 -584h-375l307 1443h375l-122 -568h559l121 568h375z" glyph-name="Etatonosgreek" horiz-adv-x="1978" unicode="Ή"/><glyph d="M153 1112l152 331h351l-227 -331h-276zM838 0h-367l307 1443h367z" glyph-name="Iotatonosgreek" horiz-adv-x="1037" unicode="Ί"/><glyph d="M153 1112l152 331h351l-227 -331h-276zM1201 1170q-112 0 -206 -74.5t-148 -202.5t-54 -279q0 -155 77 -248t205 -93q112 0 206 74.5t148.5 202t54.5 279.5q0 156 -77 248.5t-206 92.5zM1065 -25q-147 0 -269 46.5t-203.5 128.5t-126.5 196t-45 247q0 190 61 354 t166.5 277.5t251 178.5t309.5 65q150 0 272.5 -46.5t204.5 -129t126 -196t44 -246.5q0 -190 -62 -354t-168 -278t-251.5 -178.5t-309.5 -64.5z" glyph-name="Omicrontonosgreek" horiz-adv-x="1853" unicode="Ό"/><glyph d="M254 1112l152 331h351l-227 -331h-276zM1380 0h-367l105 498l-296 945h380l164 -602h8l409 602h400l-699 -951z" glyph-name="Upsilontonosgreek" horiz-adv-x="1973" unicode="Ύ"/><glyph d="M153 1112l152 331h351l-227 -331h-276zM1156 0l72 342q166 71 258.5 204.5t92.5 301.5q0 145 -89.5 234t-232.5 89q-186 0 -302 -131.5t-116 -344.5q0 -119 44.5 -203.5t137.5 -149.5l-72 -342h-605l59 280h275l1 7q-100 75 -153 182t-53 230q0 179 63.5 325.5t174.5 243 t260.5 149t322.5 52.5q290 0 466 -156.5t176 -412.5q0 -191 -101.5 -356.5t-280.5 -255.5l-2 -8h291l-60 -280h-627z" glyph-name="Omegatonosgreek" horiz-adv-x="1928" unicode="Ώ"/><glyph d="M579 1088l-153 -709q-6 -34 -6 -56q0 -46 31 -67t98 -21q53 0 72 6l-53 -242q-54 -13 -148 -13q-170 0 -263.5 61.5t-93.5 178.5q0 59 12 114l160 748h344zM547 1230h-223l93 333h335zM878 1218q-63 0 -105 41t-42 100q-1 59 41.5 100t105.5 41t105 -41t42 -100t-42 -100 t-105 -41zM131 1218q-62 0 -104.5 41.5t-42.5 99.5q0 59 42 100t105 41t105 -41t43 -100q0 -58 -42.5 -99.5t-105.5 -41.5z" glyph-name="iotadieresistonosgreek" horiz-adv-x="687" unicode="ΐ"/><glyph d="M890 1121l-276 -540h324l-40 540h-8zM977 0l-24 317h-471l-163 -317h-388l804 1443h449l166 -1443h-373z" glyph-name="Alphagreek" horiz-adv-x="1446" unicode="Α"/><glyph d="M778 0h-745l307 1443h631q200 0 311 -86.5t111 -223.5q0 -141 -93 -242.5t-241 -131.5l-1 -7q118 -25 190.5 -104t72.5 -188q0 -201 -152.5 -330.5t-390.5 -129.5zM648 1205l-71 -334h208q107 0 174 55t67 140q0 65 -47.5 102t-136.5 37h-194zM448 260h246 q118 0 188.5 59.5t70.5 157.5q0 75 -52.5 116t-152.5 41h-221z" glyph-name="Betagreek" horiz-adv-x="1366" unicode="Β"/><glyph d="M414 0h-381l307 1443h961l-63 -295h-580z" glyph-name="Gammagreek" horiz-adv-x="1129" unicode="Γ"/><glyph d="M1315 0h-1325l41 196l714 1247h449l162 -1249zM896 1145l-447 -843l-1 -7h536l1 7l-81 843h-8z" glyph-name="Deltagreek" horiz-adv-x="1466" unicode="Δ"/><glyph d="M1315 0h-1325l41 196l714 1247h449l162 -1249zM896 1145l-447 -843l-1 -7h536l1 7l-81 843h-8z" glyph-name="Deltagreek" horiz-adv-x="1466" unicode="∆"/><glyph d="M1084 295l-62 -295h-989l307 1443h988l-63 -295h-621l-61 -288h584l-58 -270h-584l-63 -295h622z" glyph-name="Epsilongreek" horiz-adv-x="1191" unicode="Ε"/><glyph d="M-5 0l50 233l838 908v7h-634l64 295h1087l-50 -233l-838 -908v-7h666l-62 -295h-1121z" glyph-name="Zetagreek" horiz-adv-x="1277" unicode="Ζ"/><glyph d="M1341 0h-375l125 584h-559l-124 -584h-375l307 1443h375l-122 -568h559l121 568h375z" glyph-name="Etagreek" horiz-adv-x="1540" unicode="Η"/><glyph d="M1085 575h-456l58 281h457zM800 -25q-303 0 -482 170.5t-179 459.5q0 249 105.5 445.5t296.5 306.5t436 110q304 0 482.5 -170t178.5 -459q0 -250 -105.5 -446.5t-296.5 -306.5t-436 -110zM1274 828q0 163 -85 256.5t-236 93.5q-127 0 -230.5 -75t-161.5 -204.5 t-58 -285.5q0 -162 84.5 -254.5t235.5 -92.5q128 0 231.5 74.5t161.5 203.5t58 284z" glyph-name="Thetagreek" horiz-adv-x="1636" unicode="Θ"/><glyph d="M400 0h-367l307 1443h367z" glyph-name="Iotagreek" horiz-adv-x="598" unicode="Ι"/><glyph d="M400 0h-367l307 1443h367l-131 -616h7l611 616h423l-660 -669l354 -774h-404l-254 566l-169 -168z" glyph-name="Kappagreek" horiz-adv-x="1410" unicode="Κ"/><glyph d="M880 1121l-550 -1121h-389l784 1443h449l146 -1443h-372l-60 1121h-8z" glyph-name="Lambdagreek" horiz-adv-x="1425" unicode="Λ"/><glyph d="M359 0h-326l307 1443h422l148 -978h7l550 978h458l-307 -1443h-327l205 959h-11l-548 -957h-223l-144 957h-7z" glyph-name="Mugreek" horiz-adv-x="1816" unicode="Μ"/><glyph d="M385 0h-352l307 1443h288l426 -882h7l186 882h353l-307 -1443h-288l-426 882h-7z" glyph-name="Nugreek" horiz-adv-x="1491" unicode="Ν"/><glyph d="M310 1443h1103l-65 -304h-1103zM1144 584h-929l59 279h929zM68 304h1103l-65 -304h-1103z" glyph-name="Xigreek" horiz-adv-x="1275" unicode="Ξ"/><glyph d="M918 1170q-112 0 -206 -74.5t-148 -202.5t-54 -279q0 -155 77 -248t205 -93q112 0 206 74.5t148.5 202t54.5 279.5q0 156 -77 248.5t-206 92.5zM782 -25q-147 0 -269 46.5t-203.5 128.5t-126.5 196t-45 247q0 190 61 354t166.5 277.5t251 178.5t309.5 65 q150 0 272.5 -46.5t204.5 -129t126 -196t44 -246.5q0 -190 -62 -354t-168 -278t-251.5 -178.5t-309.5 -64.5z" glyph-name="Omicrongreek" horiz-adv-x="1570" unicode="Ο"/><glyph d="M1321 0h-374l244 1148h-539l-245 -1148h-374l307 1443h1288z" glyph-name="Pigreek" horiz-adv-x="1520" unicode="Π"/><glyph d="M340 1443h537q234 0 369 -118.5t135 -316.5q0 -270 -177 -427.5t-474 -157.5h-239l-90 -423h-367zM647 1161l-98 -461h181q127 0 204.5 76.5t77.5 198.5q0 92 -54.5 139t-156.5 47h-154z" glyph-name="Rhogreek" horiz-adv-x="1326" unicode="Ρ"/><glyph d="M514 301l-1 -7h682l-63 -294h-1137l45 213l448 517l-216 464l54 249h1090l-63 -295h-629l-1 -7l165 -394l-5 -18z" glyph-name="Sigmagreek" horiz-adv-x="1293" unicode="Σ"/><glyph d="M743 0h-368l244 1148h-416l63 295h1199l-63 -295h-416z" glyph-name="Taugreek" horiz-adv-x="1284" unicode="Τ"/><glyph d="M796 0h-367l105 498l-296 945h380l164 -602h8l409 602h400l-699 -951z" glyph-name="Upsilongreek" horiz-adv-x="1389" unicode="Υ"/><glyph d="M679 -131l33 153q-276 35 -426.5 196.5t-150.5 403.5q0 158 59 295.5t168.5 241.5t275 169t368.5 76l31 151h332l-34 -159q272 -33 425 -193.5t153 -409.5q0 -157 -59.5 -294t-169.5 -240.5t-275.5 -168t-366.5 -75.5l-32 -146h-331zM772 303l174 821 q-208 -26 -331.5 -155.5t-123.5 -343.5q0 -135 74 -218.5t207 -103.5zM1101 294q213 27 334 158.5t121 340.5q0 136 -74.5 219.5t-206.5 102.5z" glyph-name="Phigreek" horiz-adv-x="1912" unicode="Φ"/><glyph d="M-54 0l620 729l-311 714h395l191 -453h8l354 453h429l-623 -726l312 -717h-395l-194 458h-8l-358 -458h-420z" glyph-name="Chigreek" horiz-adv-x="1435" unicode="Χ"/><glyph d="M981 0h-343l62 292q-245 19 -374 130.5t-129 306.5q0 63 13 125l125 589h344l-116 -552q-18 -82 -18 -122q0 -94 52 -139t164 -50l184 863h343l-186 -874q150 13 222 76t101 200l128 598h345l-135 -636q-55 -258 -225.5 -383.5t-496.5 -141.5z" glyph-name="Psigreek" horiz-adv-x="1785" unicode="Ψ"/><glyph d="M836 0l72 342q166 71 258.5 204.5t92.5 301.5q0 145 -89.5 234t-232.5 89q-186 0 -302 -131.5t-116 -344.5q0 -119 44.5 -203.5t137.5 -149.5l-72 -342h-605l59 280h275l1 7q-100 75 -153 182t-53 230q0 179 63.5 325.5t174.5 243t260.5 149t322.5 52.5q290 0 466 -156.5 t176 -412.5q0 -191 -101.5 -356.5t-280.5 -255.5l-2 -8h291l-60 -280h-627z" glyph-name="Omegagreek" horiz-adv-x="1608" unicode="Ω"/><glyph d="M836 0l72 342q166 71 258.5 204.5t92.5 301.5q0 145 -89.5 234t-232.5 89q-186 0 -302 -131.5t-116 -344.5q0 -119 44.5 -203.5t137.5 -149.5l-72 -342h-605l59 280h275l1 7q-100 75 -153 182t-53 230q0 179 63.5 325.5t174.5 243t260.5 149t322.5 52.5q290 0 466 -156.5 t176 -412.5q0 -191 -101.5 -356.5t-280.5 -255.5l-2 -8h291l-60 -280h-627z" glyph-name="Omegagreek" horiz-adv-x="1608" unicode="Ω"/><glyph d="M400 0h-367l307 1443h367zM375 1573q-60 0 -100 38.5t-40 94.5t40 95t100 39q59 0 99 -39t40 -95t-40 -94.5t-99 -38.5zM782 1573q-60 0 -100 38.5t-40 94.5t40 95t100 39t100 -39t40 -95t-40 -94.5t-100 -38.5z" glyph-name="Iotadieresisgreek" horiz-adv-x="598" unicode="Ϊ"/><glyph d="M796 0h-367l105 498l-296 945h380l164 -602h8l409 602h400l-699 -951zM766 1573q-60 0 -100 38.5t-40 94.5t40 95t100 39q59 0 99 -39t40 -95t-40 -94.5t-99 -38.5zM1173 1573q-60 0 -100 38.5t-40 94.5t40 95t100 39t100 -39t40 -95t-40 -94.5t-100 -38.5z" glyph-name="Upsilondieresisgreek" horiz-adv-x="1389" unicode="Ϋ"/><glyph d="M430 -16q-167 0 -266.5 113t-99.5 311q0 150 41 280t112.5 221.5t171.5 143.5t214 52q122 0 206 -57.5t117 -146.5h8l39 188h335l-154 -723q-9 -42 -9 -64q0 -32 17.5 -46.5t56.5 -14.5q32 0 57 9l-51 -238q-62 -20 -154 -20q-149 0 -210.5 43.5t-61.5 146.5v9h-5 q-64 -99 -156.5 -153t-207.5 -54zM590 249q107 0 183.5 109t76.5 263q0 99 -49 155t-126 56q-104 0 -180 -104.5t-76 -264.5q0 -100 49.5 -157t121.5 -57zM614 1255l152 331h352l-228 -331h-276z" glyph-name="alphatonosgreek" horiz-adv-x="1351" unicode="ά"/><glyph d="M513 -24q-475 0 -475 298q0 100 65 174.5t176 104.5l3 15q-68 30 -104.5 80.5t-36.5 113.5q0 163 146.5 257t396.5 94q497 0 516 -389h-340q-6 69 -50 101.5t-146 32.5q-81 0 -129 -26.5t-48 -79.5q0 -44 35.5 -65t113.5 -21h147l-48 -234h-167q-168 0 -168 -104 q0 -47 42.5 -72t120.5 -25q193 0 257 151h354q-44 -182 -225.5 -294t-435.5 -112zM643 1255l152 331h352l-228 -331h-276z" glyph-name="epsilontonosgreek" horiz-adv-x="1210" unicode="έ"/><glyph d="M768 -352l207 969q8 40 8 72q0 68 -46 110t-118 42q-83 0 -145 -55t-81 -148l-136 -638h-342l154 726q8 38 8 58q0 69 -75 69q-37 0 -60 -9l51 239q59 19 173 19q129 0 192.5 -49.5t72.5 -147.5q0 -1 0.5 -2.5t0.5 -5v-5.5l1 -2h7q51 106 148 164t221 58q148 0 240 -84.5 t92 -226.5q0 -68 -13 -133l-218 -1020h-342zM763 1255l152 331h352l-228 -331h-276z" glyph-name="etatonosgreek" horiz-adv-x="1356" unicode="ή"/><glyph d="M579 1088l-153 -709q-6 -34 -6 -56q0 -46 31 -67t98 -21q53 0 72 6l-53 -242q-54 -13 -148 -13q-170 0 -263.5 61.5t-93.5 178.5q0 59 12 114l160 748h344zM318 1254l152 331h352l-228 -331h-276z" glyph-name="iotatonosgreek" horiz-adv-x="687" unicode="ί"/><glyph d="M843 1089h322q13 -68 13 -167q0 -444 -180.5 -696t-499.5 -252q-200 0 -312.5 96t-112.5 264q0 71 28 202l117 553h321l-121 -569q-18 -83 -18 -127q2 -138 150 -138q138 0 219 185t81 501q0 79 -7 148zM823 1230h-223l93 333h335zM1154 1218q-63 0 -105 41t-42 100 q-1 59 41.5 100t105.5 41t105 -41t42 -100t-42 -100t-105 -41zM407 1218q-62 0 -104.5 41.5t-42.5 99.5q0 59 42 100t105 41t105 -41t43 -100q0 -58 -42.5 -99.5t-105.5 -41.5z" glyph-name="upsilondieresistonosgreek" horiz-adv-x="1165" unicode="ΰ"/><glyph d="M430 -16q-167 0 -266.5 113t-99.5 311q0 150 41 280t112.5 221.5t171.5 143.5t214 52q122 0 206 -57.5t117 -146.5h8l39 188h335l-154 -723q-9 -42 -9 -64q0 -32 17.5 -46.5t56.5 -14.5q32 0 57 9l-51 -238q-62 -20 -154 -20q-149 0 -210.5 43.5t-61.5 146.5v9h-5 q-64 -99 -156.5 -153t-207.5 -54zM590 249q107 0 183.5 109t76.5 263q0 99 -49 155t-126 56q-104 0 -180 -104.5t-76 -264.5q0 -100 49.5 -157t121.5 -57z" glyph-name="alphagreek" horiz-adv-x="1351" unicode="α"/><glyph d="M203 935q61 285 198 409.5t390 124.5q208 0 333 -99.5t125 -267.5q0 -122 -65 -206t-182 -117l-2 -6q124 -30 189 -110.5t65 -202.5q0 -211 -139 -343.5t-368 -132.5q-121 0 -211.5 56.5t-136.5 161.5h-8l-119 -554h-342zM587 641l52 243h75q99 0 156.5 46t57.5 136 q0 66 -43 103t-115 37q-166 0 -215 -221l-95 -440q-11 -50 -11 -88q0 -91 60 -146.5t162 -55.5q100 0 166.5 59.5t66.5 150.5q0 86 -61.5 131t-172.5 45h-83z" glyph-name="betagreek" horiz-adv-x="1301" unicode="β"/><glyph d="M1264 1090q-6 -91 -26 -176q-47 -228 -182 -444.5t-414 -511.5l-65 -307h-336l58 274l-141 1165h346l60 -818h4q149 175 227.5 322t114.5 318q21 94 27 178h327z" glyph-name="gammagreek" horiz-adv-x="1188" unicode="γ"/><glyph d="M564 -26q-229 0 -366 117.5t-137 317.5q0 213 122 349.5t334 173.5l1 3l1 4q-145 84 -145 221q0 141 118.5 224.5t321.5 83.5q127 0 244 -28.5t187 -75.5l-61 -231q-173 91 -322 91q-124 0 -124 -86q0 -27 21 -50.5t77 -59.5q136 -91 207.5 -158t108.5 -148t37 -189 q0 -116 -45.5 -218.5t-125.5 -178t-198 -119t-256 -43.5zM577 213q110 0 179 92t69 245q0 94 -43.5 147.5t-118.5 53.5q-109 0 -180 -91.5t-71 -244.5q0 -95 44.5 -148.5t120.5 -53.5z" glyph-name="deltagreek" horiz-adv-x="1220" unicode="δ"/><glyph d="M513 -24q-475 0 -475 298q0 100 65 174.5t176 104.5l3 15q-68 30 -104.5 80.5t-36.5 113.5q0 163 146.5 257t396.5 94q497 0 516 -389h-340q-6 69 -50 101.5t-146 32.5q-81 0 -129 -26.5t-48 -79.5q0 -44 35.5 -65t113.5 -21h147l-48 -234h-167q-168 0 -168 -104 q0 -47 42.5 -72t120.5 -25q193 0 257 151h354q-44 -182 -225.5 -294t-435.5 -112z" glyph-name="epsilongreek" horiz-adv-x="1210" unicode="ε"/><glyph d="M714 -402l-230 87q68 75 89.5 110t21.5 84q0 45 -28.5 73t-117.5 73q-218 111 -303 210.5t-85 246.5q0 198 136 366t418 325l1 7h-370l58 265h823l14 -209q-730 -377 -730 -681q0 -88 43.5 -136.5t178.5 -113.5q174 -87 234 -153.5t60 -172.5q0 -91 -52 -181.5 t-161 -199.5z" glyph-name="zetagreek" horiz-adv-x="981" unicode="ζ"/><glyph d="M768 -352l207 969q8 40 8 72q0 68 -46 110t-118 42q-83 0 -145 -55t-81 -148l-136 -638h-342l154 726q8 38 8 58q0 69 -75 69q-37 0 -60 -9l51 239q59 19 173 19q129 0 192.5 -49.5t72.5 -147.5q0 -1 0.5 -2.5t0.5 -5v-5.5l1 -2h7q51 106 148 164t221 58q148 0 240 -84.5 t92 -226.5q0 -68 -13 -133l-218 -1020h-342z" glyph-name="etagreek" horiz-adv-x="1356" unicode="η"/><glyph d="M586 -26q-241 0 -365.5 132.5t-124.5 388.5q0 120 22 244q65 360 237 544.5t441 184.5q239 0 363.5 -131.5t124.5 -385.5q0 -103 -24 -251q-124 -726 -674 -726zM598 213q111 0 183 95.5t112 300.5h-449q-16 -96 -16 -160q0 -113 42.5 -174.5t127.5 -61.5zM487 846h447 q13 78 13 139q0 120 -43.5 183t-125.5 63q-214 0 -291 -385z" glyph-name="thetagreek" horiz-adv-x="1273" unicode="θ"/><glyph d="M579 1088l-153 -709q-6 -34 -6 -56q0 -46 31 -67t98 -21q53 0 72 6l-53 -242q-54 -13 -148 -13q-170 0 -263.5 61.5t-93.5 178.5q0 59 12 114l160 748h344z" glyph-name="iotagreek" horiz-adv-x="687" unicode="ι"/><glyph d="M1136 1102q99 0 148 -19l-51 -239q-32 9 -64 9q-37 0 -69 -19t-80 -68l-169 -168l256 -598h-328l-176 425l-216 -197l-46 -228h-337l232 1090h337l-98 -459h6l314 305q102 99 169.5 132.5t171.5 33.5z" glyph-name="kappagreek" horiz-adv-x="1215" unicode="κ"/><glyph d="M1098 241q32 0 57 9l-51 -238q-55 -20 -164 -20q-131 0 -190 54t-76 185l-44 339h-6l-333 -570h-357l648 1012l-5 34q-17 99 -57 135t-120 36q-43 0 -70 -9l52 239q58 20 138 20q90 0 148 -18t100.5 -66.5t67.5 -126.5t43 -205l96 -687q10 -71 36.5 -97t86.5 -26z" glyph-name="lambdagreek" horiz-adv-x="1171" unicode="λ"/><glyph d="M1264 1090q-6 -86 -26 -176q-48 -232 -177 -437t-381 -477h-391l-131 1090h346l60 -818h6q142 167 222.5 314t117.5 327q21 96 27 177h327z" glyph-name="nugreek" horiz-adv-x="1188" unicode="ν"/><glyph d="M725 -402l-231 87q61 73 82.5 110.5t21.5 76.5q0 49 -27.5 75t-118.5 71q-226 110 -309.5 193t-83.5 200t80 190t227 97l1 2q-72 32 -109 91t-37 131q0 194 259 256v2h-213l56 263h781l16 -245l-188 -17q-186 -17 -270 -57.5t-84 -115.5q0 -127 239 -127h165l-54 -250 h-249q-123 0 -188.5 -35.5t-65.5 -103.5q0 -53 44 -93.5t173 -104.5q175 -87 231.5 -148t56.5 -173q0 -86 -51 -183.5t-154 -191.5z" glyph-name="xigreek" horiz-adv-x="1014" unicode="ξ"/><glyph d="M613 242q113 0 189 108t76 267q0 104 -48 167t-127 63q-115 0 -190.5 -106.5t-75.5 -268.5q0 -104 48 -167t128 -63zM718 1115q229 0 370 -135.5t141 -355.5q0 -139 -47.5 -260t-130 -206.5t-200 -134.5t-252.5 -49q-229 0 -370 135t-141 356q0 139 47.5 260t130 206.5 t200 134.5t252.5 49z" glyph-name="omicrongreek" horiz-adv-x="1251" unicode="ο"/><glyph d="M825 309l110 516h-278l-176 -825h-327l175 825h-207l57 264h1368l-56 -264h-228l-98 -459q-7 -33 -7 -53q0 -73 97 -73q32 0 57 9l-51 -239q-66 -20 -152 -20q-143 0 -219.5 59.5t-76.5 168.5q0 34 12 91z" glyph-name="pigreek" horiz-adv-x="1442" unicode="π"/><glyph d="M618 255q113 0 187 105t74 279q0 103 -46.5 158.5t-129.5 55.5q-117 0 -190 -110t-73 -282q0 -101 46 -153.5t132 -52.5zM731 1115q244 0 373 -118t129 -337q0 -185 -72.5 -340.5t-197.5 -245.5t-275 -90q-118 0 -202 61.5t-110 156.5h-6l-118 -554h-343l183 863 q67 315 221.5 459.5t417.5 144.5z" glyph-name="rhogreek" horiz-adv-x="1235" unicode="ρ"/><glyph d="M944 -25q0 -86 -52.5 -177t-159.5 -200l-230 87q66 72 88.5 108.5t22.5 81.5q0 48 -27.5 76t-119.5 74q-212 105 -299.5 221t-87.5 282q0 169 74.5 302t214 209t322.5 76q223 0 355 -127.5t121 -322.5h-319q2 86 -44 138t-129 52q-107 0 -171.5 -80.5t-64.5 -200.5 q0 -88 48 -150.5t164 -118.5q178 -88 236 -153t58 -177z" glyph-name="sigmafinalgreek" horiz-adv-x="1109" unicode="ς"/><glyph d="M562 -26q-229 0 -362 129t-133 348q0 137 47.5 255.5t132 202.5t207 132t266.5 48h710l-58 -271h-261l-2 -6q69 -80 69 -212q0 -177 -78 -320t-219.5 -224.5t-318.5 -81.5zM576 231q112 0 184.5 105.5t72.5 261.5q0 216 -164 216q-108 0 -183 -105t-75 -261 q0 -217 165 -217z" glyph-name="sigmagreek" horiz-adv-x="1307" unicode="σ"/><glyph d="M872 241l-53 -242q-47 -13 -151 -13q-173 0 -267.5 61t-94.5 179q0 59 12 114l102 486h-316l56 263h1044l-55 -263h-385l-95 -447q-6 -34 -6 -56q0 -47 32 -67.5t105 -20.5q51 0 72 6z" glyph-name="taugreek" horiz-adv-x="1111" unicode="τ"/><glyph d="M843 1089h322q13 -68 13 -167q0 -444 -180.5 -696t-499.5 -252q-200 0 -312.5 96t-112.5 264q0 71 28 202l117 553h321l-121 -569q-18 -83 -18 -127q2 -138 150 -138q138 0 219 185t81 501q0 79 -7 148z" glyph-name="upsilongreek" horiz-adv-x="1165" unicode="υ"/><glyph d="M486 -352l70 329q-223 16 -358 144.5t-135 325.5q0 195 93 347t260 236.5t381 85.5l45 210h310l-46 -215q220 -16 355.5 -146t135.5 -327q0 -194 -93 -346t-260 -236t-380 -84l-68 -324h-310zM617 231l134 627q-164 -4 -263.5 -107t-99.5 -275q0 -108 60 -172t169 -73z M910 229q166 6 262.5 108t96.5 274q0 108 -59 172.5t-166 73.5z" glyph-name="phigreek" horiz-adv-x="1594" unicode="φ"/><glyph d="M853 -341q-106 0 -168 43.5t-95 137.5l-82 244h-10l-290 -417h-335l539 710l-127 351q-26 71 -51.5 98t-69.5 27q-36 0 -61 -9l51 240q72 18 158 18q105 0 164.5 -44.5t93.5 -146.5l89 -276h7l325 455h338l-566 -743l106 -307q28 -80 58 -105.5t86 -25.5q33 0 57 8 l-51 -239q-63 -19 -166 -19z" glyph-name="chigreek" horiz-adv-x="1168" unicode="χ"/><glyph d="M787 -352h-324l70 328q-230 3 -345 97t-115 269q0 60 19 152l126 595h321l-117 -548q-22 -102 -22 -136q0 -76 42.5 -111t149.5 -37l228 1069h324l-227 -1066q92 0 161.5 51t110.5 143.5t61 213t20 270.5q0 55 -8 151h322q14 -76 14 -167q0 -163 -23.5 -300.5 t-78.5 -258.5t-139 -205.5t-211.5 -133t-289.5 -48.5z" glyph-name="psigreek" horiz-adv-x="1584" unicode="ψ"/><glyph d="M1611 641q0 -191 -67.5 -343.5t-187 -238t-268.5 -85.5q-136 0 -214.5 60t-92.5 179h-6q-55 -123 -137.5 -181t-205.5 -58q-176 0 -271.5 106t-95.5 300q0 201 81 391.5t221 317.5h339q-149 -149 -230 -323.5t-81 -349.5q0 -73 31.5 -116.5t85.5 -43.5q122 0 156 158 l77 364h305l-67 -315q-14 -69 -14 -100q0 -50 27.5 -78.5t75.5 -28.5q95 0 151 104.5t56 282.5q0 229 -86 446h333q85 -208 85 -448z" glyph-name="omegagreek" horiz-adv-x="1633" unicode="ω"/><glyph d="M579 1088l-153 -709q-6 -34 -6 -56q0 -46 31 -67t98 -21q53 0 72 6l-53 -242q-54 -13 -148 -13q-170 0 -263.5 61.5t-93.5 178.5q0 59 12 114l160 748h344zM286 1245q-60 0 -100 38.5t-40 94.5t40 95t100 39q59 0 99 -39t40 -95t-40 -94.5t-99 -38.5zM693 1245 q-60 0 -100 38.5t-40 94.5t40 95t100 39t100 -39t40 -95t-40 -94.5t-100 -38.5z" glyph-name="iotadieresisgreek" horiz-adv-x="687" unicode="ϊ"/><glyph d="M843 1089h322q13 -68 13 -167q0 -444 -180.5 -696t-499.5 -252q-200 0 -312.5 96t-112.5 264q0 71 28 202l117 553h321l-121 -569q-18 -83 -18 -127q2 -138 150 -138q138 0 219 185t81 501q0 79 -7 148zM561 1246q-60 0 -100 38.5t-40 94.5t40 95t100 39q59 0 99 -39 t40 -95t-40 -94.5t-99 -38.5zM968 1246q-60 0 -100 38.5t-40 94.5t40 95t100 39t100 -39t40 -95t-40 -94.5t-100 -38.5z" glyph-name="upsilondieresisgreek" horiz-adv-x="1165" unicode="ϋ"/><glyph d="M613 242q113 0 189 108t76 267q0 104 -48 167t-127 63q-115 0 -190.5 -106.5t-75.5 -268.5q0 -104 48 -167t128 -63zM718 1115q229 0 370 -135.5t141 -355.5q0 -139 -47.5 -260t-130 -206.5t-200 -134.5t-252.5 -49q-229 0 -370 135t-141 356q0 139 47.5 260t130 206.5 t200 134.5t252.5 49zM618 1255l152 331h352l-228 -331h-276z" glyph-name="omicrontonosgreek" horiz-adv-x="1251" unicode="ό"/><glyph d="M843 1089h322q13 -68 13 -167q0 -444 -180.5 -696t-499.5 -252q-200 0 -312.5 96t-112.5 264q0 71 28 202l117 553h321l-121 -569q-18 -83 -18 -127q2 -138 150 -138q138 0 219 185t81 501q0 79 -7 148zM594 1255l152 331h352l-228 -331h-276z" glyph-name="upsilontonosgreek" horiz-adv-x="1165" unicode="ύ"/><glyph d="M1611 641q0 -191 -67.5 -343.5t-187 -238t-268.5 -85.5q-136 0 -214.5 60t-92.5 179h-6q-55 -123 -137.5 -181t-205.5 -58q-176 0 -271.5 106t-95.5 300q0 201 81 391.5t221 317.5h339q-149 -149 -230 -323.5t-81 -349.5q0 -73 31.5 -116.5t85.5 -43.5q122 0 156 158 l77 364h305l-67 -315q-14 -69 -14 -100q0 -50 27.5 -78.5t75.5 -28.5q95 0 151 104.5t56 282.5q0 229 -86 446h333q85 -208 85 -448zM869 1255l152 331h352l-228 -331h-276z" glyph-name="omegatonosgreek" horiz-adv-x="1633" unicode="ώ"/><glyph d="M1089 295l-62 -295h-989l307 1443h988l-63 -295h-621l-61 -288h584l-58 -270h-584l-63 -295h622zM714 1556l-205 314h297l163 -314h-255z" glyph-name="uni0400" horiz-adv-x="1201" unicode="Ѐ"/><glyph d="M1089 295l-62 -295h-989l307 1443h988l-63 -295h-621l-61 -288h584l-58 -270h-584l-63 -295h622zM670 1573q-60 0 -100 38.5t-40 94.5t40 95t100 39q59 0 99 -39t40 -95t-40 -94.5t-99 -38.5zM1077 1573q-60 0 -100 38.5t-40 94.5t40 95t100 39t100 -39t40 -95t-40 -94.5 t-100 -38.5z" glyph-name="Iocyrillic" horiz-adv-x="1201" unicode="Ё"/><glyph d="M380 0l244 1148h-400l63 295h1168l-63 -295h-401l-74 -350h17q129 108 312 108q217 0 339 -120t122 -309q0 -122 -44.5 -227t-125.5 -181t-201 -119.5t-265 -43.5q-131 0 -182 17l59 277q28 -11 123 -11q111 0 183 63.5t72 163.5q0 85 -55.5 134t-151.5 49 q-81 0 -155.5 -39t-117.5 -98l-98 -462h-368z" glyph-name="Djecyrillic" horiz-adv-x="1766" unicode="Ђ"/><glyph d="M404 0h-366l307 1443h971l-63 -295h-604zM978 1556h-284l295 314h326z" glyph-name="Gjecyrillic" horiz-adv-x="1156" unicode="Ѓ"/><glyph d="M1452 508q-56 -251 -246.5 -399t-459.5 -148q-293 0 -455 188t-142 515q10 240 109.5 425.5t273.5 289t396 103.5q171 0 309 -67t217 -187.5t79 -272.5v-27h-358q-7 113 -78.5 179t-186.5 66q-124 0 -225 -85t-138 -224h530l-58 -272h-507q-6 -151 69.5 -238t202.5 -87 q111 0 191.5 64.5t118.5 176.5h358z" glyph-name="Ecyrillic" horiz-adv-x="1499" unicode="Є"/><glyph d="M76 425h349q11 -75 83.5 -123t179.5 -48q103 0 166.5 40.5t63.5 109.5q0 55 -39 89t-146 67l-138 42q-183 56 -274.5 153.5t-91.5 243.5q0 210 162.5 339.5t416.5 129.5q267 0 422.5 -119.5t156.5 -328.5h-338q-3 77 -66 123.5t-167 46.5q-98 0 -156 -42t-58 -104 q0 -54 41.5 -91t137.5 -65l143 -43q194 -57 281.5 -147.5t87.5 -240.5q0 -215 -167.5 -348.5t-444.5 -133.5q-278 0 -440.5 119t-164.5 331z" glyph-name="Dzecyrillic" horiz-adv-x="1357" unicode="Ѕ"/><glyph d="M405 0h-367l307 1443h367z" glyph-name="Icyrillic" horiz-adv-x="608" unicode="І"/><glyph d="M405 0h-367l307 1443h367zM380 1573q-60 0 -100 38.5t-40 94.5t40 95t100 39q59 0 99 -39t40 -95t-40 -94.5t-99 -38.5zM787 1573q-60 0 -100 38.5t-40 94.5t40 95t100 39t100 -39t40 -95t-40 -94.5t-100 -38.5z" glyph-name="Yicyrillic" horiz-adv-x="608" unicode="Ї"/><glyph d="M49 409q0 34 3 60h351v-16q0 -75 41.5 -119t115.5 -44q145 0 184 186l206 967h368l-216 -1013q-47 -221 -187 -338t-361 -117q-228 0 -366.5 119.5t-138.5 314.5z" glyph-name="Jecyrillic" horiz-adv-x="1215" unicode="Ј"/><glyph d="M650 586q-40 -153 -86 -258t-114.5 -185.5t-163.5 -118.5t-223 -38q-82 0 -126 14l68 315q37 -8 72 -8q90 0 147.5 80t95.5 226l215 830h1057l-94 -438h170q240 0 374.5 -117t134.5 -327q0 -250 -176 -405.5t-469 -155.5h-615l245 1148h-364zM1592 723h-153l-95 -445h188 q122 0 200 70t78 180q0 95 -57.5 145t-160.5 50z" glyph-name="Ljecyrillic" horiz-adv-x="2215" unicode="Љ"/><glyph d="M922 0l129 605h-517l-129 -605h-366l307 1443h367l-118 -551h517l117 551h368l-117 -550h193q233 0 365.5 -103t132.5 -282q0 -227 -172 -367.5t-462 -140.5h-615zM1349 278h195q116 0 187 54t71 141q0 72 -52 108.5t-144 36.5h-185z" glyph-name="Njecyrillic" horiz-adv-x="2209" unicode="Њ"/><glyph d="M1114 599q-81 0 -151 -38.5t-117 -98.5l-98 -462h-368l244 1148h-400l63 295h1168l-63 -295h-401l-74 -350h10q60 48 145.5 78t179.5 30q244 0 352 -145.5t55 -396.5l-77 -364h-368l78 364q23 109 -22.5 172t-155.5 63z" glyph-name="Tshecyrillic" horiz-adv-x="1764" unicode="Ћ"/><glyph d="M1410 1870l-337 -314h-284l295 314h326zM1619 1443l-741 -741l446 -702h-411l-372 580h-12l-124 -580h-367l307 1443h367l-128 -601h10l600 601h425z" glyph-name="Kjecyrillic" horiz-adv-x="1429" unicode="Ќ"/><glyph d="M994 0l190 892h-19l-776 -892h-351l307 1443h359l-191 -893h19l777 893h351l-307 -1443h-359zM897 1556l-205 314h297l163 -314h-255z" glyph-name="uni040D" horiz-adv-x="1557" unicode="Ѝ"/><glyph d="M303 -15q-36 0 -69.5 3.5t-50 7t-18.5 5.5l62 290q18 -9 87 -9q119 0 193 81l-238 1080h384l114 -730h19l412 730h395l-667 -1040q-68 -105 -129 -177t-135.5 -129.5t-163 -84.5t-195.5 -27zM636 1868h212q-13 -69 22.5 -107.5t107.5 -38.5q75 0 126 38t67 108h212 q-32 -149 -137.5 -232t-276.5 -83q-176 0 -266.5 83.5t-66.5 231.5z" glyph-name="Ushortcyrillic" horiz-adv-x="1406" unicode="Ў"/><glyph d="M1333 0h-464l-61 -285h-311l61 285h-520l307 1443h366l-244 -1148h562l244 1148h367z" glyph-name="Dzhecyrillic" horiz-adv-x="1536" unicode="Џ"/><glyph d="M895 1121l-276 -540h324l-40 540h-8zM982 0l-24 317h-471l-163 -317h-388l804 1443h449l166 -1443h-373z" glyph-name="Acyrillic" horiz-adv-x="1456" unicode="А"/><glyph d="M653 0h-615l306 1443h1022l-63 -295h-653l-49 -230h187q240 0 374.5 -103t134.5 -288q0 -235 -176 -381t-468 -146zM464 278h188q123 0 201 60.5t78 155.5q0 76 -53.5 116.5t-152.5 40.5h-181z" glyph-name="Becyrillic" horiz-adv-x="1343" unicode="Б"/><glyph d="M783 0h-745l307 1443h631q200 0 311 -86.5t111 -223.5q0 -141 -93 -242.5t-241 -131.5l-1 -7q118 -25 190.5 -104t72.5 -188q0 -201 -152.5 -330.5t-390.5 -129.5zM653 1205l-71 -334h208q107 0 174 55t67 140q0 65 -47.5 102t-136.5 37h-194zM453 260h246 q118 0 188.5 59.5t70.5 157.5q0 75 -52.5 116t-152.5 41h-221z" glyph-name="Vecyrillic" horiz-adv-x="1376" unicode="В"/><glyph d="M404 0h-366l307 1443h971l-63 -295h-604z" glyph-name="Gecyrillic" horiz-adv-x="1156" unicode="Г"/><glyph d="M627 644q-68 -244 -156 -329l-4 -19h525l181 853h-405zM251 0l-61 -285h-329l124 581h98q81 54 126 137.5t89 242.5l210 767h1095l-244 -1147h180l-124 -581h-330l61 285h-895z" glyph-name="Decyrillic" horiz-adv-x="1581" unicode="Д"/><glyph d="M1089 295l-62 -295h-989l307 1443h988l-63 -295h-621l-61 -288h584l-58 -270h-584l-63 -295h622z" glyph-name="Iecyrillic" horiz-adv-x="1201" unicode="Е"/><glyph d="M926 580l-555 -580h-432l716 752l-353 691h376l306 -604h13l129 604h359l-129 -605h14l563 605h390l-692 -746l372 -697h-377l-310 580h-15l-123 -580h-359l123 580h-16z" glyph-name="Zhecyrillic" horiz-adv-x="2126" unicode="Ж"/><glyph d="M508 608l54 262h181q115 0 181 44.5t66 121.5q0 69 -55 110t-147 41q-86 0 -149 -43.5t-76 -110.5h-333q27 192 190.5 313.5t396.5 121.5q230 0 376 -108t146 -278q0 -136 -94 -235t-243 -119l-1 -7q118 -29 184 -108t66 -192q0 -195 -168.5 -320.5t-429.5 -125.5 q-137 0 -251.5 36.5t-190 100t-110.5 152.5t-18 190h338q-5 -86 62 -141t175 -55q102 0 169.5 53.5t67.5 133.5q0 76 -63.5 119.5t-174.5 43.5h-149z" glyph-name="Zecyrillic" horiz-adv-x="1323" unicode="З"/><glyph d="M994 0l190 892h-19l-776 -892h-351l307 1443h359l-191 -893h19l777 893h351l-307 -1443h-359z" glyph-name="Iicyrillic" horiz-adv-x="1557" unicode="И"/><glyph d="M994 0l190 892h-19l-776 -892h-351l307 1443h359l-191 -893h19l777 893h351l-307 -1443h-359zM716 1868h212q-13 -69 22.5 -107.5t107.5 -38.5q75 0 126 38t67 108h212q-32 -149 -137.5 -232t-276.5 -83q-176 0 -266.5 83.5t-66.5 231.5z" glyph-name="Iishortcyrillic" horiz-adv-x="1557" unicode="Й"/><glyph d="M1619 1443l-741 -741l446 -702h-411l-372 580h-12l-124 -580h-367l307 1443h367l-128 -601h10l600 601h425z" glyph-name="Kacyrillic" horiz-adv-x="1429" unicode="К"/><glyph d="M1287 0h-367l243 1148h-365l-148 -562q-39 -150 -85.5 -255t-115 -186t-164 -120t-222.5 -39q-82 0 -126 14l68 315q37 -8 72 -8q88 0 146.5 80t96.5 226l215 830h1059z" glyph-name="Elcyrillic" horiz-adv-x="1490" unicode="Л"/><glyph d="M364 0h-326l307 1443h422l148 -978h7l550 978h458l-307 -1443h-327l205 959h-11l-548 -957h-223l-144 957h-7z" glyph-name="Emcyrillic" horiz-adv-x="1826" unicode="М"/><glyph d="M1346 0h-375l125 584h-559l-124 -584h-375l307 1443h375l-122 -568h559l121 568h375z" glyph-name="Encyrillic" horiz-adv-x="1550" unicode="Н"/><glyph d="M923 1170q-112 0 -206 -74.5t-148 -202.5t-54 -279q0 -155 77 -248t205 -93q112 0 206 74.5t148.5 202t54.5 279.5q0 156 -77 248.5t-206 92.5zM787 -25q-147 0 -269 46.5t-203.5 128.5t-126.5 196t-45 247q0 190 61 354t166.5 277.5t251 178.5t309.5 65 q150 0 272.5 -46.5t204.5 -129t126 -196t44 -246.5q0 -190 -62 -354t-168 -278t-251.5 -178.5t-309.5 -64.5z" glyph-name="Ocyrillic" horiz-adv-x="1580" unicode="О"/><glyph d="M1333 0h-367l244 1148h-562l-243 -1148h-367l307 1443h1295z" glyph-name="Pecyrillic" horiz-adv-x="1536" unicode="П"/><glyph d="M345 1443h537q234 0 369 -118.5t135 -316.5q0 -270 -177 -427.5t-474 -157.5h-239l-90 -423h-367zM652 1161l-98 -461h181q127 0 204.5 76.5t77.5 198.5q0 92 -54.5 139t-156.5 47h-154z" glyph-name="Ercyrillic" horiz-adv-x="1336" unicode="Р"/><glyph d="M1191 889v37q-4 105 -78.5 173.5t-185.5 68.5q-179 0 -293 -157.5t-114 -403.5q0 -153 73.5 -241t200.5 -88q115 0 201.5 65t122.5 178h357q-43 -245 -236.5 -395.5t-467.5 -150.5q-286 0 -457 166.5t-171 444.5q0 262 101 462.5t287 310t430 109.5q255 0 421 -146.5 t169 -376.5q1 -27 -3 -56h-357z" glyph-name="Escyrillic" horiz-adv-x="1517" unicode="С"/><glyph d="M748 0h-368l244 1148h-416l63 295h1199l-63 -295h-416z" glyph-name="Tecyrillic" horiz-adv-x="1294" unicode="Т"/><glyph d="M303 -15q-36 0 -69.5 3.5t-50 7t-18.5 5.5l62 290q18 -9 87 -9q119 0 193 81l-238 1080h384l114 -730h19l412 730h395l-667 -1040q-68 -105 -129 -177t-135.5 -129.5t-163 -84.5t-195.5 -27z" glyph-name="Ucyrillic" horiz-adv-x="1406" unicode="У"/><glyph d="M1030 -35h-363l33 155q-261 10 -412.5 150.5t-151.5 370.5q0 300 223 485.5t597 198.5l33 153h363l-33 -153q261 -10 413 -151t152 -373q0 -297 -223.5 -482.5t-597.5 -198.5zM513 655q0 -111 65.5 -176.5t185.5 -72.5l135 634q-169 -10 -277.5 -117t-108.5 -268z M1507 782q0 116 -65 182.5t-186 74.5l-136 -633q170 10 278.5 115.5t108.5 260.5z" glyph-name="Efcyrillic" horiz-adv-x="1881" unicode="Ф"/><glyph d="M-49 0l620 729l-311 714h395l191 -453h8l354 453h429l-623 -726l312 -717h-395l-194 458h-8l-358 -458h-420z" glyph-name="Xacyrillic" horiz-adv-x="1445" unicode="Х"/><glyph d="M1454 -285h-330l61 285h-1146l307 1443h368l-245 -1148h560l244 1148h369l-245 -1148h180z" glyph-name="Tsecyrillic" horiz-adv-x="1628" unicode="Ц"/><glyph d="M1273 0h-367l120 565h-10q-144 -87 -345 -87q-163 0 -273 75.5t-150 209.5t-4 304l81 376h367l-82 -383q-28 -129 24.5 -201.5t183.5 -72.5q84 0 155.5 22.5t116.5 58.5l123 576h367z" glyph-name="Checyrillic" horiz-adv-x="1477" unicode="Ч"/><glyph d="M38 0l307 1443h367l-245 -1148h350l245 1148h367l-244 -1148h349l245 1148h368l-307 -1443h-1802z" glyph-name="Shacyrillic" horiz-adv-x="2043" unicode="Ш"/><glyph d="M1959 -285h-330l61 285h-1652l307 1443h367l-245 -1148h350l245 1148h367l-244 -1148h349l245 1148h368l-245 -1148h180z" glyph-name="Shchacyrillic" horiz-adv-x="2125" unicode="Щ"/><glyph d="M904 0h-615l245 1149h-338l63 294h705l-95 -443h170q240 0 374.5 -116t134.5 -327q0 -254 -176 -405.5t-468 -151.5zM963 718h-153l-94 -440h188q122 0 199.5 69.5t77.5 180.5q0 92 -57.5 141t-160.5 49z" glyph-name="Hardsigncyrillic" horiz-adv-x="1586" unicode="Ъ"/><glyph d="M711 718h-153l-94 -440h188q123 0 200.5 69.5t77.5 180.5q0 92 -58 141t-161 49zM38 0l307 1443h367l-94 -443h169q240 0 375 -116t135 -327q0 -254 -176 -405.5t-468 -151.5h-615zM1734 0h-367l307 1443h367z" glyph-name="Yericyrillic" horiz-adv-x="1933" unicode="Ы"/><glyph d="M711 718h-153l-94 -440h188q123 0 200.5 69.5t77.5 180.5q0 92 -58 141t-161 49zM38 0l307 1443h367l-94 -443h169q240 0 375 -116t135 -327q0 -254 -176 -405.5t-468 -151.5h-615z" glyph-name="Softsigncyrillic" horiz-adv-x="1334" unicode="Ь"/><glyph d="M731 -25q-268 0 -437 148.5t-174 389.5h357q11 -107 83.5 -168.5t188.5 -61.5q131 0 224.5 82t129.5 230h-531l59 266h505q0 141 -72.5 221t-200.5 80q-104 0 -186.5 -64t-121.5 -175h-358q57 254 243 399.5t455 145.5q292 0 455 -187.5t146 -502.5q-10 -239 -108 -421.5 t-268.5 -282t-388.5 -99.5z" glyph-name="Ereversedcyrillic" horiz-adv-x="1502" unicode="Э"/><glyph d="M1382 273q110 0 202.5 74.5t145.5 202t53 279.5q0 156 -74.5 248.5t-200.5 92.5q-109 0 -201 -74.5t-145 -202.5t-53 -279q0 -155 74.5 -248t198.5 -93zM591 877h191q74 270 273 430.5t461 160.5q148 0 269.5 -46.5t202 -129t124 -196t43.5 -246.5q0 -190 -61 -354 t-166 -278t-249 -178.5t-306 -64.5q-287 0 -455.5 169t-172.5 438h-217l-124 -582h-366l307 1443h367z" glyph-name="IUcyrillic" horiz-adv-x="2157" unicode="Ю"/><glyph d="M827 755h177l85 403h-201q-127 0 -203 -59.5t-76 -158.5q0 -87 59 -136t159 -49zM817 496l-427 -496h-427l484 561q-100 50 -156 148t-56 225q0 228 175.5 368.5t469.5 140.5h631l-307 -1443h-368l106 496h-125z" glyph-name="IAcyrillic" horiz-adv-x="1407" unicode="Я"/><glyph d="M510 223q77 0 137 44.5t74 111.5l18 81l-198 -6q-79 -3 -126 -36.5t-47 -88.5q0 -48 39.5 -77t102.5 -29zM358 -16q-137 0 -229.5 84t-92.5 212q0 167 130 264.5t357 104.5l258 8l13 64q4 23 4 36q0 47 -41 75.5t-110 28.5q-67 0 -112 -28t-60 -78h-316 q31 165 169.5 262.5t342.5 97.5q207 0 335 -91t128 -237q0 -43 -8 -89l-149 -698h-333l28 129h-7q-44 -66 -125.5 -105.5t-181.5 -39.5z" glyph-name="acyrillic" horiz-adv-x="1143" unicode="а"/><glyph d="M812 1056q193 0 300.5 -119.5t101.5 -326.5q-8 -292 -171 -462.5t-436 -170.5q-239 0 -374.5 153.5t-128.5 418.5q6 214 71 389q176 483 718 522q2 0 77 5l76 5q230 15 298 38l-65 -270q-62 -24 -269 -36q-1 -1 -76.5 -5.5t-80.5 -4.5q-167 -11 -269.5 -91.5 t-148.5 -237.5h15q133 193 362 193zM625 242q101 0 174.5 96.5t77.5 233.5q2 109 -45 172.5t-131 63.5q-109 0 -181.5 -94t-76.5 -240q-2 -104 47.5 -168t134.5 -64z" glyph-name="becyrillic" horiz-adv-x="1252" unicode="б"/><glyph d="M11 0l232 1089h568q160 0 251 -65.5t91 -181.5q0 -98 -73.5 -171.5t-186.5 -87.5l-3 -13q96 -10 152.5 -66t56.5 -142q0 -164 -129 -263t-343 -99h-616zM597 468h-148l-56 -259h157q87 0 141 41.5t54 107.5q0 110 -148 110zM683 885h-146l-49 -233h139q82 0 131.5 37.5 t49.5 98.5q0 97 -125 97z" glyph-name="vecyrillic" horiz-adv-x="1177" unicode="в"/><glyph d="M983 834h-435l-177 -834h-345l232 1089h780z" glyph-name="gecyrillic" horiz-adv-x="933" unicode="г"/><glyph d="M794 256l124 580h-295q0 -1 -21 -75.5t-41.5 -148t-20.5 -72.5q-47 -170 -126 -266l-4 -18h384zM1310 1089l-177 -833h157l-114 -536h-312l60 280h-688l-60 -280h-312l115 536h81q110 52 181 307q0 -1 36 130t72.5 263t36.5 133h924z" glyph-name="decyrillic" horiz-adv-x="1326" unicode="д"/><glyph d="M441 667h417q3 9 3 31q0 74 -49 122.5t-132 48.5q-86 0 -151 -56t-88 -146zM594 -25q-231 0 -365 132.5t-134 361.5q0 183 74.5 330t211.5 231.5t313 84.5q217 0 350 -128t133 -340q0 -103 -17 -178h-751q-3 -17 -3 -33q0 -94 55 -153t149 -59q74 0 127 34.5t73 92.5h321 q-43 -170 -187 -273t-350 -103z" glyph-name="iecyrillic" horiz-adv-x="1203" unicode="е"/><glyph d="M1862 1089l-482 -534l254 -555h-349l-209 447h-14l-95 -447h-337l96 447h-14l-394 -447h-402l530 606l-236 483h349l201 -424h12l90 424h336l-90 -424h13l371 424h370z" glyph-name="zhecyrillic" horiz-adv-x="1717" unicode="ж"/><glyph d="M1068 344q-1 -161 -146 -264t-374 -103q-221 0 -353.5 111t-134.5 296h321q5 -67 52.5 -107t124.5 -40q71 0 118.5 34.5t47.5 84.5q0 91 -138 91h-140l44 209h127q71 0 115 29.5t45 76.5q0 41 -37 67.5t-95 26.5q-72 0 -119.5 -35.5t-61.5 -98.5h-320q32 185 172 287 t362 102q195 0 318 -82.5t123 -211.5q-1 -86 -61 -154.5t-152 -86.5l-3 -11q77 -26 121 -84t44 -137z" glyph-name="zecyrillic" horiz-adv-x="1148" unicode="з"/><glyph d="M349 0h-338l232 1089h336l-131 -614h17l518 614h337l-232 -1089h-337l133 627h-16z" glyph-name="iicyrillic" horiz-adv-x="1265" unicode="и"/><glyph d="M349 0h-338l232 1089h336l-131 -614h17l518 614h337l-232 -1089h-337l133 627h-16zM519 1586h210q-14 -78 19.5 -125.5t105.5 -47.5t125.5 47.5t72.5 125.5h211q-27 -156 -146 -250t-297 -94q-163 0 -245.5 94.5t-55.5 249.5z" glyph-name="iishortcyrillic" horiz-adv-x="1265" unicode="й"/><glyph d="M1295 1089l-531 -534l303 -555h-377l-235 443h-6l-94 -443h-344l232 1089h344l-90 -420h6l403 420h389z" glyph-name="kacyrillic" horiz-adv-x="1154" unicode="к"/><glyph d="M540 522q-76 -292 -192 -414t-318 -122q-70 0 -110 14l61 285q28 -7 65 -7q63 0 110.5 66.5t84.5 206.5q1 4 71.5 270t70.5 268h873l-232 -1089h-336l177 834h-241q-1 -1 -42.5 -156t-41.5 -156z" glyph-name="elcyrillic" horiz-adv-x="1203" unicode="л"/><glyph d="M331 0h-320l232 1089h451l96 -645h17l376 645h452l-232 -1089h-320l149 701h-16l-379 -628h-231l-111 628h-15z" glyph-name="emcyrillic" horiz-adv-x="1580" unicode="м"/><glyph d="M11 0l232 1089h344l-86 -407h374l86 407h344l-231 -1089h-344l90 428h-374l-91 -428h-344z" glyph-name="encyrillic" horiz-adv-x="1251" unicode="н"/><glyph d="M618 242q113 0 189 108t76 267q0 104 -48 167t-127 63q-115 0 -190.5 -106.5t-75.5 -268.5q0 -104 48 -167t128 -63zM723 1115q229 0 370 -135.5t141 -355.5q0 -139 -47.5 -260t-130 -206.5t-200 -134.5t-252.5 -49q-229 0 -370 135t-141 356q0 139 47.5 260t130 206.5 t200 134.5t252.5 49z" glyph-name="ocyrillic" horiz-adv-x="1261" unicode="о"/><glyph d="M720 0l177 834h-365l-177 -834h-344l232 1089h1053l-231 -1089h-345z" glyph-name="pecyrillic" horiz-adv-x="1242" unicode="п"/><glyph d="M644 258q110 0 186.5 106.5t76.5 261.5q0 98 -48 156t-129 58q-111 0 -189 -111t-78 -261q0 -94 49.5 -152t131.5 -58zM279 -352h-343l307 1441h335l-34 -157h7q60 85 148 129t192 44q171 0 270.5 -114.5t99.5 -310.5q0 -198 -70 -357t-194 -249t-277 -90q-118 0 -201 57 t-115 159h-7z" glyph-name="ercyrillic" horiz-adv-x="1283" unicode="р"/><glyph d="M697 1115q209 0 343 -115t134 -285v-43h-329q-1 75 -45 120.5t-119 45.5q-108 0 -176 -105.5t-68 -274.5q0 -94 45 -150.5t120 -56.5q73 0 124.5 43.5t71.5 120.5h329q-28 -196 -177 -318.5t-362 -122.5q-228 0 -361.5 128t-133.5 342q0 305 164 488t440 183z" glyph-name="escyrillic" horiz-adv-x="1170" unicode="с"/><glyph d="M1140 1089l-54 -255h-311l-178 -834h-345l178 834h-312l55 255h967z" glyph-name="tecyrillic" horiz-adv-x="1014" unicode="т"/><glyph d="M86 -399q-132 0 -144 4l55 267q9 -3 104 -3q159 0 180 114q0 3 4 17.5t3 16.5l-125 1072h352l29 -818h7l377 818h367l-587 -1102q-111 -209 -256 -297.5t-366 -88.5z" glyph-name="ucyrillic" horiz-adv-x="1162" unicode="у"/><glyph d="M861 -351h-341l71 334q-230 8 -364.5 134t-134.5 335q0 290 202 470t536 187l69 322h340l-69 -323q231 -7 365 -133.5t134 -335.5q0 -290 -202 -470t-536 -187zM1319 613q0 111 -54.5 176t-150.5 69l-132 -626q146 7 241.5 115t95.5 266zM443 478q0 -111 54.5 -176 t149.5 -69l132 626q-145 -7 -240.5 -115t-95.5 -266z" glyph-name="efcyrillic" horiz-adv-x="1696" unicode="ф"/><glyph d="M575 341h-7l-239 -341h-381l447 549l-211 540h368l110 -341h7l238 341h381l-446 -549l211 -540h-369z" glyph-name="hacyrillic" horiz-adv-x="1171" unicode="х"/><glyph d="M1163 -280h-311l60 280h-901l232 1089h344l-177 -833h364l178 833h344l-177 -833h158z" glyph-name="tsecyrillic" horiz-adv-x="1313" unicode="ц"/><glyph d="M1032 0h-344l95 446h-10q-116 -118 -299 -118q-186 0 -270 126.5t-38 339.5l63 295h344l-62 -289q-20 -94 15.5 -144.5t122.5 -50.5q53 0 103 23t82 62l87 399h344z" glyph-name="checyrillic" horiz-adv-x="1210" unicode="ч"/><glyph d="M11 0l232 1089h344l-177 -833h262l177 833h345l-177 -833h262l177 833h344l-231 -1089h-1558z" glyph-name="shacyrillic" horiz-adv-x="1746" unicode="ш"/><glyph d="M1666 -280h-311l60 280h-1404l232 1089h344l-177 -833h262l177 833h345l-177 -833h262l177 833h344l-177 -833h158z" glyph-name="shchacyrillic" horiz-adv-x="1817" unicode="щ"/><glyph d="M750 0h-559l177 834h-275l55 255h619l-64 -301h182q176 0 281.5 -89.5t105.5 -236.5q0 -197 -149 -329.5t-373 -132.5zM797 537h-147l-59 -281h147q80 0 133.5 49t53.5 120q0 53 -34 82.5t-94 29.5z" glyph-name="hardsigncyrillic" horiz-adv-x="1312" unicode="ъ"/><glyph d="M1114 0l232 1089h345l-232 -1089h-345zM616 537h-146l-60 -281h146q80 0 134 49.5t54 119.5q0 51 -34 81.5t-94 30.5zM11 0l232 1089h344l-64 -301h181q175 0 281 -89.5t106 -236.5q0 -128 -67 -234t-187 -167t-269 -61h-557z" glyph-name="yericyrillic" horiz-adv-x="1639" unicode="ы"/><glyph d="M616 537h-146l-60 -281h146q80 0 134 49.5t54 119.5q0 51 -34 81.5t-94 30.5zM11 0l232 1089h344l-64 -301h181q175 0 281 -89.5t106 -236.5q0 -128 -67 -234t-187 -167t-269 -61h-557z" glyph-name="softsigncyrillic" horiz-adv-x="1131" unicode="ь"/><glyph d="M439 702h-316q50 199 190 306t353 107q227 0 356.5 -128t129.5 -352q0 -192 -74.5 -342t-213 -234.5t-319.5 -84.5q-217 0 -339 109t-131 303h318q5 -69 47 -108t113 -39q85 0 150.5 60t81.5 149h-353l45 212h339q0 88 -46 137.5t-130 49.5q-68 0 -120.5 -38t-80.5 -107z" glyph-name="ereversedcyrillic" horiz-adv-x="1178" unicode="э"/><glyph d="M1107 -26q-215 0 -351 122.5t-150 327.5v4h-156l-91 -428h-344l231 1090h344l-86 -407h131q61 196 218.5 314t371.5 118q226 0 364.5 -135.5t138.5 -355.5q0 -187 -79 -335.5t-221 -231.5t-321 -83zM1120 234q104 0 180.5 113t76.5 281q0 101 -46 164t-122 63 q-105 0 -181 -112t-76 -282q0 -101 46 -164t122 -63z" glyph-name="iucyrillic" horiz-adv-x="1755" unicode="ю"/><glyph d="M617 569h149l57 267h-150q-81 0 -132.5 -43t-51.5 -111q0 -52 34.5 -82.5t93.5 -30.5zM645 0l72 338h-74l-296 -338h-402l364 397q-80 41 -123.5 113t-43.5 163q0 183 145 299.5t373 116.5h561l-232 -1089h-344z" glyph-name="iacyrillic" horiz-adv-x="1166" unicode="я"/><glyph d="M441 667h417q3 9 3 31q0 74 -49 122.5t-132 48.5q-86 0 -151 -56t-88 -146zM594 -25q-231 0 -365 132.5t-134 361.5q0 183 74.5 330t211.5 231.5t313 84.5q217 0 350 -128t133 -340q0 -103 -17 -178h-751q-3 -17 -3 -33q0 -94 55 -153t149 -59q74 0 127 34.5t73 92.5h321 q-43 -170 -187 -273t-350 -103zM849 1259h-273l-193 316h307z" glyph-name="uni0450" horiz-adv-x="1203" unicode="ѐ"/><glyph d="M441 667h417q3 9 3 31q0 74 -49 122.5t-132 48.5q-86 0 -151 -56t-88 -146zM594 -25q-231 0 -365 132.5t-134 361.5q0 183 74.5 330t211.5 231.5t313 84.5q217 0 350 -128t133 -340q0 -103 -17 -178h-751q-3 -17 -3 -33q0 -94 55 -153t149 -59q74 0 127 34.5t73 92.5h321 q-43 -170 -187 -273t-350 -103zM563 1246q-60 0 -100 38.5t-40 94.5t40 95t100 39q59 0 99 -39t40 -95t-40 -94.5t-99 -38.5zM970 1246q-60 0 -100 38.5t-40 94.5t40 95t100 39t100 -39t40 -95t-40 -94.5t-100 -38.5z" glyph-name="iocyrillic" horiz-adv-x="1203" unicode="ё"/><glyph d="M551 923h7q60 89 151.5 138t202.5 49q149 0 241.5 -85.5t92.5 -221.5q0 -60 -14 -132l-156 -727q-34 -164 -154 -250.5t-311 -87.5q-14 0 -118 4l56 251q8 -2 47 -2q121 0 143 103l140 655q9 44 9 76q0 66 -47 108t-122 42q-82 0 -144.5 -55t-81.5 -143l-137 -645h-343 l252 1181h-141l35 159h140l22 105h342l-23 -105h218l-36 -159h-216z" glyph-name="djecyrillic" horiz-adv-x="1261" unicode="ђ"/><glyph d="M983 834h-435l-177 -834h-345l232 1089h780zM873 1259h-277l293 316h312z" glyph-name="gjecyrillic" horiz-adv-x="933" unicode="ѓ"/><glyph d="M1118 388q-41 -195 -180.5 -304.5t-351.5 -109.5q-237 0 -365.5 128.5t-128.5 358.5q0 189 75.5 338t213 232.5t313.5 83.5q219 0 341.5 -109.5t132.5 -303.5h-317q-7 67 -53.5 107.5t-120.5 40.5q-80 0 -139 -51.5t-79 -136.5h353l-44 -212h-341q-1 -2 -1 -6 q1 -95 49.5 -149t134.5 -54q69 0 121 40t71 107h316z" glyph-name="ecyrillic" horiz-adv-x="1163" unicode="є"/><glyph d="M170 757q0 161 130.5 259t346.5 98q204 0 334.5 -100t135.5 -259h-310q-4 56 -49.5 91.5t-115.5 35.5q-66 0 -105.5 -26t-39.5 -69q0 -36 30.5 -59t113.5 -51l116 -38q154 -52 219.5 -120t65.5 -178q0 -165 -135.5 -266t-358.5 -101q-226 0 -363.5 101t-144.5 270h327 q5 -62 56.5 -99.5t134.5 -37.5q66 0 104.5 26t38.5 70q0 34 -29 55.5t-109 48.5l-98 33q-152 50 -223.5 127t-71.5 189z" glyph-name="dzecyrillic" horiz-adv-x="1118" unicode="ѕ"/><glyph d="M13 0l232 1089h345l-232 -1089h-345zM473 1180q-76 0 -128 49.5t-52 122.5q0 74 52 123.5t128 49.5t128 -49.5t52 -123.5q0 -73 -52 -122.5t-128 -49.5z" glyph-name="icyrillic" horiz-adv-x="538" unicode="і"/><glyph d="M301 1210q-62 0 -104 43t-42 104t42 103.5t104 42.5t104 -42.5t42 -103.5t-42 -104t-104 -43zM677 1210q-62 0 -104 43t-42 104t42 103.5t104 42.5t104 -42.5t42 -103.5t-42 -104t-104 -43zM17 0l232 1089h345l-232 -1089h-345z" glyph-name="yicyrillic" horiz-adv-x="538" unicode="ї"/><glyph d="M475 1180q-76 0 -128 49.5t-52 122.5q0 74 52 123.5t128 49.5t128 -49.5t52 -123.5q0 -73 -52 -122.5t-128 -49.5zM589 1089l-247 -1159q-33 -153 -148 -238t-285 -85q-85 0 -151 14l54 247q34 -6 66 -6q107 0 128 103l239 1124h344z" glyph-name="jecyrillic" horiz-adv-x="536" unicode="ј"/><glyph d="M23 -14q-61 0 -103 14l61 285q28 -7 65 -7q123 0 193 263q-1 -2 35.5 136t72.5 275.5t36 136.5h873l-64 -301h180q176 0 282 -90t106 -236q0 -197 -150 -329.5t-373 -132.5h-557l177 834h-237q0 1 -21 -77.5t-42 -157.5t-21 -78q-79 -296 -193.5 -415.5t-319.5 -119.5z M1285 537h-146l-60 -281h146q80 0 133.5 49.5t53.5 119.5q0 52 -34 82t-93 30z" glyph-name="ljecyrillic" horiz-adv-x="1800" unicode="љ"/><glyph d="M1123 249h153q80 0 129 37t49 97q0 45 -32.5 70t-90.5 25h-160zM358 0h-345l232 1089h344l-78 -369h367l78 369h345l-78 -365h169q186 0 297.5 -85t111.5 -226q0 -179 -145 -296t-367 -117h-564l99 471h-366z" glyph-name="njecyrillic" horiz-adv-x="1841" unicode="њ"/><glyph d="M551 923h7q59 88 149.5 137.5t204.5 49.5q150 0 242.5 -86t92.5 -221q0 -61 -15 -132l-142 -671h-342l131 617q9 44 9 76q0 66 -46.5 108t-121.5 42q-83 0 -146 -56t-82 -145l-136 -642h-343l251 1179h-96l36 172h96l20 92h343l-20 -92h208l-37 -172h-208z" glyph-name="tshecyrillic" horiz-adv-x="1257" unicode="ћ"/><glyph d="M1251 1575l-328 -316h-277l293 316h312zM1295 1089l-531 -534l303 -555h-377l-235 443h-6l-94 -443h-344l232 1089h344l-90 -420h6l403 420h389z" glyph-name="kjecyrillic" horiz-adv-x="1154" unicode="ќ"/><glyph d="M349 0h-338l232 1089h336l-131 -614h17l518 614h337l-232 -1089h-337l133 627h-16zM938 1259h-273l-193 316h307z" glyph-name="uni045D" horiz-adv-x="1265" unicode="ѝ"/><glyph d="M86 -399q-132 0 -144 4l55 267q9 -3 104 -3q159 0 180 114q0 3 4 17.5t3 16.5l-125 1072h352l29 -818h7l377 818h367l-587 -1102q-111 -209 -256 -297.5t-366 -88.5zM461 1587h210q-14 -78 19.5 -125.5t105.5 -47.5t125.5 47.5t72.5 125.5h211q-27 -156 -146 -250 t-297 -94q-163 0 -245.5 94.5t-55.5 249.5z" glyph-name="ushortcyrillic" horiz-adv-x="1162" unicode="ў"/><glyph d="M1065 0h-371l-60 -280h-312l60 280h-371l232 1089h344l-177 -833h364l178 833h344z" glyph-name="dzhecyrillic" horiz-adv-x="1242" unicode="џ"/><glyph d="M509 278h188q122 0 198.5 65t76.5 169q0 81 -59.5 123.5t-165.5 42.5h-153zM653 955h169q243 0 379.5 -109t136.5 -304q0 -248 -175 -395t-465 -147h-616l232 1091h-184l50 235h185l43 204h367l-43 -204h355l-50 -235h-355z" glyph-name="uni0462" horiz-adv-x="1378" unicode="Ѣ"/><glyph d="M791 348q0 62 14 124l28 124q8 36 8 78q0 68 -38 110t-102 42q-74 0 -130 -55.5t-76 -147.5l-135 -623h-353l234 1089h343l-40 -181h8q56 95 145.5 146t201.5 51q141 0 226.5 -87t85.5 -229v-6h153q197 0 305.5 -88t108.5 -248q0 -212 -146 -341t-384 -129 q-218 0 -337.5 98.5t-119.5 272.5zM1140 364q0 -54 37 -88t97 -34q71 0 116 47.5t45 122.5q0 117 -140 117h-126l-24 -111q-5 -21 -5 -54z" glyph-name="uni0463" horiz-adv-x="1838" unicode="ѣ"/><glyph d="M797 273q129 0 233.5 96.5t150.5 252.5q-87 -67 -187 -67q-77 0 -181 37.5t-161 37.5q-83 0 -140 -44q8 -143 84.5 -228t200.5 -85zM923 1170q-128 0 -230.5 -94t-149.5 -247q81 63 176 63q78 0 183 -37.5t164 -37.5q86 0 143 44q-8 143 -85 226t-201 83zM931 1468 q150 0 272.5 -46.5t204.5 -129t126 -196t44 -246.5q0 -190 -62 -354t-168 -278t-251.5 -178.5t-309.5 -64.5q-147 0 -269 46.5t-203.5 128.5t-126.5 196t-45 247q0 190 61 354t166.5 277.5t251 178.5t309.5 65z" glyph-name="uni0472" horiz-adv-x="1580" unicode="Ѳ"/><glyph d="M616 234q86 0 155.5 59.5t105.5 157.5q-57 -46 -134 -46q-53 0 -117 22t-102 22q-65 0 -101 -36q12 -83 63.5 -131t129.5 -48zM712 855q-95 0 -169.5 -70.5t-105.5 -185.5q70 72 156 72q56 0 119.5 -20t102.5 -20q63 0 91 26q-8 91 -60 144.5t-134 53.5zM723 1115 q229 0 370 -135.5t141 -355.5q0 -139 -47.5 -260t-130 -206.5t-200 -134.5t-252.5 -49q-229 0 -370 135t-141 356q0 139 47.5 260t130 206.5t200 134.5t252.5 49z" glyph-name="uni0473" horiz-adv-x="1261" unicode="ѳ"/><glyph d="M885 0h-465l-158 1443h418l55 -1061h16l320 673q113 254 243 339q101 68 244 68q71 0 141.5 -18.5t116.5 -49.5l-160 -290q-45 20 -83 20q-47 0 -79 -26q-37 -28 -80 -106z" glyph-name="uni0474" horiz-adv-x="1612" unicode="Ѵ"/><glyph d="M1414 1052l-140 -257q-32 17 -73 17t-71 -23q-30 -26 -65 -89l-381 -700h-399l-122 1089h346l32 -784h7l207 443q55 122 104 192.5t110 110.5q94 62 216 62q62 0 125.5 -16.5t103.5 -44.5z" glyph-name="uni0475" horiz-adv-x="1233" unicode="ѵ"/><glyph d="M1251 1868h212q-32 -149 -137.5 -232t-276.5 -83q-176 0 -266.5 83.5t-66.5 231.5h212q-13 -69 22.5 -107.5t107.5 -38.5q75 0 126 38t67 108zM1660 1443l-244 -1148h222l-14 -68l-260 -512h-332l141 285h-179l190 892h-19l-776 -892h-351l307 1443h359l-191 -893h19 l777 893h351z" glyph-name="uni048A" horiz-adv-x="1726" unicode="Ҋ"/><glyph d="M1052 1586h211q-27 -156 -146 -250t-297 -94q-163 0 -245.5 94.5t-55.5 249.5h210q-14 -78 19.5 -125.5t105.5 -47.5t125.5 47.5t72.5 125.5zM1146 274h193l-14 -64l-228 -461h-310l125 251h-161l133 627h-16l-519 -627h-338l232 1089h336l-131 -614h17l518 614h337z" glyph-name="uni048B" horiz-adv-x="1422" unicode="ҋ"/><glyph d="M509 278h188q122 0 198.5 65t76.5 169q0 81 -59.5 123.5t-165.5 42.5h-153zM653 955h169q243 0 379.5 -109t136.5 -304q0 -248 -175 -395t-465 -147h-616l232 1091h-184l50 235h185l43 204h367l-43 -204h355l-50 -235h-355z" glyph-name="uni048C" horiz-adv-x="1378" unicode="Ҍ"/><glyph d="M563 256h146q79 0 133.5 48.5t54.5 118.5q0 53 -34 83.5t-94 30.5h-145zM676 788h181q175 0 281 -90t106 -238q0 -196 -147 -328t-370 -132h-562l196 923h-239l35 166h240l75 354h344l-76 -354h382l-36 -166h-381z" glyph-name="uni048D" horiz-adv-x="1284" unicode="ҍ"/><glyph d="M552 700h181h6l-71 164l187 81l77 -175q84 76 84 205q0 92 -54.5 139t-156.5 47h-155zM343 1443h538q234 0 369 -118.5t135 -316.5q0 -175 -77.5 -305.5t-218.5 -202.5l68 -151l-247 -119l-87 197q-39 -4 -90 -4h-239l-90 -423h-366z" glyph-name="uni048E" horiz-adv-x="1334" unicode="Ҏ"/><glyph d="M767 526l71 -150q69 104 69 250q0 98 -48 156t-129 58q-111 0 -189 -111t-78 -261q0 -94 49.5 -152t131.5 -58q8 0 26 2l-86 182zM544 932h7q60 85 148 129t192 44q171 0 270.5 -114.5t99.5 -310.5q0 -191 -65.5 -346t-180.5 -246l80 -179l-249 -112l-82 189 q-30 -2 -44 -2q-118 0 -201 57t-115 159h-7l-118 -552h-343l307 1441h335z" glyph-name="uni048F" horiz-adv-x="1283" unicode="ҏ"/><glyph d="M649 1148l-244 -1148h-367l307 1443h627l60 285h345l-124 -580h-604z" glyph-name="Geupturncyrillic" horiz-adv-x="1156" unicode="Ґ"/><glyph d="M968 834h-436l-177 -834h-344l232 1089h468l59 280h312z" glyph-name="geupturncyrillic" horiz-adv-x="932" unicode="ґ"/><glyph d="M1253 1148h-604l-68 -317h399l-54 -256h-399l-123 -575h-366l122 575h-120l54 256h121l130 612h971z" glyph-name="uni0492" horiz-adv-x="1156" unicode="Ғ"/><glyph d="M983 834h-435l-47 -221h289l-50 -234h-289l-80 -379h-345l81 379h-110l50 234h110l101 476h780z" glyph-name="uni0493" horiz-adv-x="933" unicode="ғ"/><glyph d="M1302 1443l-64 -295h-590l-74 -350h17q150 108 353 108q188 0 304.5 -105t116.5 -276q0 -129 -43.5 -241t-125 -196.5t-208.5 -133t-285 -48.5q-115 0 -157 17l58 277q33 -11 111 -11q123 0 195.5 73t72.5 176q0 77 -50 119t-141 42q-89 0 -166.5 -37.5t-123.5 -99.5 l-98 -462h-366l307 1443h957z" glyph-name="uni0494" horiz-adv-x="1423" unicode="Ҕ"/><glyph d="M479 537h6q133 98 296 98q178 0 278 -105t100 -279q0 -252 -165.5 -412t-433.5 -160q-108 0 -151 17l56 264q38 -8 98 -8q102 0 164.5 65t62.5 160q0 77 -39 118.5t-112 41.5q-129 0 -227 -115l-47 -222h-354l232 1089h828l-56 -262h-474z" glyph-name="uni0495" horiz-adv-x="1247" unicode="ҕ"/><glyph d="M1631 697l215 -402h280l-123 -580h-330l61 285h-108l-310 580h-15l-123 -580h-359l123 580h-16l-555 -580h-432l716 752l-353 691h376l306 -604h13l129 604h359l-129 -605h14l563 605h390z" glyph-name="uni0496" horiz-adv-x="2224" unicode="Җ"/><glyph d="M1380 555l129 -281h271l-111 -525h-321l53 251h-116l-209 447h-14l-95 -447h-337l96 447h-14l-394 -447h-402l530 606l-236 483h349l201 -424h12l90 424h336l-90 -424h13l371 424h370z" glyph-name="uni0497" horiz-adv-x="1898" unicode="җ"/><glyph d="M1002 728l-1 -7q118 -29 184 -108t66 -192q0 -165 -124.5 -283t-328.5 -152l-58 -271h-312l59 275q-208 39 -320 166t-84 298h338q-5 -86 62 -141t175 -55q102 0 169.5 53.5t67.5 133.5q0 76 -63.5 119.5t-174.5 43.5h-149l54 262h181q115 0 181 44.5t66 121.5 q0 69 -55 110t-147 41q-86 0 -149 -43.5t-76 -110.5h-333q27 192 190.5 313.5t396.5 121.5q230 0 376 -108t146 -278q0 -136 -94 -235t-243 -119z" glyph-name="uni0498" horiz-adv-x="1323" unicode="Ҙ"/><glyph d="M906 576l-3 -11q77 -26 121 -84t44 -137q-1 -130 -97.5 -224t-258.5 -127l-59 -278h-305l59 276q-161 32 -253.5 136t-93.5 257h321q5 -67 52.5 -107t124.5 -40q71 0 118.5 34.5t47.5 84.5q0 91 -138 91h-140l44 209h127q71 0 115 29.5t45 76.5q0 41 -37 67.5t-95 26.5 q-72 0 -119.5 -35.5t-61.5 -98.5h-320q32 185 172 287t362 102q195 0 318 -82.5t123 -211.5q-1 -86 -61 -154.5t-152 -86.5z" glyph-name="uni0499" horiz-adv-x="1148" unicode="ҙ"/><glyph d="M878 702l258 -407h277l-123 -580h-330l61 285h-108l-372 580h-12l-124 -580h-367l307 1443h367l-128 -601h10l600 601h425z" glyph-name="uni049A" horiz-adv-x="1511" unicode="Қ"/><glyph d="M764 555l154 -281h267l-112 -525h-321l54 251h-116h-1v1l-234 442h-6l-94 -443h-344l232 1089h344l-90 -420h6l403 420h389z" glyph-name="uni049B" horiz-adv-x="1303" unicode="қ"/><glyph d="M1742 1443l-544 -736l235 -707h-394l-190 570h-21l-59 -277h-206l59 277h-97l-121 -570h-366l307 1443h366l-130 -612h96l61 288h207l-61 -288h19l451 612h388z" glyph-name="uni049C" horiz-adv-x="1555" unicode="Ҝ"/><glyph d="M1504 1089l-397 -520l168 -569h-373l-118 432h-37l-48 -225h-202l48 225h-88l-92 -432h-354l232 1089h354l-88 -411h88l48 227h202l-48 -227h19l298 411h388z" glyph-name="uni049D" horiz-adv-x="1368" unicode="ҝ"/><glyph d="M1619 1443l-741 -741l446 -702h-411l-372 580h-12l-124 -580h-367l232 1092h-130l49 233h131l25 118h367l-25 -118h159l-49 -233h-160l-53 -250h10l600 601h425z" glyph-name="uni049E" horiz-adv-x="1429" unicode="Ҟ"/><glyph d="M1306 1089l-497 -473l297 -616h-373l-200 429l-105 -97l-71 -332h-344l248 1162h-120l44 206h120l16 75h343l-16 -75h227l-44 -206h-227l-100 -472h7l397 399h398z" glyph-name="uni049F" horiz-adv-x="1176" unicode="ҟ"/><glyph d="M2137 1443l-741 -741l446 -702h-411l-372 580h-12l-124 -580h-367l244 1148h-597l63 295h597h367l-128 -601h10l600 601h425z" glyph-name="uni04A0" horiz-adv-x="1946" unicode="Ҡ"/><glyph d="M1632 1089l-531 -534l303 -555h-377l-235 443h-6l-94 -443h-344l177 833h-407l54 256h408h344l-54 -256h-1l-35 -164h6l403 420h389z" glyph-name="uni04A1" horiz-adv-x="1491" unicode="ҡ"/><glyph d="M1653 1443l-244 -1148h172l-123 -580h-330l61 285h-218l125 584h-559l-124 -584h-375l307 1443h375l-122 -568h559l121 568h375z" glyph-name="uni04A2" horiz-adv-x="1686" unicode="Ң"/><glyph d="M1305 1089l-173 -815h171l-112 -525h-320l53 251h-194l90 428h-374l-91 -428h-344l232 1089h344l-86 -407h374l86 407h344z" glyph-name="uni04A3" horiz-adv-x="1396" unicode="ң"/><glyph d="M2165 1443l-62 -295h-513l-244 -1148h-375l125 584h-559l-124 -584h-375l307 1443h375l-122 -568h559l121 568h375h512z" glyph-name="uni04A4" horiz-adv-x="2005" unicode="Ҥ"/></font>
</defs>
</svg>
